G04 EAGLE Gerber RS-274X export*
G75*
%MOMM*%
%FSLAX34Y34*%
%LPD*%
%INBottom Copper*%
%IPPOS*%
%AMOC8*
5,1,8,0,0,1.08239X$1,22.5*%
G01*
%ADD10R,2.500000X2.500000*%
%ADD11C,2.500000*%
%ADD12C,1.778000*%
%ADD13C,1.208000*%
%ADD14C,1.422400*%
%ADD15C,0.914400*%
%ADD16C,0.203200*%
%ADD17C,0.355600*%
%ADD18C,0.152400*%
%ADD19C,0.756400*%
%ADD20C,0.304800*%

G36*
X658756Y112318D02*
X658756Y112318D01*
X658856Y112323D01*
X658927Y112344D01*
X659001Y112355D01*
X659094Y112392D01*
X659191Y112420D01*
X659256Y112456D01*
X659325Y112484D01*
X659407Y112541D01*
X659495Y112590D01*
X659571Y112655D01*
X659611Y112683D01*
X659635Y112709D01*
X659681Y112749D01*
X788487Y241555D01*
X790719Y243787D01*
X805348Y243787D01*
X805498Y243804D01*
X805647Y243816D01*
X805670Y243824D01*
X805694Y243827D01*
X805836Y243877D01*
X805979Y243924D01*
X806000Y243936D01*
X806023Y243944D01*
X806149Y244026D01*
X806278Y244103D01*
X806295Y244120D01*
X806315Y244133D01*
X806420Y244241D01*
X806528Y244346D01*
X806541Y244366D01*
X806558Y244384D01*
X806635Y244513D01*
X806716Y244639D01*
X806724Y244662D01*
X806736Y244683D01*
X806782Y244826D01*
X806833Y244968D01*
X806835Y244992D01*
X806843Y245015D01*
X806855Y245164D01*
X806871Y245314D01*
X806869Y245338D01*
X806871Y245362D01*
X806848Y245511D01*
X806831Y245660D01*
X806822Y245688D01*
X806819Y245707D01*
X806801Y245751D01*
X806755Y245893D01*
X806487Y246540D01*
X806487Y248652D01*
X807295Y250602D01*
X808788Y252095D01*
X810738Y252903D01*
X812850Y252903D01*
X814800Y252095D01*
X816363Y250531D01*
X816371Y250518D01*
X816422Y250462D01*
X816466Y250399D01*
X816539Y250333D01*
X816605Y250260D01*
X816668Y250217D01*
X816724Y250166D01*
X816811Y250118D01*
X816892Y250062D01*
X816963Y250034D01*
X817029Y249997D01*
X817124Y249970D01*
X817216Y249934D01*
X817291Y249923D01*
X817365Y249902D01*
X817514Y249890D01*
X817561Y249883D01*
X817580Y249885D01*
X817609Y249883D01*
X817836Y249883D01*
X817961Y249897D01*
X818088Y249904D01*
X818134Y249917D01*
X818182Y249923D01*
X818301Y249965D01*
X818422Y250000D01*
X818465Y250024D01*
X818510Y250040D01*
X818617Y250109D01*
X818727Y250170D01*
X818773Y250210D01*
X818803Y250229D01*
X818837Y250264D01*
X818913Y250329D01*
X882840Y314256D01*
X882888Y314316D01*
X882942Y314369D01*
X882996Y314452D01*
X883057Y314529D01*
X883089Y314598D01*
X883131Y314662D01*
X883164Y314755D01*
X883206Y314844D01*
X883222Y314919D01*
X883247Y314991D01*
X883258Y315089D01*
X883279Y315185D01*
X883278Y315261D01*
X883286Y315337D01*
X883275Y315435D01*
X883273Y315533D01*
X883254Y315607D01*
X883245Y315683D01*
X883200Y315825D01*
X883188Y315871D01*
X883179Y315888D01*
X883170Y315916D01*
X882585Y317328D01*
X882585Y321472D01*
X884171Y325300D01*
X887100Y328229D01*
X890928Y329815D01*
X895072Y329815D01*
X898900Y328229D01*
X901829Y325300D01*
X903415Y321472D01*
X903415Y317328D01*
X901829Y313501D01*
X901010Y312681D01*
X900947Y312602D01*
X900878Y312530D01*
X900839Y312466D01*
X900793Y312408D01*
X900750Y312317D01*
X900699Y312231D01*
X900676Y312160D01*
X900644Y312093D01*
X900623Y311995D01*
X900592Y311899D01*
X900586Y311825D01*
X900571Y311752D01*
X900573Y311652D01*
X900564Y311552D01*
X900576Y311478D01*
X900577Y311404D01*
X900601Y311307D01*
X900616Y311207D01*
X900644Y311138D01*
X900662Y311066D01*
X900708Y310977D01*
X900745Y310883D01*
X900787Y310822D01*
X900821Y310756D01*
X900887Y310680D01*
X900944Y310597D01*
X900999Y310547D01*
X901047Y310491D01*
X901128Y310431D01*
X901203Y310364D01*
X901268Y310328D01*
X901328Y310283D01*
X901420Y310244D01*
X901508Y310195D01*
X901579Y310175D01*
X901648Y310145D01*
X901746Y310128D01*
X901843Y310100D01*
X901943Y310092D01*
X901991Y310084D01*
X902026Y310086D01*
X902087Y310081D01*
X903626Y310081D01*
X903752Y310095D01*
X903878Y310102D01*
X903924Y310115D01*
X903972Y310121D01*
X904091Y310163D01*
X904213Y310198D01*
X904255Y310222D01*
X904301Y310238D01*
X904407Y310307D01*
X904517Y310368D01*
X904563Y310408D01*
X904593Y310427D01*
X904627Y310462D01*
X904703Y310527D01*
X908296Y314120D01*
X908344Y314180D01*
X908399Y314233D01*
X908452Y314316D01*
X908513Y314393D01*
X908546Y314462D01*
X908587Y314526D01*
X908620Y314619D01*
X908662Y314708D01*
X908678Y314783D01*
X908704Y314855D01*
X908715Y314953D01*
X908735Y315049D01*
X908734Y315125D01*
X908743Y315201D01*
X908731Y315299D01*
X908729Y315397D01*
X908711Y315471D01*
X908702Y315547D01*
X908656Y315689D01*
X908644Y315735D01*
X908636Y315752D01*
X908627Y315780D01*
X907985Y317328D01*
X907985Y321472D01*
X909571Y325300D01*
X912500Y328229D01*
X914485Y329051D01*
X914552Y329088D01*
X914623Y329117D01*
X914704Y329173D01*
X914790Y329220D01*
X914846Y329272D01*
X914909Y329315D01*
X914975Y329388D01*
X915048Y329455D01*
X915091Y329518D01*
X915142Y329574D01*
X915190Y329660D01*
X915246Y329741D01*
X915274Y329812D01*
X915311Y329879D01*
X915338Y329974D01*
X915374Y330066D01*
X915385Y330141D01*
X915406Y330215D01*
X915418Y330364D01*
X915425Y330410D01*
X915423Y330429D01*
X915425Y330458D01*
X915425Y333742D01*
X915417Y333817D01*
X915418Y333894D01*
X915397Y333990D01*
X915385Y334088D01*
X915360Y334160D01*
X915343Y334234D01*
X915301Y334323D01*
X915268Y334416D01*
X915226Y334480D01*
X915194Y334549D01*
X915132Y334626D01*
X915079Y334709D01*
X915024Y334762D01*
X914976Y334822D01*
X914899Y334882D01*
X914828Y334951D01*
X914763Y334990D01*
X914703Y335037D01*
X914570Y335106D01*
X914529Y335130D01*
X914511Y335136D01*
X914485Y335149D01*
X912500Y335971D01*
X909571Y338900D01*
X907985Y342728D01*
X907985Y346872D01*
X909571Y350700D01*
X912500Y353629D01*
X916328Y355215D01*
X920472Y355215D01*
X923733Y353864D01*
X923878Y353823D01*
X924021Y353777D01*
X924045Y353775D01*
X924068Y353768D01*
X924219Y353761D01*
X924368Y353749D01*
X924392Y353752D01*
X924416Y353751D01*
X924564Y353778D01*
X924713Y353800D01*
X924735Y353809D01*
X924759Y353814D01*
X924897Y353874D01*
X925037Y353929D01*
X925057Y353943D01*
X925079Y353953D01*
X925200Y354042D01*
X925323Y354128D01*
X925339Y354146D01*
X925359Y354160D01*
X925456Y354275D01*
X925556Y354387D01*
X925568Y354408D01*
X925584Y354426D01*
X925652Y354560D01*
X925725Y354692D01*
X925731Y354715D01*
X925742Y354737D01*
X925779Y354882D01*
X925820Y355027D01*
X925822Y355056D01*
X925827Y355075D01*
X925827Y355122D01*
X925839Y355271D01*
X925839Y358676D01*
X925835Y358712D01*
X925838Y358747D01*
X925815Y358884D01*
X925799Y359022D01*
X925787Y359056D01*
X925782Y359091D01*
X925729Y359220D01*
X925682Y359350D01*
X925662Y359380D01*
X925649Y359413D01*
X925568Y359526D01*
X925493Y359643D01*
X925467Y359668D01*
X925446Y359697D01*
X925342Y359789D01*
X925242Y359885D01*
X925211Y359904D01*
X925184Y359927D01*
X925062Y359993D01*
X924943Y360064D01*
X924909Y360075D01*
X924877Y360092D01*
X924743Y360128D01*
X924611Y360170D01*
X924575Y360173D01*
X924541Y360182D01*
X924402Y360187D01*
X924264Y360198D01*
X924228Y360193D01*
X924192Y360194D01*
X924056Y360167D01*
X923919Y360146D01*
X923886Y360133D01*
X923851Y360126D01*
X923624Y360033D01*
X922788Y359607D01*
X921077Y359051D01*
X920939Y359029D01*
X920939Y369184D01*
X920936Y369210D01*
X920938Y369236D01*
X920916Y369383D01*
X920899Y369530D01*
X920891Y369555D01*
X920887Y369581D01*
X920832Y369718D01*
X920782Y369858D01*
X920768Y369880D01*
X920758Y369905D01*
X920673Y370026D01*
X920593Y370151D01*
X920574Y370169D01*
X920559Y370191D01*
X920543Y370205D01*
X920625Y370290D01*
X920639Y370313D01*
X920656Y370332D01*
X920728Y370462D01*
X920804Y370589D01*
X920812Y370614D01*
X920825Y370637D01*
X920865Y370780D01*
X920910Y370921D01*
X920912Y370947D01*
X920920Y370972D01*
X920939Y371216D01*
X920939Y394584D01*
X920936Y394610D01*
X920938Y394636D01*
X920916Y394783D01*
X920899Y394930D01*
X920891Y394955D01*
X920887Y394981D01*
X920832Y395118D01*
X920782Y395258D01*
X920768Y395280D01*
X920758Y395305D01*
X920673Y395426D01*
X920593Y395551D01*
X920574Y395569D01*
X920559Y395591D01*
X920543Y395605D01*
X920625Y395690D01*
X920639Y395713D01*
X920656Y395732D01*
X920728Y395862D01*
X920804Y395989D01*
X920812Y396014D01*
X920825Y396037D01*
X920865Y396180D01*
X920910Y396321D01*
X920912Y396347D01*
X920920Y396372D01*
X920939Y396616D01*
X920939Y419984D01*
X920936Y420010D01*
X920938Y420036D01*
X920916Y420183D01*
X920899Y420330D01*
X920891Y420355D01*
X920887Y420381D01*
X920832Y420518D01*
X920782Y420658D01*
X920768Y420680D01*
X920758Y420705D01*
X920673Y420826D01*
X920593Y420951D01*
X920574Y420969D01*
X920559Y420991D01*
X920449Y421090D01*
X920342Y421193D01*
X920320Y421207D01*
X920300Y421224D01*
X920170Y421296D01*
X920043Y421372D01*
X920018Y421380D01*
X919995Y421393D01*
X919852Y421433D01*
X919711Y421478D01*
X919685Y421480D01*
X919660Y421487D01*
X919416Y421507D01*
X918907Y421507D01*
X918907Y422016D01*
X918904Y422042D01*
X918906Y422068D01*
X918884Y422215D01*
X918867Y422362D01*
X918858Y422387D01*
X918854Y422413D01*
X918800Y422551D01*
X918750Y422690D01*
X918735Y422712D01*
X918726Y422737D01*
X918641Y422858D01*
X918561Y422983D01*
X918542Y423001D01*
X918527Y423023D01*
X918417Y423122D01*
X918310Y423225D01*
X918287Y423239D01*
X918268Y423256D01*
X918138Y423328D01*
X918011Y423404D01*
X917986Y423412D01*
X917963Y423425D01*
X917820Y423465D01*
X917679Y423510D01*
X917653Y423512D01*
X917628Y423520D01*
X917384Y423539D01*
X907229Y423539D01*
X907251Y423677D01*
X907807Y425388D01*
X908624Y426991D01*
X909662Y428421D01*
X909738Y428555D01*
X909818Y428689D01*
X909824Y428707D01*
X909834Y428724D01*
X909877Y428873D01*
X909924Y429021D01*
X909926Y429040D01*
X909931Y429059D01*
X909940Y429214D01*
X909952Y429368D01*
X909949Y429387D01*
X909951Y429407D01*
X909924Y429560D01*
X909901Y429713D01*
X909893Y429731D01*
X909890Y429750D01*
X909829Y429893D01*
X909772Y430037D01*
X909761Y430053D01*
X909753Y430070D01*
X909661Y430196D01*
X909573Y430323D01*
X909559Y430336D01*
X909547Y430351D01*
X909429Y430453D01*
X909314Y430556D01*
X909297Y430566D01*
X909283Y430578D01*
X909145Y430650D01*
X909009Y430725D01*
X908990Y430730D01*
X908973Y430739D01*
X908824Y430777D01*
X908674Y430820D01*
X908650Y430822D01*
X908636Y430825D01*
X908592Y430826D01*
X908430Y430839D01*
X901567Y430839D01*
X901467Y430828D01*
X901367Y430826D01*
X901294Y430808D01*
X901221Y430799D01*
X901126Y430766D01*
X901029Y430741D01*
X900963Y430707D01*
X900893Y430682D01*
X900808Y430627D01*
X900719Y430581D01*
X900662Y430533D01*
X900600Y430493D01*
X900530Y430421D01*
X900453Y430356D01*
X900409Y430296D01*
X900358Y430242D01*
X900306Y430156D01*
X900246Y430075D01*
X900217Y430007D01*
X900179Y429943D01*
X900148Y429847D01*
X900108Y429755D01*
X900095Y429682D01*
X900072Y429611D01*
X900064Y429511D01*
X900047Y429412D01*
X900050Y429338D01*
X900044Y429264D01*
X900059Y429164D01*
X900065Y429064D01*
X900085Y428993D01*
X900096Y428919D01*
X900133Y428826D01*
X900161Y428729D01*
X900197Y428664D01*
X900225Y428595D01*
X900282Y428513D01*
X900331Y428425D01*
X900396Y428349D01*
X900424Y428309D01*
X900450Y428285D01*
X900490Y428239D01*
X901829Y426899D01*
X903415Y423072D01*
X903415Y418928D01*
X901829Y415100D01*
X898900Y412171D01*
X895072Y410585D01*
X890928Y410585D01*
X888253Y411693D01*
X888179Y411714D01*
X888109Y411745D01*
X888013Y411762D01*
X887918Y411789D01*
X887842Y411793D01*
X887766Y411806D01*
X887668Y411801D01*
X887570Y411806D01*
X887495Y411792D01*
X887418Y411788D01*
X887324Y411761D01*
X887227Y411743D01*
X887157Y411713D01*
X887084Y411692D01*
X886998Y411644D01*
X886907Y411605D01*
X886846Y411559D01*
X886779Y411522D01*
X886666Y411425D01*
X886628Y411397D01*
X886615Y411382D01*
X886593Y411363D01*
X849293Y374063D01*
X849214Y373964D01*
X849130Y373870D01*
X849106Y373828D01*
X849076Y373790D01*
X849022Y373676D01*
X848961Y373565D01*
X848948Y373518D01*
X848927Y373475D01*
X848901Y373351D01*
X848866Y373230D01*
X848861Y373169D01*
X848854Y373134D01*
X848855Y373086D01*
X848847Y372986D01*
X848847Y297417D01*
X848855Y297341D01*
X848854Y297264D01*
X848875Y297168D01*
X848887Y297070D01*
X848912Y296999D01*
X848929Y296924D01*
X848971Y296835D01*
X849004Y296742D01*
X849046Y296678D01*
X849078Y296609D01*
X849140Y296532D01*
X849193Y296449D01*
X849248Y296396D01*
X849296Y296337D01*
X849373Y296276D01*
X849444Y296207D01*
X849483Y296184D01*
X851059Y294608D01*
X851867Y292658D01*
X851867Y290546D01*
X851059Y288596D01*
X849566Y287103D01*
X847616Y286295D01*
X845504Y286295D01*
X843554Y287103D01*
X842061Y288596D01*
X841253Y290546D01*
X841253Y292658D01*
X842061Y294608D01*
X843625Y296171D01*
X843638Y296179D01*
X843694Y296230D01*
X843757Y296274D01*
X843823Y296347D01*
X843896Y296413D01*
X843939Y296476D01*
X843990Y296532D01*
X844038Y296618D01*
X844094Y296700D01*
X844122Y296771D01*
X844159Y296837D01*
X844186Y296932D01*
X844222Y297024D01*
X844233Y297099D01*
X844254Y297173D01*
X844266Y297322D01*
X844273Y297369D01*
X844271Y297388D01*
X844273Y297417D01*
X844273Y375511D01*
X883361Y414599D01*
X883408Y414659D01*
X883463Y414712D01*
X883516Y414795D01*
X883577Y414872D01*
X883610Y414941D01*
X883651Y415005D01*
X883684Y415098D01*
X883726Y415187D01*
X883742Y415261D01*
X883768Y415334D01*
X883779Y415432D01*
X883800Y415528D01*
X883798Y415604D01*
X883807Y415680D01*
X883795Y415778D01*
X883794Y415876D01*
X883775Y415950D01*
X883766Y416026D01*
X883720Y416168D01*
X883709Y416214D01*
X883700Y416231D01*
X883691Y416259D01*
X882585Y418928D01*
X882585Y423072D01*
X884171Y426899D01*
X885510Y428239D01*
X885573Y428318D01*
X885642Y428390D01*
X885681Y428454D01*
X885727Y428512D01*
X885770Y428603D01*
X885821Y428689D01*
X885844Y428760D01*
X885876Y428827D01*
X885897Y428925D01*
X885928Y429021D01*
X885934Y429095D01*
X885949Y429168D01*
X885947Y429268D01*
X885956Y429368D01*
X885944Y429442D01*
X885943Y429516D01*
X885919Y429613D01*
X885904Y429713D01*
X885876Y429782D01*
X885858Y429854D01*
X885812Y429943D01*
X885775Y430037D01*
X885733Y430098D01*
X885699Y430164D01*
X885633Y430240D01*
X885576Y430323D01*
X885521Y430373D01*
X885473Y430429D01*
X885392Y430489D01*
X885317Y430556D01*
X885252Y430592D01*
X885192Y430637D01*
X885100Y430676D01*
X885012Y430725D01*
X884941Y430745D01*
X884872Y430775D01*
X884774Y430792D01*
X884677Y430820D01*
X884577Y430828D01*
X884529Y430836D01*
X884494Y430834D01*
X884433Y430839D01*
X647684Y430839D01*
X647658Y430836D01*
X647632Y430838D01*
X647485Y430816D01*
X647338Y430799D01*
X647313Y430791D01*
X647287Y430787D01*
X647149Y430732D01*
X647010Y430682D01*
X646988Y430668D01*
X646963Y430658D01*
X646842Y430573D01*
X646717Y430493D01*
X646699Y430474D01*
X646677Y430459D01*
X646578Y430349D01*
X646475Y430242D01*
X646461Y430220D01*
X646444Y430200D01*
X646372Y430070D01*
X646296Y429943D01*
X646288Y429918D01*
X646275Y429895D01*
X646235Y429752D01*
X646190Y429611D01*
X646188Y429585D01*
X646180Y429560D01*
X646161Y429316D01*
X646161Y118911D01*
X646172Y118811D01*
X646174Y118711D01*
X646192Y118639D01*
X646201Y118565D01*
X646235Y118470D01*
X646259Y118373D01*
X646293Y118307D01*
X646318Y118237D01*
X646373Y118152D01*
X646419Y118063D01*
X646467Y118006D01*
X646507Y117944D01*
X646579Y117874D01*
X646645Y117798D01*
X646704Y117753D01*
X646758Y117702D01*
X646844Y117650D01*
X646925Y117590D01*
X646993Y117561D01*
X647057Y117523D01*
X647153Y117492D01*
X647245Y117452D01*
X647318Y117439D01*
X647389Y117417D01*
X647489Y117409D01*
X647588Y117391D01*
X647662Y117395D01*
X647736Y117389D01*
X647835Y117404D01*
X647936Y117409D01*
X648007Y117429D01*
X648081Y117440D01*
X648174Y117477D01*
X648271Y117505D01*
X648336Y117542D01*
X648405Y117569D01*
X648487Y117626D01*
X648575Y117675D01*
X648651Y117741D01*
X648691Y117768D01*
X648715Y117794D01*
X648761Y117834D01*
X648768Y117841D01*
X650718Y118649D01*
X652929Y118649D01*
X652943Y118645D01*
X653020Y118641D01*
X653095Y118627D01*
X653193Y118632D01*
X653291Y118628D01*
X653367Y118641D01*
X653443Y118645D01*
X653537Y118672D01*
X653634Y118690D01*
X653705Y118721D01*
X653778Y118742D01*
X653864Y118790D01*
X653954Y118829D01*
X654015Y118875D01*
X654082Y118912D01*
X654196Y119008D01*
X654234Y119037D01*
X654246Y119051D01*
X654269Y119070D01*
X794370Y259171D01*
X794386Y259192D01*
X794406Y259209D01*
X794494Y259329D01*
X794586Y259444D01*
X794597Y259468D01*
X794613Y259489D01*
X794672Y259625D01*
X794735Y259760D01*
X794741Y259785D01*
X794751Y259809D01*
X794777Y259956D01*
X794808Y260100D01*
X794808Y260126D01*
X794813Y260152D01*
X794805Y260301D01*
X794802Y260449D01*
X794796Y260474D01*
X794795Y260500D01*
X794754Y260643D01*
X794717Y260787D01*
X794705Y260810D01*
X794698Y260835D01*
X794626Y260965D01*
X794558Y261097D01*
X794541Y261117D01*
X794528Y261139D01*
X794370Y261326D01*
X792817Y262878D01*
X792009Y264828D01*
X792009Y266940D01*
X792817Y268890D01*
X794310Y270383D01*
X796260Y271191D01*
X798372Y271191D01*
X800322Y270383D01*
X801815Y268890D01*
X802623Y266940D01*
X802623Y264828D01*
X801815Y262878D01*
X800252Y261315D01*
X800239Y261308D01*
X800182Y261256D01*
X800119Y261212D01*
X800053Y261140D01*
X799981Y261074D01*
X799937Y261011D01*
X799886Y260954D01*
X799838Y260868D01*
X799782Y260787D01*
X799754Y260716D01*
X799717Y260649D01*
X799690Y260554D01*
X799654Y260463D01*
X799643Y260387D01*
X799622Y260313D01*
X799610Y260165D01*
X799604Y260118D01*
X799605Y260099D01*
X799603Y260069D01*
X799603Y257937D01*
X657502Y115837D01*
X657455Y115777D01*
X657400Y115723D01*
X657347Y115640D01*
X657286Y115564D01*
X657253Y115494D01*
X657212Y115430D01*
X657179Y115337D01*
X657137Y115248D01*
X657121Y115174D01*
X657095Y115101D01*
X657084Y115004D01*
X657064Y114908D01*
X657065Y114831D01*
X657056Y114755D01*
X657068Y114657D01*
X657070Y114559D01*
X657081Y114515D01*
X657081Y113826D01*
X657092Y113726D01*
X657094Y113626D01*
X657112Y113553D01*
X657121Y113480D01*
X657154Y113385D01*
X657179Y113288D01*
X657213Y113221D01*
X657238Y113151D01*
X657293Y113067D01*
X657339Y112978D01*
X657387Y112921D01*
X657427Y112859D01*
X657499Y112789D01*
X657564Y112712D01*
X657624Y112668D01*
X657678Y112616D01*
X657764Y112565D01*
X657845Y112505D01*
X657913Y112476D01*
X657977Y112438D01*
X658073Y112407D01*
X658165Y112367D01*
X658238Y112354D01*
X658309Y112331D01*
X658409Y112323D01*
X658508Y112306D01*
X658582Y112309D01*
X658656Y112303D01*
X658756Y112318D01*
G37*
G36*
X924342Y61164D02*
X924342Y61164D01*
X924368Y61162D01*
X924515Y61184D01*
X924662Y61201D01*
X924687Y61209D01*
X924713Y61213D01*
X924851Y61268D01*
X924990Y61318D01*
X925012Y61332D01*
X925037Y61342D01*
X925158Y61427D01*
X925283Y61507D01*
X925301Y61526D01*
X925323Y61541D01*
X925422Y61651D01*
X925525Y61758D01*
X925539Y61780D01*
X925556Y61800D01*
X925628Y61930D01*
X925704Y62057D01*
X925712Y62082D01*
X925725Y62105D01*
X925765Y62248D01*
X925810Y62389D01*
X925812Y62415D01*
X925820Y62440D01*
X925839Y62684D01*
X925839Y283529D01*
X925822Y283678D01*
X925810Y283828D01*
X925802Y283851D01*
X925799Y283875D01*
X925749Y284016D01*
X925703Y284160D01*
X925690Y284180D01*
X925682Y284203D01*
X925600Y284330D01*
X925523Y284458D01*
X925506Y284476D01*
X925493Y284496D01*
X925384Y284601D01*
X925280Y284708D01*
X925260Y284721D01*
X925242Y284738D01*
X925113Y284815D01*
X924987Y284897D01*
X924964Y284905D01*
X924943Y284917D01*
X924800Y284963D01*
X924658Y285013D01*
X924634Y285016D01*
X924611Y285023D01*
X924462Y285035D01*
X924312Y285052D01*
X924288Y285049D01*
X924264Y285051D01*
X924115Y285029D01*
X923966Y285011D01*
X923938Y285002D01*
X923919Y285000D01*
X923875Y284982D01*
X923733Y284936D01*
X920472Y283585D01*
X916328Y283585D01*
X912500Y285171D01*
X909571Y288100D01*
X907985Y291928D01*
X907985Y296072D01*
X909571Y299900D01*
X912500Y302829D01*
X916328Y304415D01*
X920472Y304415D01*
X923733Y303064D01*
X923878Y303023D01*
X924021Y302977D01*
X924045Y302975D01*
X924068Y302968D01*
X924219Y302961D01*
X924368Y302949D01*
X924392Y302952D01*
X924416Y302951D01*
X924564Y302978D01*
X924713Y303000D01*
X924735Y303009D01*
X924759Y303014D01*
X924897Y303074D01*
X925037Y303129D01*
X925057Y303143D01*
X925079Y303153D01*
X925200Y303242D01*
X925323Y303328D01*
X925339Y303346D01*
X925359Y303360D01*
X925456Y303475D01*
X925556Y303587D01*
X925568Y303608D01*
X925584Y303626D01*
X925652Y303760D01*
X925725Y303892D01*
X925731Y303915D01*
X925742Y303937D01*
X925779Y304082D01*
X925820Y304227D01*
X925822Y304256D01*
X925827Y304275D01*
X925827Y304322D01*
X925839Y304471D01*
X925839Y308929D01*
X925822Y309078D01*
X925810Y309228D01*
X925802Y309251D01*
X925799Y309275D01*
X925749Y309416D01*
X925703Y309560D01*
X925690Y309580D01*
X925682Y309603D01*
X925600Y309730D01*
X925523Y309858D01*
X925506Y309876D01*
X925493Y309896D01*
X925384Y310001D01*
X925280Y310108D01*
X925260Y310121D01*
X925242Y310138D01*
X925113Y310215D01*
X924987Y310297D01*
X924964Y310305D01*
X924943Y310317D01*
X924800Y310363D01*
X924658Y310413D01*
X924634Y310416D01*
X924611Y310423D01*
X924462Y310435D01*
X924312Y310452D01*
X924288Y310449D01*
X924264Y310451D01*
X924115Y310429D01*
X923966Y310411D01*
X923938Y310402D01*
X923919Y310400D01*
X923875Y310382D01*
X923733Y310336D01*
X920472Y308985D01*
X916328Y308985D01*
X914056Y309927D01*
X913982Y309948D01*
X913912Y309978D01*
X913816Y309995D01*
X913721Y310022D01*
X913644Y310026D01*
X913569Y310039D01*
X913471Y310034D01*
X913373Y310039D01*
X913298Y310025D01*
X913221Y310022D01*
X913127Y309994D01*
X913030Y309977D01*
X912960Y309946D01*
X912886Y309925D01*
X912800Y309877D01*
X912710Y309838D01*
X912649Y309792D01*
X912582Y309755D01*
X912468Y309658D01*
X912431Y309630D01*
X912418Y309615D01*
X912396Y309596D01*
X906783Y303983D01*
X901423Y303983D01*
X901323Y303972D01*
X901223Y303970D01*
X901150Y303952D01*
X901077Y303943D01*
X900982Y303910D01*
X900885Y303885D01*
X900819Y303851D01*
X900749Y303826D01*
X900664Y303771D01*
X900575Y303725D01*
X900518Y303677D01*
X900456Y303637D01*
X900386Y303565D01*
X900309Y303500D01*
X900265Y303440D01*
X900214Y303386D01*
X900162Y303300D01*
X900102Y303219D01*
X900073Y303151D01*
X900035Y303087D01*
X900004Y302991D01*
X899964Y302899D01*
X899951Y302826D01*
X899928Y302755D01*
X899920Y302655D01*
X899903Y302556D01*
X899906Y302482D01*
X899900Y302408D01*
X899915Y302308D01*
X899921Y302208D01*
X899941Y302137D01*
X899952Y302063D01*
X899989Y301970D01*
X900017Y301873D01*
X900053Y301808D01*
X900081Y301739D01*
X900138Y301657D01*
X900187Y301569D01*
X900252Y301493D01*
X900280Y301453D01*
X900306Y301429D01*
X900346Y301383D01*
X901829Y299899D01*
X903415Y296072D01*
X903415Y291928D01*
X901829Y288100D01*
X898900Y285171D01*
X895072Y283585D01*
X890928Y283585D01*
X887100Y285171D01*
X884171Y288100D01*
X882585Y291928D01*
X882585Y296072D01*
X882687Y296317D01*
X882701Y296365D01*
X882722Y296411D01*
X882748Y296532D01*
X882783Y296652D01*
X882785Y296702D01*
X882796Y296751D01*
X882793Y296876D01*
X882800Y297000D01*
X882790Y297050D01*
X882790Y297100D01*
X882759Y297221D01*
X882737Y297343D01*
X882717Y297389D01*
X882705Y297438D01*
X882648Y297549D01*
X882598Y297663D01*
X882568Y297703D01*
X882545Y297748D01*
X882464Y297843D01*
X882390Y297942D01*
X882352Y297975D01*
X882319Y298013D01*
X882219Y298087D01*
X882124Y298167D01*
X882079Y298190D01*
X882039Y298220D01*
X881925Y298270D01*
X881814Y298326D01*
X881765Y298338D01*
X881719Y298358D01*
X881596Y298380D01*
X881476Y298410D01*
X881425Y298411D01*
X881376Y298420D01*
X881252Y298414D01*
X881127Y298415D01*
X881078Y298405D01*
X881028Y298402D01*
X880908Y298368D01*
X880787Y298341D01*
X880741Y298320D01*
X880693Y298306D01*
X880584Y298245D01*
X880472Y298191D01*
X880433Y298160D01*
X880389Y298135D01*
X880202Y297977D01*
X872186Y289960D01*
X872092Y289843D01*
X871995Y289728D01*
X871984Y289706D01*
X871969Y289687D01*
X871905Y289551D01*
X871836Y289417D01*
X871830Y289394D01*
X871820Y289372D01*
X871789Y289225D01*
X871752Y289079D01*
X871752Y289055D01*
X871747Y289031D01*
X871749Y288882D01*
X871747Y288731D01*
X871752Y288707D01*
X871753Y288683D01*
X871789Y288537D01*
X871821Y288390D01*
X871832Y288368D01*
X871838Y288345D01*
X871907Y288211D01*
X871971Y288075D01*
X871986Y288057D01*
X871997Y288035D01*
X872095Y287920D01*
X872189Y287803D01*
X872208Y287788D01*
X872223Y287770D01*
X872344Y287680D01*
X872462Y287587D01*
X872488Y287574D01*
X872504Y287563D01*
X872547Y287544D01*
X872680Y287476D01*
X873474Y287147D01*
X874967Y285654D01*
X875775Y283704D01*
X875775Y281592D01*
X874967Y279642D01*
X873474Y278149D01*
X871524Y277341D01*
X869412Y277341D01*
X869397Y277348D01*
X868017Y277919D01*
X867944Y277940D01*
X867873Y277971D01*
X867777Y277988D01*
X867682Y278015D01*
X867606Y278019D01*
X867530Y278032D01*
X867432Y278027D01*
X867334Y278032D01*
X867259Y278018D01*
X867182Y278014D01*
X867088Y277987D01*
X866991Y277969D01*
X866921Y277939D01*
X866847Y277918D01*
X866762Y277870D01*
X866671Y277830D01*
X866610Y277785D01*
X866543Y277748D01*
X866430Y277651D01*
X866392Y277623D01*
X866379Y277608D01*
X866357Y277589D01*
X852783Y264015D01*
X852721Y263937D01*
X852651Y263864D01*
X852613Y263800D01*
X852566Y263742D01*
X852523Y263651D01*
X852472Y263565D01*
X852449Y263494D01*
X852417Y263427D01*
X852396Y263329D01*
X852366Y263233D01*
X852360Y263159D01*
X852344Y263086D01*
X852346Y262986D01*
X852338Y262886D01*
X852349Y262812D01*
X852350Y262738D01*
X852375Y262641D01*
X852389Y262541D01*
X852417Y262472D01*
X852435Y262400D01*
X852481Y262310D01*
X852518Y262217D01*
X852561Y262156D01*
X852595Y262090D01*
X852660Y262013D01*
X852717Y261931D01*
X852772Y261881D01*
X852821Y261825D01*
X852901Y261765D01*
X852976Y261698D01*
X853041Y261662D01*
X853101Y261617D01*
X853193Y261578D01*
X853281Y261529D01*
X853353Y261509D01*
X853421Y261479D01*
X853520Y261462D01*
X853616Y261434D01*
X853716Y261426D01*
X853764Y261418D01*
X853800Y261420D01*
X853860Y261415D01*
X855072Y261415D01*
X858900Y259829D01*
X861829Y256900D01*
X863415Y253072D01*
X863415Y248928D01*
X861829Y245100D01*
X858900Y242171D01*
X855072Y240585D01*
X850928Y240585D01*
X847100Y242171D01*
X844171Y245100D01*
X842585Y248928D01*
X842585Y250140D01*
X842574Y250240D01*
X842572Y250340D01*
X842554Y250412D01*
X842545Y250486D01*
X842512Y250581D01*
X842487Y250678D01*
X842453Y250744D01*
X842428Y250814D01*
X842373Y250899D01*
X842327Y250988D01*
X842279Y251045D01*
X842239Y251107D01*
X842167Y251177D01*
X842102Y251253D01*
X842042Y251297D01*
X841988Y251349D01*
X841902Y251401D01*
X841821Y251460D01*
X841753Y251490D01*
X841689Y251528D01*
X841593Y251559D01*
X841501Y251598D01*
X841428Y251612D01*
X841357Y251634D01*
X841257Y251642D01*
X841158Y251660D01*
X841084Y251656D01*
X841010Y251662D01*
X840910Y251647D01*
X840810Y251642D01*
X840739Y251622D01*
X840665Y251611D01*
X840572Y251573D01*
X840475Y251546D01*
X840410Y251509D01*
X840341Y251482D01*
X840259Y251425D01*
X840171Y251375D01*
X840095Y251310D01*
X840055Y251283D01*
X840031Y251256D01*
X839985Y251217D01*
X678848Y90080D01*
X678800Y90020D01*
X678745Y89967D01*
X678692Y89884D01*
X678631Y89807D01*
X678599Y89738D01*
X678557Y89673D01*
X678524Y89581D01*
X678482Y89492D01*
X678466Y89417D01*
X678441Y89345D01*
X678430Y89247D01*
X678409Y89151D01*
X678410Y89075D01*
X678402Y88999D01*
X678413Y88901D01*
X678415Y88803D01*
X678433Y88729D01*
X678442Y88653D01*
X678488Y88510D01*
X678500Y88465D01*
X678509Y88448D01*
X678518Y88420D01*
X679593Y85824D01*
X679641Y85737D01*
X679682Y85644D01*
X679726Y85585D01*
X679762Y85520D01*
X679829Y85445D01*
X679889Y85365D01*
X679946Y85317D01*
X679996Y85261D01*
X680079Y85204D01*
X680155Y85140D01*
X680222Y85106D01*
X680283Y85063D01*
X680376Y85026D01*
X680466Y84981D01*
X680538Y84963D01*
X680607Y84935D01*
X680706Y84921D01*
X680804Y84897D01*
X680878Y84896D01*
X680952Y84885D01*
X681052Y84893D01*
X681152Y84892D01*
X681225Y84907D01*
X681299Y84914D01*
X681395Y84944D01*
X681493Y84966D01*
X681560Y84998D01*
X681631Y85021D01*
X681717Y85072D01*
X681808Y85116D01*
X681866Y85162D01*
X681929Y85200D01*
X682002Y85270D01*
X682080Y85333D01*
X682126Y85391D01*
X682179Y85443D01*
X682234Y85528D01*
X682296Y85607D01*
X682342Y85696D01*
X682368Y85736D01*
X682380Y85770D01*
X682407Y85824D01*
X683678Y88892D01*
X686108Y91322D01*
X689282Y92637D01*
X692718Y92637D01*
X695892Y91322D01*
X698322Y88892D01*
X698696Y87989D01*
X698733Y87923D01*
X698758Y87858D01*
X698759Y87858D01*
X698761Y87851D01*
X698818Y87771D01*
X698865Y87684D01*
X698917Y87628D01*
X698960Y87565D01*
X699033Y87499D01*
X699099Y87426D01*
X699162Y87383D01*
X699219Y87332D01*
X699305Y87284D01*
X699386Y87228D01*
X699457Y87200D01*
X699524Y87163D01*
X699619Y87136D01*
X699710Y87100D01*
X699786Y87089D01*
X699860Y87068D01*
X700008Y87056D01*
X700055Y87049D01*
X700074Y87051D01*
X700103Y87049D01*
X701897Y87049D01*
X701973Y87057D01*
X702049Y87056D01*
X702145Y87077D01*
X702243Y87089D01*
X702315Y87114D01*
X702390Y87131D01*
X702478Y87173D01*
X702571Y87206D01*
X702635Y87248D01*
X702704Y87280D01*
X702781Y87342D01*
X702864Y87395D01*
X702917Y87450D01*
X702977Y87498D01*
X703038Y87575D01*
X703106Y87646D01*
X703145Y87711D01*
X703193Y87771D01*
X703261Y87905D01*
X703285Y87945D01*
X703286Y87950D01*
X703288Y87952D01*
X703292Y87967D01*
X703304Y87989D01*
X703678Y88892D01*
X706108Y91322D01*
X709282Y92637D01*
X712718Y92637D01*
X713621Y92263D01*
X713695Y92242D01*
X713765Y92211D01*
X713862Y92194D01*
X713956Y92167D01*
X714033Y92163D01*
X714108Y92150D01*
X714206Y92155D01*
X714304Y92150D01*
X714380Y92164D01*
X714456Y92168D01*
X714550Y92195D01*
X714647Y92213D01*
X714717Y92243D01*
X714791Y92264D01*
X714877Y92312D01*
X714967Y92351D01*
X715028Y92397D01*
X715095Y92434D01*
X715209Y92531D01*
X715247Y92559D01*
X715259Y92574D01*
X715281Y92593D01*
X772803Y150115D01*
X775035Y152347D01*
X841930Y152347D01*
X842006Y152355D01*
X842082Y152354D01*
X842179Y152375D01*
X842276Y152387D01*
X842348Y152412D01*
X842423Y152429D01*
X842512Y152471D01*
X842604Y152504D01*
X842669Y152546D01*
X842737Y152578D01*
X842814Y152640D01*
X842897Y152693D01*
X842950Y152748D01*
X843010Y152796D01*
X843071Y152873D01*
X843139Y152944D01*
X843179Y153009D01*
X843226Y153069D01*
X843294Y153202D01*
X843318Y153243D01*
X843324Y153261D01*
X843337Y153287D01*
X844171Y155300D01*
X847100Y158229D01*
X850928Y159815D01*
X855072Y159815D01*
X858900Y158229D01*
X861829Y155300D01*
X863415Y151472D01*
X863415Y147328D01*
X861829Y143500D01*
X858900Y140571D01*
X855072Y138985D01*
X850928Y138985D01*
X847100Y140571D01*
X844171Y143500D01*
X843422Y145309D01*
X843385Y145376D01*
X843356Y145447D01*
X843300Y145528D01*
X843252Y145614D01*
X843201Y145670D01*
X843157Y145733D01*
X843084Y145799D01*
X843018Y145872D01*
X842955Y145915D01*
X842899Y145966D01*
X842812Y146014D01*
X842732Y146070D01*
X842661Y146098D01*
X842594Y146135D01*
X842499Y146162D01*
X842407Y146198D01*
X842332Y146209D01*
X842258Y146230D01*
X842109Y146242D01*
X842063Y146249D01*
X842044Y146247D01*
X842014Y146249D01*
X778192Y146249D01*
X778066Y146235D01*
X777940Y146228D01*
X777894Y146215D01*
X777846Y146209D01*
X777727Y146167D01*
X777605Y146132D01*
X777563Y146108D01*
X777517Y146092D01*
X777411Y146023D01*
X777301Y145962D01*
X777255Y145922D01*
X777225Y145903D01*
X777191Y145868D01*
X777115Y145803D01*
X727282Y95970D01*
X727179Y95841D01*
X727075Y95713D01*
X727071Y95704D01*
X727065Y95697D01*
X726995Y95549D01*
X726922Y95400D01*
X726920Y95390D01*
X726916Y95382D01*
X726882Y95222D01*
X726845Y95060D01*
X726845Y95050D01*
X726843Y95041D01*
X726845Y94877D01*
X726846Y94711D01*
X726848Y94702D01*
X726849Y94693D01*
X726889Y94533D01*
X726927Y94372D01*
X726931Y94364D01*
X726934Y94355D01*
X727009Y94208D01*
X727083Y94061D01*
X727089Y94053D01*
X727093Y94045D01*
X727200Y93919D01*
X727305Y93792D01*
X727313Y93787D01*
X727319Y93780D01*
X727452Y93681D01*
X727583Y93582D01*
X727592Y93578D01*
X727599Y93572D01*
X727751Y93507D01*
X727901Y93440D01*
X727911Y93438D01*
X727919Y93434D01*
X728082Y93405D01*
X728244Y93374D01*
X728253Y93374D01*
X728262Y93373D01*
X728371Y93378D01*
X728377Y93378D01*
X728419Y93381D01*
X728426Y93381D01*
X728592Y93388D01*
X728603Y93390D01*
X728610Y93391D01*
X728639Y93399D01*
X728642Y93400D01*
X729001Y93456D01*
X729001Y84476D01*
X729004Y84450D01*
X729002Y84424D01*
X729024Y84277D01*
X729041Y84130D01*
X729049Y84105D01*
X729053Y84079D01*
X729108Y83942D01*
X729158Y83802D01*
X729172Y83780D01*
X729182Y83755D01*
X729267Y83634D01*
X729347Y83509D01*
X729366Y83491D01*
X729381Y83469D01*
X729491Y83370D01*
X729598Y83267D01*
X729620Y83253D01*
X729640Y83236D01*
X729770Y83164D01*
X729897Y83088D01*
X729922Y83080D01*
X729945Y83067D01*
X730040Y83040D01*
X730060Y82989D01*
X730110Y82850D01*
X730125Y82828D01*
X730134Y82803D01*
X730219Y82682D01*
X730299Y82557D01*
X730318Y82539D01*
X730333Y82517D01*
X730443Y82418D01*
X730550Y82315D01*
X730573Y82301D01*
X730592Y82284D01*
X730722Y82212D01*
X730849Y82136D01*
X730874Y82128D01*
X730897Y82115D01*
X731040Y82075D01*
X731181Y82030D01*
X731207Y82027D01*
X731232Y82020D01*
X731476Y82001D01*
X740456Y82001D01*
X740415Y81740D01*
X739946Y80295D01*
X739256Y78941D01*
X738363Y77712D01*
X737288Y76637D01*
X736059Y75744D01*
X734705Y75054D01*
X734248Y74906D01*
X734103Y74839D01*
X733955Y74775D01*
X733944Y74767D01*
X733931Y74761D01*
X733804Y74663D01*
X733676Y74568D01*
X733666Y74557D01*
X733655Y74548D01*
X733554Y74423D01*
X733450Y74302D01*
X733444Y74289D01*
X733435Y74277D01*
X733365Y74134D01*
X733292Y73991D01*
X733288Y73977D01*
X733282Y73964D01*
X733246Y73808D01*
X733208Y73653D01*
X733207Y73639D01*
X733204Y73625D01*
X733205Y73465D01*
X733203Y73305D01*
X733206Y73290D01*
X733206Y73276D01*
X733243Y73120D01*
X733277Y72964D01*
X733283Y72951D01*
X733286Y72937D01*
X733358Y72794D01*
X733427Y72649D01*
X733436Y72638D01*
X733442Y72625D01*
X733544Y72502D01*
X733644Y72377D01*
X733655Y72368D01*
X733665Y72357D01*
X733792Y72260D01*
X733918Y72161D01*
X733933Y72153D01*
X733942Y72146D01*
X733977Y72131D01*
X734135Y72050D01*
X735892Y71322D01*
X738322Y68892D01*
X739637Y65718D01*
X739637Y62684D01*
X739640Y62658D01*
X739638Y62632D01*
X739660Y62485D01*
X739677Y62338D01*
X739685Y62313D01*
X739689Y62287D01*
X739744Y62149D01*
X739794Y62010D01*
X739808Y61988D01*
X739818Y61963D01*
X739903Y61842D01*
X739983Y61717D01*
X740002Y61699D01*
X740017Y61677D01*
X740127Y61578D01*
X740234Y61475D01*
X740256Y61461D01*
X740276Y61444D01*
X740406Y61372D01*
X740533Y61296D01*
X740558Y61288D01*
X740581Y61275D01*
X740724Y61235D01*
X740865Y61190D01*
X740891Y61188D01*
X740916Y61180D01*
X741160Y61161D01*
X924316Y61161D01*
X924342Y61164D01*
G37*
G36*
X337380Y190559D02*
X337380Y190559D01*
X337549Y190573D01*
X337567Y190579D01*
X337586Y190581D01*
X337747Y190634D01*
X337909Y190683D01*
X337925Y190693D01*
X337943Y190698D01*
X338090Y190785D01*
X338238Y190867D01*
X338254Y190881D01*
X338268Y190889D01*
X338317Y190934D01*
X338468Y191061D01*
X369212Y221805D01*
X369248Y221850D01*
X369290Y221888D01*
X369366Y221995D01*
X369449Y222098D01*
X369474Y222149D01*
X369507Y222195D01*
X369559Y222317D01*
X369618Y222434D01*
X369633Y222489D01*
X369655Y222542D01*
X369680Y222671D01*
X369713Y222799D01*
X369716Y222855D01*
X369726Y222911D01*
X369724Y223043D01*
X369729Y223175D01*
X369720Y223231D01*
X369718Y223288D01*
X369688Y223416D01*
X369666Y223546D01*
X369644Y223599D01*
X369631Y223654D01*
X369574Y223773D01*
X369525Y223896D01*
X369493Y223943D01*
X369469Y223994D01*
X369388Y224098D01*
X369314Y224208D01*
X369273Y224247D01*
X369239Y224292D01*
X369138Y224377D01*
X369042Y224468D01*
X368994Y224498D01*
X368951Y224534D01*
X368834Y224596D01*
X368722Y224666D01*
X368668Y224684D01*
X368618Y224711D01*
X368491Y224747D01*
X368367Y224791D01*
X368311Y224798D01*
X368256Y224814D01*
X368059Y224830D01*
X367993Y224839D01*
X367977Y224837D01*
X367955Y224839D01*
X361791Y224839D01*
X257999Y328631D01*
X257999Y357264D01*
X257981Y357432D01*
X257967Y357601D01*
X257961Y357619D01*
X257959Y357638D01*
X257906Y357799D01*
X257857Y357961D01*
X257847Y357978D01*
X257842Y357996D01*
X257756Y358142D01*
X257673Y358290D01*
X257659Y358306D01*
X257651Y358320D01*
X257606Y358369D01*
X257479Y358520D01*
X253440Y362559D01*
X253308Y362665D01*
X253179Y362774D01*
X253162Y362783D01*
X253147Y362795D01*
X252996Y362872D01*
X252846Y362951D01*
X252828Y362956D01*
X252811Y362965D01*
X252647Y363008D01*
X252484Y363054D01*
X252463Y363055D01*
X252447Y363060D01*
X252381Y363062D01*
X252184Y363079D01*
X154155Y363079D01*
X154071Y363070D01*
X153986Y363071D01*
X153884Y363050D01*
X153781Y363039D01*
X153700Y363013D01*
X153617Y362996D01*
X153522Y362954D01*
X153423Y362922D01*
X153350Y362878D01*
X153272Y362844D01*
X153188Y362784D01*
X153098Y362731D01*
X153036Y362673D01*
X152967Y362624D01*
X152897Y362546D01*
X152821Y362476D01*
X152772Y362407D01*
X152715Y362344D01*
X152663Y362254D01*
X152603Y362169D01*
X152570Y362091D01*
X152528Y362017D01*
X152496Y361918D01*
X152456Y361823D01*
X152440Y361739D01*
X152414Y361658D01*
X152404Y361555D01*
X152384Y361453D01*
X152386Y361368D01*
X152378Y361283D01*
X152390Y361180D01*
X152392Y361076D01*
X152412Y360994D01*
X152422Y360909D01*
X152462Y360782D01*
X152479Y360710D01*
X152496Y360674D01*
X152513Y360622D01*
X153097Y359213D01*
X153097Y356787D01*
X152169Y354547D01*
X150453Y352831D01*
X148213Y351903D01*
X145787Y351903D01*
X143547Y352831D01*
X141793Y354585D01*
X141779Y354614D01*
X141750Y354651D01*
X141728Y354693D01*
X141635Y354800D01*
X141549Y354912D01*
X141513Y354942D01*
X141482Y354978D01*
X141369Y355063D01*
X141261Y355154D01*
X141219Y355177D01*
X141182Y355205D01*
X141053Y355265D01*
X140929Y355331D01*
X140883Y355344D01*
X140840Y355364D01*
X140702Y355395D01*
X140566Y355434D01*
X140512Y355438D01*
X140473Y355447D01*
X140399Y355448D01*
X140266Y355459D01*
X133789Y355459D01*
X133620Y355441D01*
X133451Y355427D01*
X133433Y355421D01*
X133414Y355419D01*
X133253Y355366D01*
X133091Y355317D01*
X133075Y355307D01*
X133057Y355302D01*
X132910Y355216D01*
X132762Y355133D01*
X132746Y355119D01*
X132732Y355111D01*
X132683Y355066D01*
X132532Y354939D01*
X125061Y347468D01*
X124955Y347336D01*
X124846Y347207D01*
X124837Y347190D01*
X124825Y347175D01*
X124748Y347024D01*
X124669Y346874D01*
X124664Y346856D01*
X124655Y346839D01*
X124612Y346675D01*
X124566Y346512D01*
X124565Y346491D01*
X124560Y346475D01*
X124558Y346409D01*
X124541Y346211D01*
X124541Y268948D01*
X115061Y259468D01*
X114955Y259336D01*
X114846Y259207D01*
X114837Y259190D01*
X114825Y259175D01*
X114748Y259024D01*
X114669Y258874D01*
X114664Y258856D01*
X114655Y258839D01*
X114612Y258675D01*
X114566Y258512D01*
X114565Y258491D01*
X114560Y258475D01*
X114558Y258409D01*
X114541Y258211D01*
X114541Y211789D01*
X114553Y211674D01*
X114555Y211572D01*
X114567Y211521D01*
X114573Y211451D01*
X114579Y211433D01*
X114581Y211414D01*
X114624Y211284D01*
X114642Y211205D01*
X114659Y211170D01*
X114683Y211091D01*
X114693Y211075D01*
X114698Y211057D01*
X114779Y210920D01*
X114805Y210866D01*
X114821Y210844D01*
X114867Y210762D01*
X114881Y210746D01*
X114889Y210732D01*
X114934Y210683D01*
X115061Y210532D01*
X116035Y209558D01*
X116145Y209470D01*
X116250Y209375D01*
X116291Y209352D01*
X116328Y209322D01*
X116454Y209258D01*
X116577Y209188D01*
X116622Y209174D01*
X116664Y209152D01*
X116801Y209117D01*
X116935Y209074D01*
X116983Y209069D01*
X117028Y209057D01*
X117169Y209051D01*
X117310Y209038D01*
X117357Y209043D01*
X117405Y209041D01*
X117544Y209065D01*
X117684Y209082D01*
X117731Y209097D01*
X120213Y209097D01*
X122453Y208169D01*
X124169Y206453D01*
X125097Y204213D01*
X125097Y201787D01*
X124356Y199998D01*
X124333Y199920D01*
X124314Y199877D01*
X124314Y199875D01*
X124298Y199838D01*
X124279Y199737D01*
X124249Y199637D01*
X124243Y199552D01*
X124227Y199469D01*
X124229Y199365D01*
X124221Y199261D01*
X124233Y199177D01*
X124235Y199092D01*
X124259Y198991D01*
X124273Y198888D01*
X124302Y198809D01*
X124322Y198726D01*
X124367Y198632D01*
X124402Y198535D01*
X124448Y198463D01*
X124484Y198386D01*
X124548Y198304D01*
X124603Y198216D01*
X124663Y198155D01*
X124714Y198088D01*
X124794Y198021D01*
X124866Y197947D01*
X124937Y197900D01*
X125002Y197846D01*
X125094Y197797D01*
X125181Y197740D01*
X125260Y197709D01*
X125335Y197669D01*
X125435Y197641D01*
X125531Y197603D01*
X125615Y197589D01*
X125697Y197566D01*
X125830Y197555D01*
X125903Y197543D01*
X125943Y197545D01*
X125998Y197541D01*
X267547Y197541D01*
X267603Y197547D01*
X267660Y197544D01*
X267790Y197567D01*
X267921Y197581D01*
X267975Y197598D01*
X268031Y197608D01*
X268153Y197657D01*
X268279Y197698D01*
X268328Y197727D01*
X268380Y197748D01*
X268489Y197822D01*
X268603Y197889D01*
X268645Y197928D01*
X268692Y197959D01*
X268783Y198054D01*
X268881Y198144D01*
X268913Y198190D01*
X268953Y198231D01*
X269022Y198343D01*
X269098Y198451D01*
X269120Y198503D01*
X269150Y198552D01*
X269194Y198676D01*
X269246Y198797D01*
X269257Y198853D01*
X269276Y198907D01*
X269292Y199038D01*
X269317Y199167D01*
X269316Y199224D01*
X269323Y199280D01*
X269312Y199412D01*
X269309Y199544D01*
X269296Y199599D01*
X269291Y199655D01*
X269253Y199782D01*
X269222Y199910D01*
X269198Y199961D01*
X269181Y200015D01*
X269117Y200131D01*
X269060Y200250D01*
X269025Y200295D01*
X268998Y200344D01*
X268870Y200495D01*
X268832Y200544D01*
X267903Y202787D01*
X267903Y205213D01*
X268831Y207453D01*
X270177Y208799D01*
X270203Y208832D01*
X270219Y208846D01*
X270247Y208886D01*
X270283Y208931D01*
X270392Y209060D01*
X270401Y209077D01*
X270413Y209092D01*
X270490Y209243D01*
X270569Y209393D01*
X270574Y209411D01*
X270583Y209428D01*
X270626Y209592D01*
X270672Y209755D01*
X270673Y209776D01*
X270678Y209792D01*
X270680Y209858D01*
X270697Y210056D01*
X270697Y221896D01*
X270679Y222065D01*
X270665Y222233D01*
X270659Y222251D01*
X270657Y222270D01*
X270604Y222431D01*
X270555Y222593D01*
X270545Y222610D01*
X270540Y222628D01*
X270454Y222774D01*
X270371Y222922D01*
X270357Y222938D01*
X270349Y222953D01*
X270304Y223001D01*
X270177Y223153D01*
X268153Y225177D01*
X268020Y225283D01*
X267891Y225392D01*
X267874Y225401D01*
X267860Y225413D01*
X267708Y225490D01*
X267559Y225569D01*
X267540Y225574D01*
X267523Y225583D01*
X267359Y225626D01*
X267196Y225672D01*
X267175Y225673D01*
X267159Y225678D01*
X267093Y225680D01*
X266896Y225697D01*
X179484Y225697D01*
X179315Y225679D01*
X179147Y225665D01*
X179129Y225659D01*
X179110Y225657D01*
X178949Y225604D01*
X178787Y225555D01*
X178770Y225545D01*
X178752Y225540D01*
X178606Y225454D01*
X178458Y225371D01*
X178442Y225357D01*
X178427Y225349D01*
X178379Y225304D01*
X178227Y225177D01*
X168997Y215947D01*
X168891Y215814D01*
X168782Y215685D01*
X168773Y215668D01*
X168761Y215654D01*
X168684Y215502D01*
X168605Y215353D01*
X168600Y215334D01*
X168591Y215317D01*
X168548Y215153D01*
X168502Y214990D01*
X168501Y214969D01*
X168496Y214953D01*
X168494Y214887D01*
X168477Y214690D01*
X168477Y212787D01*
X167549Y210547D01*
X165833Y208831D01*
X163593Y207903D01*
X161167Y207903D01*
X158927Y208831D01*
X157211Y210547D01*
X156283Y212787D01*
X156283Y215213D01*
X157211Y217453D01*
X158927Y219169D01*
X161167Y220097D01*
X163070Y220097D01*
X163239Y220115D01*
X163407Y220129D01*
X163425Y220135D01*
X163444Y220137D01*
X163606Y220190D01*
X163767Y220239D01*
X163784Y220249D01*
X163802Y220254D01*
X163948Y220340D01*
X164096Y220423D01*
X164112Y220437D01*
X164127Y220445D01*
X164175Y220490D01*
X164326Y220617D01*
X166373Y222663D01*
X166408Y222707D01*
X166450Y222746D01*
X166526Y222854D01*
X166609Y222956D01*
X166635Y223007D01*
X166667Y223053D01*
X166719Y223175D01*
X166779Y223292D01*
X166793Y223347D01*
X166815Y223400D01*
X166840Y223529D01*
X166874Y223657D01*
X166876Y223713D01*
X166887Y223769D01*
X166884Y223901D01*
X166890Y224033D01*
X166880Y224089D01*
X166879Y224146D01*
X166848Y224274D01*
X166826Y224404D01*
X166805Y224457D01*
X166792Y224512D01*
X166735Y224631D01*
X166686Y224754D01*
X166654Y224801D01*
X166629Y224852D01*
X166549Y224956D01*
X166475Y225066D01*
X166434Y225105D01*
X166399Y225150D01*
X166298Y225235D01*
X166203Y225326D01*
X166154Y225356D01*
X166111Y225392D01*
X165995Y225454D01*
X165882Y225524D01*
X165829Y225542D01*
X165779Y225569D01*
X165652Y225605D01*
X165527Y225649D01*
X165471Y225656D01*
X165416Y225672D01*
X165219Y225688D01*
X165154Y225697D01*
X165137Y225695D01*
X165116Y225697D01*
X152632Y225697D01*
X128947Y249383D01*
X128814Y249489D01*
X128685Y249598D01*
X128668Y249607D01*
X128654Y249619D01*
X128502Y249696D01*
X128353Y249775D01*
X128334Y249780D01*
X128317Y249789D01*
X128153Y249832D01*
X127990Y249878D01*
X127969Y249879D01*
X127953Y249884D01*
X127887Y249886D01*
X127690Y249903D01*
X125787Y249903D01*
X123547Y250831D01*
X121831Y252547D01*
X120903Y254787D01*
X120903Y257213D01*
X121831Y259453D01*
X123547Y261169D01*
X125787Y262097D01*
X128213Y262097D01*
X130453Y261169D01*
X132169Y259453D01*
X133097Y257213D01*
X133097Y255310D01*
X133115Y255141D01*
X133129Y254973D01*
X133135Y254955D01*
X133137Y254936D01*
X133190Y254775D01*
X133239Y254613D01*
X133249Y254596D01*
X133254Y254578D01*
X133340Y254432D01*
X133423Y254284D01*
X133437Y254268D01*
X133445Y254253D01*
X133490Y254205D01*
X133617Y254053D01*
X154847Y232823D01*
X154980Y232717D01*
X155109Y232608D01*
X155126Y232599D01*
X155140Y232587D01*
X155292Y232510D01*
X155441Y232431D01*
X155460Y232426D01*
X155477Y232417D01*
X155641Y232374D01*
X155804Y232328D01*
X155825Y232327D01*
X155841Y232322D01*
X155907Y232320D01*
X156104Y232303D01*
X176736Y232303D01*
X176792Y232309D01*
X176849Y232306D01*
X176979Y232329D01*
X177110Y232343D01*
X177164Y232360D01*
X177220Y232370D01*
X177343Y232419D01*
X177468Y232460D01*
X177517Y232489D01*
X177569Y232510D01*
X177679Y232584D01*
X177793Y232651D01*
X177834Y232689D01*
X177881Y232721D01*
X177973Y232816D01*
X178070Y232906D01*
X178103Y232952D01*
X178142Y232993D01*
X178211Y233105D01*
X178287Y233213D01*
X178310Y233265D01*
X178339Y233314D01*
X178383Y233438D01*
X178435Y233559D01*
X178446Y233615D01*
X178465Y233669D01*
X178482Y233800D01*
X178507Y233929D01*
X178506Y233986D01*
X178513Y234042D01*
X178502Y234174D01*
X178499Y234306D01*
X178486Y234361D01*
X178481Y234417D01*
X178442Y234544D01*
X178412Y234672D01*
X178387Y234723D01*
X178371Y234777D01*
X178306Y234893D01*
X178249Y235012D01*
X178215Y235057D01*
X178187Y235106D01*
X178060Y235257D01*
X178019Y235310D01*
X178006Y235320D01*
X177993Y235337D01*
X177177Y236152D01*
X177177Y236153D01*
X154947Y258383D01*
X154814Y258489D01*
X154685Y258598D01*
X154668Y258607D01*
X154654Y258619D01*
X154502Y258696D01*
X154353Y258775D01*
X154334Y258780D01*
X154317Y258789D01*
X154153Y258832D01*
X153990Y258878D01*
X153969Y258879D01*
X153953Y258884D01*
X153887Y258886D01*
X153690Y258903D01*
X151787Y258903D01*
X149547Y259831D01*
X147831Y261547D01*
X146903Y263787D01*
X146903Y266213D01*
X147831Y268453D01*
X149547Y270169D01*
X151787Y271097D01*
X154213Y271097D01*
X156453Y270169D01*
X158169Y268453D01*
X159097Y266213D01*
X159097Y264310D01*
X159115Y264141D01*
X159129Y263973D01*
X159135Y263955D01*
X159137Y263936D01*
X159190Y263775D01*
X159239Y263613D01*
X159249Y263596D01*
X159254Y263578D01*
X159340Y263432D01*
X159423Y263284D01*
X159437Y263268D01*
X159445Y263253D01*
X159490Y263205D01*
X159617Y263053D01*
X181847Y240823D01*
X181980Y240717D01*
X182109Y240608D01*
X182126Y240599D01*
X182140Y240587D01*
X182292Y240510D01*
X182441Y240431D01*
X182460Y240426D01*
X182477Y240417D01*
X182641Y240374D01*
X182804Y240328D01*
X182825Y240327D01*
X182841Y240322D01*
X182907Y240320D01*
X183104Y240303D01*
X203896Y240303D01*
X204065Y240321D01*
X204233Y240335D01*
X204251Y240341D01*
X204270Y240343D01*
X204431Y240396D01*
X204593Y240445D01*
X204610Y240455D01*
X204628Y240460D01*
X204774Y240546D01*
X204922Y240629D01*
X204938Y240643D01*
X204953Y240651D01*
X205001Y240696D01*
X205153Y240823D01*
X218383Y254053D01*
X218489Y254186D01*
X218598Y254315D01*
X218607Y254332D01*
X218619Y254346D01*
X218696Y254498D01*
X218775Y254647D01*
X218780Y254666D01*
X218789Y254683D01*
X218832Y254847D01*
X218878Y255010D01*
X218879Y255031D01*
X218884Y255047D01*
X218886Y255113D01*
X218903Y255310D01*
X218903Y257213D01*
X219831Y259453D01*
X221547Y261169D01*
X223787Y262097D01*
X226213Y262097D01*
X228453Y261169D01*
X230169Y259453D01*
X231097Y257213D01*
X231097Y254787D01*
X230169Y252547D01*
X228453Y250831D01*
X226213Y249903D01*
X224310Y249903D01*
X224141Y249885D01*
X223973Y249871D01*
X223955Y249865D01*
X223936Y249863D01*
X223775Y249810D01*
X223613Y249761D01*
X223596Y249751D01*
X223578Y249746D01*
X223432Y249660D01*
X223284Y249577D01*
X223268Y249563D01*
X223253Y249555D01*
X223205Y249510D01*
X223053Y249383D01*
X209823Y236153D01*
X209823Y236152D01*
X209007Y235337D01*
X208972Y235293D01*
X208930Y235254D01*
X208854Y235147D01*
X208771Y235044D01*
X208745Y234993D01*
X208713Y234947D01*
X208661Y234825D01*
X208601Y234708D01*
X208587Y234653D01*
X208565Y234600D01*
X208540Y234471D01*
X208506Y234343D01*
X208504Y234286D01*
X208493Y234231D01*
X208496Y234099D01*
X208490Y233967D01*
X208500Y233911D01*
X208501Y233854D01*
X208532Y233726D01*
X208554Y233596D01*
X208575Y233543D01*
X208588Y233488D01*
X208645Y233369D01*
X208694Y233246D01*
X208726Y233199D01*
X208751Y233148D01*
X208831Y233044D01*
X208905Y232934D01*
X208946Y232895D01*
X208981Y232850D01*
X209082Y232765D01*
X209177Y232674D01*
X209225Y232644D01*
X209269Y232608D01*
X209385Y232546D01*
X209498Y232476D01*
X209551Y232458D01*
X209601Y232431D01*
X209728Y232395D01*
X209853Y232351D01*
X209909Y232344D01*
X209964Y232328D01*
X210161Y232312D01*
X210226Y232303D01*
X210243Y232305D01*
X210264Y232303D01*
X270368Y232303D01*
X277303Y225368D01*
X277303Y210080D01*
X277315Y209968D01*
X277317Y209854D01*
X277335Y209781D01*
X277343Y209706D01*
X277378Y209598D01*
X277404Y209488D01*
X277437Y209420D01*
X277460Y209348D01*
X277518Y209250D01*
X277567Y209148D01*
X277613Y209088D01*
X277651Y209023D01*
X277728Y208940D01*
X277797Y208850D01*
X277855Y208802D01*
X277906Y208746D01*
X277998Y208681D01*
X278085Y208608D01*
X278151Y208572D01*
X278213Y208528D01*
X278317Y208484D01*
X278417Y208431D01*
X278490Y208410D01*
X278559Y208381D01*
X278671Y208359D01*
X278779Y208328D01*
X278870Y208321D01*
X278929Y208309D01*
X278990Y208310D01*
X279080Y208303D01*
X291944Y208303D01*
X292113Y208321D01*
X292282Y208335D01*
X292300Y208341D01*
X292319Y208343D01*
X292480Y208396D01*
X292642Y208445D01*
X292658Y208455D01*
X292677Y208460D01*
X292823Y208546D01*
X292971Y208629D01*
X292987Y208643D01*
X293001Y208651D01*
X293050Y208696D01*
X293201Y208823D01*
X294547Y210169D01*
X296787Y211097D01*
X299213Y211097D01*
X301453Y210169D01*
X303169Y208453D01*
X304097Y206213D01*
X304097Y203787D01*
X303169Y201546D01*
X302197Y200575D01*
X302171Y200543D01*
X302158Y200531D01*
X302152Y200522D01*
X302119Y200492D01*
X302043Y200385D01*
X301960Y200282D01*
X301935Y200231D01*
X301902Y200185D01*
X301850Y200064D01*
X301791Y199946D01*
X301776Y199891D01*
X301754Y199838D01*
X301729Y199709D01*
X301696Y199581D01*
X301693Y199525D01*
X301683Y199469D01*
X301685Y199337D01*
X301680Y199205D01*
X301689Y199149D01*
X301691Y199092D01*
X301721Y198964D01*
X301743Y198834D01*
X301765Y198781D01*
X301778Y198726D01*
X301835Y198607D01*
X301884Y198484D01*
X301916Y198437D01*
X301940Y198386D01*
X302021Y198282D01*
X302095Y198172D01*
X302136Y198133D01*
X302170Y198088D01*
X302271Y198003D01*
X302366Y197912D01*
X302415Y197882D01*
X302458Y197846D01*
X302575Y197784D01*
X302687Y197714D01*
X302741Y197696D01*
X302791Y197669D01*
X302918Y197633D01*
X303042Y197589D01*
X303098Y197582D01*
X303153Y197566D01*
X303350Y197550D01*
X303416Y197541D01*
X303432Y197543D01*
X303453Y197541D01*
X304211Y197541D01*
X304380Y197559D01*
X304549Y197573D01*
X304567Y197579D01*
X304586Y197581D01*
X304747Y197634D01*
X304909Y197683D01*
X304925Y197693D01*
X304943Y197698D01*
X305090Y197784D01*
X305238Y197867D01*
X305254Y197881D01*
X305268Y197889D01*
X305317Y197934D01*
X305468Y198061D01*
X323327Y215920D01*
X323350Y215949D01*
X323357Y215955D01*
X323368Y215971D01*
X323434Y216052D01*
X323543Y216181D01*
X323551Y216198D01*
X323563Y216213D01*
X323640Y216364D01*
X323719Y216514D01*
X323724Y216532D01*
X323733Y216549D01*
X323776Y216713D01*
X323822Y216876D01*
X323824Y216898D01*
X323828Y216914D01*
X323831Y216980D01*
X323847Y217177D01*
X323847Y232878D01*
X323832Y233018D01*
X323825Y233159D01*
X323813Y233205D01*
X323808Y233252D01*
X323763Y233386D01*
X323726Y233523D01*
X323705Y233565D01*
X323690Y233610D01*
X323618Y233732D01*
X323553Y233857D01*
X323523Y233893D01*
X323499Y233934D01*
X323403Y234039D01*
X323314Y234148D01*
X323276Y234177D01*
X323244Y234212D01*
X323129Y234293D01*
X323018Y234381D01*
X322974Y234404D01*
X321220Y236158D01*
X320291Y238399D01*
X320291Y240825D01*
X321220Y243065D01*
X322935Y244780D01*
X325175Y245709D01*
X327601Y245709D01*
X329842Y244780D01*
X331557Y243065D01*
X332485Y240825D01*
X332485Y238399D01*
X331557Y236158D01*
X329803Y234405D01*
X329774Y234391D01*
X329737Y234362D01*
X329695Y234339D01*
X329588Y234247D01*
X329476Y234161D01*
X329446Y234125D01*
X329410Y234094D01*
X329325Y233981D01*
X329234Y233873D01*
X329212Y233831D01*
X329183Y233793D01*
X329123Y233665D01*
X329057Y233540D01*
X329044Y233495D01*
X329024Y233452D01*
X328993Y233314D01*
X328954Y233178D01*
X328950Y233124D01*
X328941Y233085D01*
X328940Y233010D01*
X328929Y232878D01*
X328929Y214336D01*
X308168Y193575D01*
X308132Y193530D01*
X308090Y193492D01*
X308014Y193385D01*
X307931Y193282D01*
X307906Y193231D01*
X307873Y193185D01*
X307821Y193063D01*
X307762Y192946D01*
X307747Y192891D01*
X307725Y192838D01*
X307700Y192709D01*
X307667Y192581D01*
X307664Y192525D01*
X307654Y192469D01*
X307656Y192337D01*
X307651Y192205D01*
X307660Y192149D01*
X307662Y192092D01*
X307692Y191964D01*
X307714Y191834D01*
X307736Y191781D01*
X307749Y191726D01*
X307806Y191607D01*
X307855Y191484D01*
X307887Y191437D01*
X307911Y191386D01*
X307992Y191282D01*
X308066Y191172D01*
X308107Y191133D01*
X308141Y191088D01*
X308242Y191003D01*
X308338Y190912D01*
X308386Y190882D01*
X308429Y190846D01*
X308546Y190784D01*
X308658Y190714D01*
X308712Y190696D01*
X308762Y190669D01*
X308889Y190633D01*
X309013Y190589D01*
X309069Y190582D01*
X309124Y190566D01*
X309321Y190550D01*
X309387Y190541D01*
X309403Y190543D01*
X309425Y190541D01*
X337211Y190541D01*
X337380Y190559D01*
G37*
G36*
X502763Y89110D02*
X502763Y89110D01*
X502923Y89119D01*
X502951Y89126D01*
X502979Y89128D01*
X503132Y89175D01*
X503287Y89217D01*
X503312Y89230D01*
X503339Y89239D01*
X503479Y89317D01*
X503621Y89390D01*
X503643Y89408D01*
X503668Y89422D01*
X503899Y89617D01*
X507024Y92742D01*
X513106Y96253D01*
X519889Y98071D01*
X526911Y98071D01*
X533694Y96253D01*
X534157Y95986D01*
X534169Y95981D01*
X534179Y95974D01*
X534341Y95904D01*
X534502Y95833D01*
X534514Y95831D01*
X534526Y95826D01*
X534698Y95792D01*
X534870Y95757D01*
X534883Y95757D01*
X534895Y95754D01*
X535072Y95758D01*
X535247Y95759D01*
X535259Y95762D01*
X535272Y95762D01*
X535443Y95803D01*
X535614Y95841D01*
X535626Y95846D01*
X535638Y95849D01*
X535796Y95925D01*
X535956Y95999D01*
X535966Y96006D01*
X535978Y96012D01*
X536117Y96119D01*
X536257Y96225D01*
X536266Y96234D01*
X536276Y96242D01*
X536389Y96376D01*
X536504Y96509D01*
X536510Y96520D01*
X536518Y96530D01*
X536601Y96685D01*
X536686Y96839D01*
X536689Y96851D01*
X536695Y96862D01*
X536743Y97032D01*
X536793Y97200D01*
X536794Y97212D01*
X536798Y97225D01*
X536823Y97525D01*
X536823Y396275D01*
X536822Y396288D01*
X536823Y396300D01*
X536802Y396474D01*
X536783Y396649D01*
X536779Y396661D01*
X536778Y396674D01*
X536721Y396840D01*
X536666Y397007D01*
X536659Y397018D01*
X536655Y397030D01*
X536565Y397179D01*
X536475Y397332D01*
X536466Y397341D01*
X536460Y397352D01*
X536340Y397479D01*
X536220Y397609D01*
X536210Y397616D01*
X536201Y397626D01*
X536057Y397725D01*
X535913Y397826D01*
X535901Y397831D01*
X535891Y397839D01*
X535728Y397905D01*
X535567Y397974D01*
X535554Y397977D01*
X535542Y397981D01*
X535369Y398012D01*
X535197Y398046D01*
X535184Y398046D01*
X535172Y398048D01*
X534997Y398042D01*
X534820Y398038D01*
X534808Y398035D01*
X534795Y398034D01*
X534625Y397991D01*
X534454Y397951D01*
X534443Y397945D01*
X534430Y397942D01*
X534157Y397814D01*
X533694Y397547D01*
X526911Y395729D01*
X519889Y395729D01*
X513106Y397547D01*
X507024Y401058D01*
X502058Y406024D01*
X498547Y412106D01*
X496729Y418889D01*
X496729Y425911D01*
X498518Y432586D01*
X498542Y432741D01*
X498572Y432895D01*
X498571Y432927D01*
X498576Y432958D01*
X498567Y433115D01*
X498564Y433272D01*
X498557Y433302D01*
X498555Y433334D01*
X498513Y433486D01*
X498477Y433638D01*
X498463Y433666D01*
X498455Y433697D01*
X498382Y433836D01*
X498315Y433978D01*
X498295Y434003D01*
X498281Y434031D01*
X498180Y434151D01*
X498084Y434276D01*
X498060Y434296D01*
X498040Y434320D01*
X497916Y434417D01*
X497796Y434518D01*
X497769Y434533D01*
X497744Y434553D01*
X497602Y434621D01*
X497464Y434695D01*
X497433Y434704D01*
X497405Y434717D01*
X497253Y434755D01*
X497102Y434798D01*
X497066Y434801D01*
X497039Y434807D01*
X496965Y434809D01*
X496801Y434823D01*
X448802Y434823D01*
X448690Y434811D01*
X448576Y434809D01*
X448503Y434791D01*
X448428Y434783D01*
X448320Y434748D01*
X448210Y434722D01*
X448142Y434689D01*
X448070Y434666D01*
X447972Y434608D01*
X447870Y434559D01*
X447811Y434513D01*
X447745Y434475D01*
X447662Y434398D01*
X447572Y434329D01*
X447524Y434271D01*
X447468Y434220D01*
X447403Y434128D01*
X447330Y434041D01*
X447294Y433975D01*
X447250Y433913D01*
X447206Y433809D01*
X447153Y433709D01*
X447132Y433636D01*
X447103Y433567D01*
X447081Y433455D01*
X447050Y433347D01*
X447043Y433256D01*
X447031Y433197D01*
X447032Y433136D01*
X447025Y433046D01*
X447025Y413168D01*
X446132Y412275D01*
X440015Y412275D01*
X439987Y412272D01*
X439959Y412274D01*
X439801Y412252D01*
X439641Y412235D01*
X439614Y412226D01*
X439586Y412223D01*
X439436Y412168D01*
X439283Y412118D01*
X439259Y412103D01*
X439232Y412093D01*
X439097Y412008D01*
X438959Y411927D01*
X438938Y411908D01*
X438914Y411893D01*
X438799Y411781D01*
X438681Y411672D01*
X438665Y411649D01*
X438645Y411629D01*
X438556Y411495D01*
X438464Y411365D01*
X438453Y411339D01*
X438437Y411315D01*
X438379Y411166D01*
X438316Y411019D01*
X438311Y410991D01*
X438300Y410964D01*
X438275Y410806D01*
X438245Y410649D01*
X438245Y410620D01*
X438241Y410592D01*
X438249Y410433D01*
X438253Y410272D01*
X438259Y410245D01*
X438261Y410216D01*
X438303Y410062D01*
X438340Y409906D01*
X438352Y409880D01*
X438359Y409853D01*
X438433Y409711D01*
X438502Y409566D01*
X438519Y409544D01*
X438532Y409519D01*
X438634Y409395D01*
X438732Y409268D01*
X438754Y409250D01*
X438772Y409228D01*
X438898Y409129D01*
X439020Y409026D01*
X439045Y409012D01*
X439068Y408995D01*
X439335Y408856D01*
X440944Y408190D01*
X444890Y404244D01*
X447025Y399090D01*
X447025Y393510D01*
X444890Y388356D01*
X443369Y386835D01*
X443333Y386791D01*
X443291Y386752D01*
X443215Y386644D01*
X443132Y386542D01*
X443107Y386491D01*
X443074Y386445D01*
X443022Y386323D01*
X442963Y386206D01*
X442948Y386151D01*
X442926Y386098D01*
X442901Y385969D01*
X442868Y385841D01*
X442865Y385785D01*
X442854Y385729D01*
X442857Y385597D01*
X442852Y385465D01*
X442861Y385409D01*
X442862Y385352D01*
X442893Y385224D01*
X442915Y385094D01*
X442936Y385041D01*
X442950Y384986D01*
X443006Y384867D01*
X443056Y384744D01*
X443087Y384697D01*
X443112Y384646D01*
X443193Y384542D01*
X443267Y384432D01*
X443307Y384393D01*
X443342Y384348D01*
X443443Y384263D01*
X443538Y384172D01*
X443587Y384142D01*
X443630Y384106D01*
X443746Y384044D01*
X443859Y383974D01*
X443912Y383956D01*
X443963Y383929D01*
X444089Y383893D01*
X444214Y383849D01*
X444270Y383842D01*
X444325Y383826D01*
X444522Y383810D01*
X444587Y383801D01*
X444604Y383803D01*
X444625Y383801D01*
X445695Y383801D01*
X445864Y383819D01*
X446032Y383833D01*
X446051Y383839D01*
X446070Y383841D01*
X446231Y383894D01*
X446392Y383943D01*
X446409Y383953D01*
X446427Y383958D01*
X446573Y384044D01*
X446721Y384127D01*
X446738Y384141D01*
X446752Y384149D01*
X446801Y384194D01*
X446952Y384321D01*
X451782Y389152D01*
X453791Y391161D01*
X462209Y391161D01*
X468161Y385209D01*
X468161Y361169D01*
X468179Y361000D01*
X468193Y360831D01*
X468199Y360813D01*
X468201Y360794D01*
X468254Y360633D01*
X468303Y360471D01*
X468313Y360455D01*
X468318Y360437D01*
X468405Y360290D01*
X468487Y360142D01*
X468501Y360126D01*
X468509Y360112D01*
X468541Y360077D01*
X468541Y357916D01*
X468466Y357827D01*
X468457Y357810D01*
X468445Y357795D01*
X468368Y357644D01*
X468289Y357494D01*
X468284Y357476D01*
X468275Y357459D01*
X468233Y357295D01*
X468186Y357132D01*
X468185Y357111D01*
X468180Y357095D01*
X468178Y357028D01*
X468161Y356831D01*
X468161Y293945D01*
X468179Y293776D01*
X468193Y293608D01*
X468199Y293589D01*
X468201Y293570D01*
X468254Y293408D01*
X468303Y293248D01*
X468313Y293231D01*
X468318Y293213D01*
X468404Y293066D01*
X468487Y292919D01*
X468501Y292902D01*
X468509Y292888D01*
X468554Y292839D01*
X468681Y292688D01*
X497161Y264209D01*
X497161Y99892D01*
X497176Y99751D01*
X497183Y99610D01*
X497196Y99564D01*
X497201Y99517D01*
X497245Y99383D01*
X497282Y99246D01*
X497304Y99204D01*
X497318Y99160D01*
X497390Y99038D01*
X497455Y98912D01*
X497485Y98876D01*
X497509Y98835D01*
X497605Y98731D01*
X497695Y98622D01*
X497732Y98592D01*
X497764Y98557D01*
X497879Y98476D01*
X497990Y98388D01*
X498038Y98363D01*
X498071Y98340D01*
X498139Y98311D01*
X498258Y98250D01*
X498454Y98169D01*
X500169Y96453D01*
X501097Y94213D01*
X501097Y91787D01*
X501000Y91553D01*
X500992Y91526D01*
X500979Y91501D01*
X500939Y91345D01*
X500893Y91192D01*
X500891Y91164D01*
X500884Y91136D01*
X500877Y90976D01*
X500865Y90817D01*
X500869Y90789D01*
X500868Y90760D01*
X500895Y90602D01*
X500917Y90444D01*
X500927Y90417D01*
X500932Y90389D01*
X500992Y90240D01*
X501046Y90090D01*
X501062Y90066D01*
X501072Y90040D01*
X501162Y89907D01*
X501247Y89772D01*
X501267Y89751D01*
X501283Y89728D01*
X501399Y89617D01*
X501511Y89503D01*
X501534Y89487D01*
X501555Y89467D01*
X501691Y89383D01*
X501825Y89295D01*
X501851Y89285D01*
X501875Y89270D01*
X502026Y89217D01*
X502176Y89158D01*
X502204Y89154D01*
X502231Y89144D01*
X502389Y89124D01*
X502547Y89099D01*
X502576Y89100D01*
X502604Y89096D01*
X502763Y89110D01*
G37*
G36*
X376460Y235956D02*
X376460Y235956D01*
X376564Y235955D01*
X376647Y235972D01*
X376732Y235980D01*
X376831Y236010D01*
X376933Y236031D01*
X377010Y236065D01*
X377092Y236090D01*
X377182Y236140D01*
X377277Y236182D01*
X377346Y236232D01*
X377420Y236273D01*
X377523Y236359D01*
X377582Y236403D01*
X377609Y236432D01*
X377651Y236468D01*
X395319Y254136D01*
X395425Y254268D01*
X395534Y254397D01*
X395543Y254414D01*
X395555Y254429D01*
X395631Y254580D01*
X395711Y254729D01*
X395716Y254748D01*
X395725Y254765D01*
X395768Y254929D01*
X395814Y255092D01*
X395815Y255113D01*
X395820Y255129D01*
X395822Y255195D01*
X395839Y255392D01*
X395839Y256920D01*
X395827Y257032D01*
X395825Y257146D01*
X395807Y257219D01*
X395799Y257294D01*
X395764Y257402D01*
X395738Y257512D01*
X395705Y257580D01*
X395682Y257652D01*
X395624Y257750D01*
X395575Y257852D01*
X395529Y257911D01*
X395491Y257977D01*
X395414Y258060D01*
X395345Y258150D01*
X395287Y258198D01*
X395236Y258254D01*
X395144Y258319D01*
X395057Y258392D01*
X394991Y258428D01*
X394929Y258472D01*
X394825Y258516D01*
X394725Y258569D01*
X394652Y258590D01*
X394583Y258619D01*
X394471Y258641D01*
X394363Y258672D01*
X394272Y258679D01*
X394213Y258691D01*
X394152Y258690D01*
X394062Y258697D01*
X363632Y258697D01*
X309910Y312419D01*
X309800Y312508D01*
X309695Y312602D01*
X309654Y312626D01*
X309617Y312655D01*
X309491Y312719D01*
X309368Y312790D01*
X309323Y312804D01*
X309281Y312825D01*
X309144Y312861D01*
X309009Y312904D01*
X308962Y312908D01*
X308917Y312920D01*
X308776Y312926D01*
X308634Y312939D01*
X308588Y312934D01*
X308541Y312936D01*
X308401Y312912D01*
X308327Y312903D01*
X305787Y312903D01*
X303547Y313831D01*
X301831Y315547D01*
X300903Y317787D01*
X300903Y320213D01*
X301831Y322453D01*
X303547Y324169D01*
X305787Y325097D01*
X308213Y325097D01*
X310453Y324169D01*
X312169Y322453D01*
X313097Y320213D01*
X313097Y319310D01*
X313115Y319141D01*
X313129Y318973D01*
X313135Y318955D01*
X313137Y318936D01*
X313190Y318775D01*
X313239Y318613D01*
X313249Y318596D01*
X313254Y318578D01*
X313340Y318432D01*
X313423Y318284D01*
X313437Y318268D01*
X313445Y318253D01*
X313490Y318205D01*
X313617Y318053D01*
X365847Y265823D01*
X365980Y265717D01*
X366109Y265608D01*
X366126Y265599D01*
X366140Y265587D01*
X366292Y265510D01*
X366441Y265431D01*
X366460Y265426D01*
X366477Y265417D01*
X366641Y265374D01*
X366804Y265328D01*
X366825Y265327D01*
X366841Y265322D01*
X366907Y265320D01*
X367104Y265303D01*
X389896Y265303D01*
X390065Y265321D01*
X390233Y265335D01*
X390251Y265341D01*
X390270Y265343D01*
X390431Y265396D01*
X390593Y265445D01*
X390610Y265455D01*
X390628Y265460D01*
X390774Y265546D01*
X390922Y265629D01*
X390938Y265643D01*
X390953Y265651D01*
X391001Y265696D01*
X391153Y265823D01*
X401632Y276303D01*
X437785Y276303D01*
X437841Y276309D01*
X437898Y276306D01*
X438028Y276329D01*
X438159Y276343D01*
X438213Y276360D01*
X438269Y276370D01*
X438391Y276419D01*
X438517Y276460D01*
X438566Y276489D01*
X438618Y276510D01*
X438728Y276584D01*
X438841Y276651D01*
X438883Y276689D01*
X438930Y276721D01*
X439022Y276817D01*
X439119Y276906D01*
X439151Y276952D01*
X439191Y276993D01*
X439260Y277106D01*
X439336Y277213D01*
X439358Y277265D01*
X439388Y277314D01*
X439432Y277438D01*
X439484Y277559D01*
X439495Y277615D01*
X439514Y277669D01*
X439530Y277800D01*
X439555Y277929D01*
X439554Y277986D01*
X439561Y278042D01*
X439550Y278174D01*
X439547Y278306D01*
X439534Y278361D01*
X439529Y278417D01*
X439491Y278544D01*
X439460Y278672D01*
X439436Y278723D01*
X439419Y278777D01*
X439355Y278893D01*
X439298Y279012D01*
X439263Y279057D01*
X439236Y279106D01*
X439108Y279257D01*
X439068Y279310D01*
X439055Y279320D01*
X439041Y279337D01*
X438831Y279546D01*
X437903Y281787D01*
X437903Y284213D01*
X438831Y286453D01*
X440547Y288169D01*
X442787Y289097D01*
X445267Y289097D01*
X445297Y289086D01*
X445344Y289080D01*
X445390Y289067D01*
X445531Y289056D01*
X445671Y289038D01*
X445718Y289042D01*
X445765Y289039D01*
X445905Y289058D01*
X446046Y289070D01*
X446091Y289084D01*
X446138Y289090D01*
X446271Y289139D01*
X446406Y289180D01*
X446447Y289203D01*
X446492Y289220D01*
X446611Y289295D01*
X446735Y289364D01*
X446776Y289399D01*
X446810Y289420D01*
X446863Y289472D01*
X446965Y289558D01*
X452939Y295532D01*
X453045Y295664D01*
X453154Y295793D01*
X453163Y295810D01*
X453175Y295825D01*
X453252Y295976D01*
X453331Y296126D01*
X453336Y296144D01*
X453345Y296161D01*
X453387Y296325D01*
X453434Y296488D01*
X453435Y296509D01*
X453440Y296525D01*
X453442Y296591D01*
X453459Y296789D01*
X453459Y353556D01*
X453456Y353586D01*
X453458Y353615D01*
X453436Y353773D01*
X453419Y353931D01*
X453410Y353959D01*
X453406Y353988D01*
X453351Y354137D01*
X453302Y354288D01*
X453286Y354314D01*
X453276Y354342D01*
X453192Y354475D01*
X453111Y354613D01*
X453091Y354635D01*
X453075Y354660D01*
X452964Y354773D01*
X452856Y354890D01*
X452832Y354907D01*
X452811Y354929D01*
X452678Y355016D01*
X452549Y355108D01*
X452522Y355119D01*
X452497Y355136D01*
X452348Y355193D01*
X452203Y355255D01*
X452173Y355261D01*
X452146Y355272D01*
X451989Y355297D01*
X451833Y355327D01*
X451803Y355326D01*
X451774Y355331D01*
X451615Y355322D01*
X451456Y355319D01*
X451428Y355312D01*
X451398Y355311D01*
X451244Y355269D01*
X451090Y355232D01*
X451063Y355219D01*
X451035Y355211D01*
X450894Y355138D01*
X450750Y355070D01*
X450727Y355051D01*
X450700Y355038D01*
X450578Y354937D01*
X450452Y354839D01*
X450433Y354817D01*
X450410Y354798D01*
X450375Y354753D01*
X448453Y352831D01*
X446213Y351903D01*
X443787Y351903D01*
X441547Y352831D01*
X439831Y354547D01*
X438903Y356787D01*
X438903Y359213D01*
X439120Y359735D01*
X439160Y359871D01*
X439207Y360004D01*
X439213Y360051D01*
X439226Y360097D01*
X439237Y360237D01*
X439255Y360378D01*
X439251Y360425D01*
X439254Y360472D01*
X439235Y360612D01*
X439223Y360753D01*
X439209Y360798D01*
X439202Y360845D01*
X439154Y360978D01*
X439113Y361113D01*
X439090Y361154D01*
X439073Y361199D01*
X438998Y361318D01*
X438929Y361442D01*
X438894Y361483D01*
X438872Y361517D01*
X438821Y361570D01*
X438735Y361672D01*
X435468Y364939D01*
X435336Y365045D01*
X435207Y365154D01*
X435190Y365163D01*
X435175Y365175D01*
X435024Y365252D01*
X434874Y365331D01*
X434856Y365336D01*
X434839Y365345D01*
X434675Y365387D01*
X434512Y365434D01*
X434491Y365435D01*
X434475Y365440D01*
X434409Y365442D01*
X434211Y365459D01*
X262017Y365459D01*
X261960Y365453D01*
X261904Y365456D01*
X261773Y365433D01*
X261642Y365419D01*
X261588Y365402D01*
X261532Y365392D01*
X261410Y365343D01*
X261285Y365302D01*
X261236Y365273D01*
X261183Y365252D01*
X261074Y365178D01*
X260960Y365111D01*
X260918Y365073D01*
X260871Y365041D01*
X260780Y364946D01*
X260683Y364856D01*
X260650Y364810D01*
X260611Y364769D01*
X260541Y364657D01*
X260465Y364549D01*
X260443Y364497D01*
X260413Y364448D01*
X260369Y364324D01*
X260317Y364203D01*
X260307Y364147D01*
X260288Y364093D01*
X260271Y363962D01*
X260246Y363833D01*
X260247Y363776D01*
X260240Y363720D01*
X260251Y363588D01*
X260254Y363456D01*
X260267Y363401D01*
X260272Y363345D01*
X260310Y363218D01*
X260341Y363090D01*
X260365Y363039D01*
X260382Y362985D01*
X260446Y362869D01*
X260503Y362750D01*
X260538Y362705D01*
X260566Y362656D01*
X260693Y362505D01*
X260733Y362452D01*
X260746Y362442D01*
X260760Y362425D01*
X263081Y360105D01*
X263081Y331472D01*
X263099Y331303D01*
X263113Y331135D01*
X263119Y331117D01*
X263121Y331098D01*
X263174Y330937D01*
X263223Y330775D01*
X263233Y330758D01*
X263238Y330740D01*
X263324Y330594D01*
X263407Y330446D01*
X263421Y330430D01*
X263429Y330415D01*
X263474Y330367D01*
X263601Y330216D01*
X316349Y277468D01*
X316415Y277414D01*
X316475Y277354D01*
X316561Y277296D01*
X316642Y277231D01*
X316718Y277193D01*
X316789Y277146D01*
X316886Y277108D01*
X316978Y277062D01*
X317060Y277040D01*
X317140Y277009D01*
X317242Y276993D01*
X317343Y276967D01*
X317427Y276963D01*
X317511Y276950D01*
X317615Y276955D01*
X317719Y276951D01*
X317803Y276965D01*
X317887Y276970D01*
X317987Y276997D01*
X318090Y277014D01*
X318169Y277046D01*
X318251Y277068D01*
X318343Y277116D01*
X318439Y277155D01*
X318510Y277202D01*
X318585Y277241D01*
X318665Y277307D01*
X318751Y277366D01*
X318810Y277427D01*
X318876Y277481D01*
X318940Y277563D01*
X319012Y277637D01*
X319056Y277710D01*
X319109Y277776D01*
X319170Y277895D01*
X319209Y277958D01*
X319223Y277996D01*
X319248Y278044D01*
X319831Y279453D01*
X321547Y281169D01*
X323787Y282097D01*
X326213Y282097D01*
X328453Y281169D01*
X330169Y279453D01*
X330706Y278156D01*
X330710Y278148D01*
X330713Y278139D01*
X330801Y277982D01*
X330886Y277825D01*
X330892Y277818D01*
X330897Y277810D01*
X331091Y277580D01*
X367053Y241617D01*
X367186Y241511D01*
X367315Y241402D01*
X367332Y241393D01*
X367346Y241381D01*
X367498Y241304D01*
X367647Y241225D01*
X367666Y241220D01*
X367683Y241211D01*
X367847Y241168D01*
X368010Y241122D01*
X368031Y241121D01*
X368047Y241116D01*
X368113Y241114D01*
X368310Y241097D01*
X370213Y241097D01*
X372453Y240169D01*
X374169Y238453D01*
X374752Y237044D01*
X374793Y236970D01*
X374825Y236891D01*
X374883Y236805D01*
X374932Y236714D01*
X374988Y236649D01*
X375035Y236579D01*
X375110Y236507D01*
X375178Y236428D01*
X375246Y236377D01*
X375307Y236318D01*
X375396Y236264D01*
X375478Y236201D01*
X375556Y236165D01*
X375628Y236121D01*
X375726Y236086D01*
X375820Y236043D01*
X375903Y236024D01*
X375983Y235995D01*
X376086Y235982D01*
X376187Y235959D01*
X376272Y235958D01*
X376356Y235948D01*
X376460Y235956D01*
G37*
G36*
X111032Y57189D02*
X111032Y57189D01*
X111146Y57191D01*
X111219Y57209D01*
X111294Y57217D01*
X111402Y57252D01*
X111512Y57278D01*
X111580Y57311D01*
X111652Y57334D01*
X111750Y57392D01*
X111852Y57441D01*
X111911Y57487D01*
X111977Y57525D01*
X112060Y57602D01*
X112150Y57671D01*
X112198Y57729D01*
X112254Y57780D01*
X112319Y57872D01*
X112392Y57959D01*
X112428Y58025D01*
X112472Y58087D01*
X112516Y58191D01*
X112569Y58291D01*
X112590Y58364D01*
X112619Y58433D01*
X112641Y58545D01*
X112672Y58653D01*
X112679Y58744D01*
X112691Y58803D01*
X112690Y58864D01*
X112697Y58954D01*
X112697Y60944D01*
X112679Y61113D01*
X112665Y61282D01*
X112659Y61300D01*
X112657Y61319D01*
X112604Y61480D01*
X112555Y61642D01*
X112545Y61658D01*
X112540Y61677D01*
X112454Y61823D01*
X112371Y61971D01*
X112357Y61987D01*
X112349Y62001D01*
X112304Y62050D01*
X112177Y62201D01*
X110831Y63547D01*
X109903Y65787D01*
X109903Y68213D01*
X110831Y70453D01*
X112547Y72169D01*
X114787Y73097D01*
X117213Y73097D01*
X119453Y72169D01*
X121169Y70453D01*
X122097Y68213D01*
X122097Y65787D01*
X121169Y63546D01*
X120403Y62781D01*
X120332Y62693D01*
X120254Y62611D01*
X120214Y62547D01*
X120167Y62488D01*
X120116Y62387D01*
X120056Y62291D01*
X120031Y62220D01*
X119997Y62152D01*
X119969Y62042D01*
X119931Y61936D01*
X119921Y61861D01*
X119902Y61788D01*
X119897Y61674D01*
X119883Y61562D01*
X119889Y61487D01*
X119886Y61411D01*
X119905Y61300D01*
X119915Y61187D01*
X119937Y61115D01*
X119950Y61040D01*
X119992Y60935D01*
X120025Y60827D01*
X120062Y60761D01*
X120090Y60691D01*
X120154Y60597D01*
X120209Y60498D01*
X120267Y60429D01*
X120301Y60379D01*
X120345Y60337D01*
X120403Y60268D01*
X120847Y59823D01*
X120980Y59717D01*
X121109Y59608D01*
X121126Y59599D01*
X121140Y59587D01*
X121292Y59510D01*
X121441Y59431D01*
X121460Y59426D01*
X121477Y59417D01*
X121641Y59374D01*
X121804Y59328D01*
X121825Y59327D01*
X121841Y59322D01*
X121907Y59320D01*
X122104Y59303D01*
X244896Y59303D01*
X245065Y59321D01*
X245233Y59335D01*
X245251Y59341D01*
X245270Y59343D01*
X245431Y59396D01*
X245593Y59445D01*
X245610Y59455D01*
X245628Y59460D01*
X245774Y59546D01*
X245922Y59629D01*
X245938Y59643D01*
X245953Y59651D01*
X246001Y59696D01*
X246153Y59823D01*
X257177Y70847D01*
X257283Y70980D01*
X257392Y71109D01*
X257401Y71126D01*
X257413Y71140D01*
X257490Y71292D01*
X257569Y71441D01*
X257574Y71460D01*
X257583Y71477D01*
X257626Y71641D01*
X257672Y71804D01*
X257673Y71825D01*
X257678Y71841D01*
X257680Y71907D01*
X257697Y72104D01*
X257697Y84944D01*
X257679Y85113D01*
X257665Y85282D01*
X257659Y85300D01*
X257657Y85319D01*
X257604Y85480D01*
X257555Y85642D01*
X257545Y85658D01*
X257540Y85677D01*
X257454Y85823D01*
X257371Y85971D01*
X257357Y85987D01*
X257349Y86001D01*
X257304Y86050D01*
X257177Y86201D01*
X255831Y87547D01*
X254903Y89787D01*
X254903Y92213D01*
X255644Y94002D01*
X255668Y94083D01*
X255702Y94162D01*
X255721Y94263D01*
X255751Y94363D01*
X255757Y94448D01*
X255773Y94531D01*
X255771Y94635D01*
X255779Y94739D01*
X255767Y94823D01*
X255765Y94908D01*
X255741Y95009D01*
X255727Y95112D01*
X255698Y95191D01*
X255678Y95274D01*
X255633Y95368D01*
X255598Y95465D01*
X255552Y95537D01*
X255516Y95614D01*
X255452Y95696D01*
X255397Y95784D01*
X255337Y95845D01*
X255286Y95912D01*
X255206Y95979D01*
X255134Y96053D01*
X255063Y96100D01*
X254998Y96154D01*
X254906Y96203D01*
X254819Y96260D01*
X254740Y96291D01*
X254665Y96331D01*
X254565Y96359D01*
X254469Y96397D01*
X254385Y96411D01*
X254303Y96434D01*
X254170Y96445D01*
X254097Y96457D01*
X254057Y96455D01*
X254002Y96459D01*
X155874Y96459D01*
X155762Y96447D01*
X155648Y96445D01*
X155575Y96427D01*
X155500Y96419D01*
X155392Y96384D01*
X155282Y96358D01*
X155214Y96325D01*
X155142Y96302D01*
X155044Y96244D01*
X154942Y96195D01*
X154883Y96149D01*
X154817Y96111D01*
X154734Y96034D01*
X154644Y95965D01*
X154596Y95907D01*
X154540Y95856D01*
X154475Y95764D01*
X154402Y95677D01*
X154366Y95611D01*
X154322Y95549D01*
X154278Y95445D01*
X154225Y95345D01*
X154204Y95272D01*
X154175Y95203D01*
X154153Y95091D01*
X154122Y94983D01*
X154115Y94892D01*
X154103Y94833D01*
X154104Y94772D01*
X154097Y94682D01*
X154097Y93787D01*
X153169Y91547D01*
X151453Y89831D01*
X149213Y88903D01*
X146787Y88903D01*
X144547Y89831D01*
X142831Y91547D01*
X141903Y93787D01*
X141903Y96213D01*
X142831Y98453D01*
X144547Y100169D01*
X146650Y101040D01*
X146675Y101054D01*
X146702Y101063D01*
X146841Y101144D01*
X146981Y101220D01*
X147003Y101239D01*
X147027Y101253D01*
X147145Y101361D01*
X147266Y101466D01*
X147284Y101489D01*
X147304Y101508D01*
X147397Y101638D01*
X147494Y101766D01*
X147506Y101792D01*
X147522Y101815D01*
X147585Y101962D01*
X147652Y102108D01*
X147659Y102135D01*
X147670Y102162D01*
X147700Y102318D01*
X147736Y102475D01*
X147736Y102503D01*
X147741Y102531D01*
X147738Y102691D01*
X147740Y102851D01*
X147734Y102879D01*
X147733Y102908D01*
X147696Y103064D01*
X147664Y103220D01*
X147653Y103246D01*
X147646Y103274D01*
X147577Y103418D01*
X147513Y103565D01*
X147496Y103588D01*
X147484Y103614D01*
X147386Y103740D01*
X147292Y103870D01*
X147271Y103889D01*
X147254Y103912D01*
X147131Y104015D01*
X147012Y104122D01*
X146987Y104136D01*
X146966Y104154D01*
X146824Y104229D01*
X146685Y104309D01*
X146658Y104318D01*
X146633Y104331D01*
X146479Y104375D01*
X146327Y104423D01*
X146298Y104426D01*
X146271Y104434D01*
X145970Y104459D01*
X137789Y104459D01*
X137620Y104441D01*
X137451Y104427D01*
X137433Y104421D01*
X137414Y104419D01*
X137253Y104366D01*
X137091Y104317D01*
X137075Y104307D01*
X137057Y104302D01*
X136910Y104216D01*
X136762Y104133D01*
X136746Y104119D01*
X136732Y104111D01*
X136683Y104066D01*
X136532Y103939D01*
X134558Y101965D01*
X134470Y101855D01*
X134375Y101750D01*
X134351Y101709D01*
X134322Y101672D01*
X134258Y101546D01*
X134188Y101423D01*
X134174Y101378D01*
X134152Y101336D01*
X134117Y101199D01*
X134074Y101065D01*
X134069Y101017D01*
X134057Y100972D01*
X134051Y100831D01*
X134038Y100690D01*
X134043Y100643D01*
X134041Y100595D01*
X134065Y100456D01*
X134082Y100316D01*
X134097Y100269D01*
X134097Y97787D01*
X133169Y95547D01*
X131453Y93831D01*
X129213Y92903D01*
X126787Y92903D01*
X124547Y93831D01*
X122831Y95547D01*
X121903Y97787D01*
X121903Y100213D01*
X122831Y102453D01*
X124547Y104169D01*
X126650Y105040D01*
X126675Y105054D01*
X126702Y105063D01*
X126841Y105144D01*
X126981Y105220D01*
X127003Y105239D01*
X127027Y105253D01*
X127145Y105361D01*
X127266Y105466D01*
X127284Y105489D01*
X127304Y105508D01*
X127397Y105638D01*
X127494Y105766D01*
X127506Y105792D01*
X127522Y105815D01*
X127585Y105962D01*
X127652Y106108D01*
X127659Y106135D01*
X127670Y106162D01*
X127700Y106318D01*
X127736Y106475D01*
X127736Y106503D01*
X127741Y106531D01*
X127738Y106691D01*
X127740Y106851D01*
X127734Y106879D01*
X127733Y106908D01*
X127696Y107064D01*
X127664Y107220D01*
X127653Y107246D01*
X127646Y107274D01*
X127577Y107418D01*
X127513Y107565D01*
X127496Y107588D01*
X127484Y107614D01*
X127386Y107740D01*
X127292Y107870D01*
X127271Y107889D01*
X127254Y107912D01*
X127131Y108015D01*
X127012Y108122D01*
X126987Y108136D01*
X126966Y108154D01*
X126824Y108229D01*
X126685Y108309D01*
X126658Y108318D01*
X126633Y108331D01*
X126479Y108375D01*
X126327Y108423D01*
X126298Y108426D01*
X126271Y108434D01*
X125970Y108459D01*
X109948Y108459D01*
X74459Y143948D01*
X74459Y175211D01*
X74441Y175381D01*
X74427Y175549D01*
X74421Y175567D01*
X74419Y175586D01*
X74366Y175748D01*
X74317Y175909D01*
X74307Y175925D01*
X74302Y175943D01*
X74216Y176090D01*
X74133Y176238D01*
X74119Y176254D01*
X74111Y176268D01*
X74066Y176317D01*
X73939Y176468D01*
X73131Y177276D01*
X73087Y177312D01*
X73048Y177354D01*
X72941Y177430D01*
X72838Y177513D01*
X72787Y177538D01*
X72741Y177571D01*
X72619Y177623D01*
X72502Y177682D01*
X72447Y177697D01*
X72394Y177719D01*
X72265Y177744D01*
X72137Y177777D01*
X72080Y177780D01*
X72025Y177790D01*
X71893Y177788D01*
X71761Y177793D01*
X71705Y177784D01*
X71648Y177782D01*
X71520Y177752D01*
X71390Y177730D01*
X71337Y177708D01*
X71282Y177695D01*
X71163Y177638D01*
X71040Y177589D01*
X70993Y177557D01*
X70942Y177533D01*
X70838Y177452D01*
X70728Y177378D01*
X70689Y177337D01*
X70644Y177303D01*
X70559Y177202D01*
X70468Y177106D01*
X70438Y177058D01*
X70402Y177015D01*
X70340Y176898D01*
X70270Y176786D01*
X70252Y176732D01*
X70225Y176682D01*
X70189Y176555D01*
X70145Y176431D01*
X70138Y176375D01*
X70122Y176320D01*
X70106Y176123D01*
X70097Y176057D01*
X70099Y176041D01*
X70097Y176019D01*
X70097Y175787D01*
X69169Y173547D01*
X67415Y171793D01*
X67386Y171779D01*
X67349Y171750D01*
X67307Y171728D01*
X67200Y171635D01*
X67088Y171549D01*
X67058Y171513D01*
X67022Y171482D01*
X66937Y171369D01*
X66846Y171261D01*
X66823Y171219D01*
X66795Y171182D01*
X66735Y171053D01*
X66669Y170929D01*
X66656Y170883D01*
X66636Y170840D01*
X66605Y170702D01*
X66566Y170566D01*
X66562Y170512D01*
X66553Y170473D01*
X66552Y170399D01*
X66541Y170266D01*
X66541Y142789D01*
X66559Y142620D01*
X66573Y142451D01*
X66579Y142433D01*
X66581Y142414D01*
X66634Y142253D01*
X66683Y142091D01*
X66693Y142075D01*
X66698Y142057D01*
X66784Y141910D01*
X66867Y141762D01*
X66881Y141746D01*
X66889Y141732D01*
X66934Y141683D01*
X67061Y141532D01*
X131035Y77558D01*
X131145Y77469D01*
X131250Y77375D01*
X131291Y77352D01*
X131328Y77322D01*
X131454Y77258D01*
X131577Y77188D01*
X131622Y77174D01*
X131664Y77152D01*
X131801Y77117D01*
X131935Y77074D01*
X131983Y77069D01*
X132028Y77057D01*
X132169Y77051D01*
X132310Y77038D01*
X132357Y77043D01*
X132405Y77041D01*
X132544Y77065D01*
X132684Y77082D01*
X132731Y77097D01*
X135213Y77097D01*
X137453Y76169D01*
X139169Y74453D01*
X140097Y72213D01*
X140097Y69787D01*
X139169Y67547D01*
X137453Y65831D01*
X135213Y64903D01*
X132787Y64903D01*
X130547Y65831D01*
X128831Y67547D01*
X127903Y69787D01*
X127903Y72267D01*
X127914Y72297D01*
X127920Y72344D01*
X127933Y72390D01*
X127944Y72531D01*
X127962Y72671D01*
X127958Y72718D01*
X127961Y72765D01*
X127942Y72905D01*
X127930Y73046D01*
X127916Y73091D01*
X127910Y73138D01*
X127861Y73271D01*
X127820Y73406D01*
X127797Y73447D01*
X127780Y73492D01*
X127705Y73611D01*
X127636Y73735D01*
X127601Y73776D01*
X127580Y73810D01*
X127528Y73863D01*
X127442Y73965D01*
X61459Y139948D01*
X61459Y170266D01*
X61444Y170406D01*
X61437Y170547D01*
X61424Y170593D01*
X61419Y170640D01*
X61375Y170774D01*
X61338Y170911D01*
X61316Y170953D01*
X61302Y170998D01*
X61230Y171120D01*
X61165Y171245D01*
X61135Y171282D01*
X61111Y171323D01*
X61015Y171427D01*
X60925Y171536D01*
X60888Y171565D01*
X60856Y171600D01*
X60741Y171681D01*
X60630Y171769D01*
X60586Y171792D01*
X58831Y173547D01*
X57903Y175787D01*
X57903Y178213D01*
X58831Y180453D01*
X60547Y182169D01*
X62787Y183097D01*
X65213Y183097D01*
X66002Y182770D01*
X66084Y182746D01*
X66162Y182712D01*
X66263Y182693D01*
X66363Y182663D01*
X66448Y182657D01*
X66531Y182641D01*
X66635Y182643D01*
X66739Y182635D01*
X66823Y182647D01*
X66908Y182649D01*
X67009Y182673D01*
X67112Y182687D01*
X67191Y182716D01*
X67274Y182736D01*
X67368Y182781D01*
X67465Y182816D01*
X67537Y182862D01*
X67614Y182898D01*
X67696Y182962D01*
X67784Y183017D01*
X67844Y183077D01*
X67912Y183129D01*
X67979Y183208D01*
X68053Y183281D01*
X68100Y183352D01*
X68154Y183416D01*
X68203Y183508D01*
X68260Y183595D01*
X68291Y183674D01*
X68331Y183749D01*
X68359Y183849D01*
X68397Y183946D01*
X68411Y184030D01*
X68434Y184111D01*
X68445Y184244D01*
X68457Y184317D01*
X68455Y184357D01*
X68459Y184412D01*
X68459Y223730D01*
X68456Y223758D01*
X68458Y223786D01*
X68436Y223945D01*
X68419Y224104D01*
X68410Y224131D01*
X68407Y224159D01*
X68352Y224309D01*
X68302Y224462D01*
X68287Y224486D01*
X68277Y224513D01*
X68192Y224648D01*
X68111Y224786D01*
X68092Y224807D01*
X68077Y224831D01*
X67965Y224946D01*
X67856Y225064D01*
X67833Y225080D01*
X67813Y225100D01*
X67680Y225189D01*
X67549Y225281D01*
X67523Y225292D01*
X67499Y225308D01*
X67350Y225366D01*
X67203Y225429D01*
X67175Y225434D01*
X67148Y225445D01*
X66990Y225470D01*
X66833Y225500D01*
X66804Y225500D01*
X66776Y225504D01*
X66617Y225496D01*
X66456Y225492D01*
X66429Y225486D01*
X66400Y225484D01*
X66246Y225442D01*
X66090Y225405D01*
X66064Y225393D01*
X66037Y225386D01*
X65895Y225312D01*
X65750Y225243D01*
X65728Y225226D01*
X65703Y225213D01*
X65579Y225111D01*
X65452Y225013D01*
X65434Y224991D01*
X65412Y224973D01*
X65313Y224847D01*
X65210Y224725D01*
X65196Y224700D01*
X65179Y224677D01*
X65040Y224410D01*
X64829Y223901D01*
X61899Y220971D01*
X58072Y219385D01*
X53928Y219385D01*
X51634Y220336D01*
X51553Y220360D01*
X51474Y220393D01*
X51373Y220413D01*
X51273Y220442D01*
X51188Y220448D01*
X51105Y220464D01*
X51001Y220462D01*
X50897Y220470D01*
X50813Y220458D01*
X50728Y220457D01*
X50627Y220432D01*
X50524Y220418D01*
X50445Y220389D01*
X50362Y220369D01*
X50268Y220325D01*
X50171Y220289D01*
X50099Y220244D01*
X50022Y220207D01*
X49940Y220144D01*
X49852Y220088D01*
X49791Y220029D01*
X49724Y219977D01*
X49657Y219898D01*
X49583Y219825D01*
X49536Y219754D01*
X49482Y219689D01*
X49433Y219597D01*
X49376Y219511D01*
X49345Y219432D01*
X49305Y219356D01*
X49277Y219257D01*
X49239Y219160D01*
X49225Y219076D01*
X49202Y218994D01*
X49191Y218861D01*
X49179Y218788D01*
X49181Y218748D01*
X49177Y218694D01*
X49177Y97063D01*
X49178Y97051D01*
X49177Y97038D01*
X49198Y96864D01*
X49217Y96689D01*
X49221Y96677D01*
X49222Y96664D01*
X49280Y96498D01*
X49334Y96331D01*
X49341Y96320D01*
X49345Y96308D01*
X49436Y96158D01*
X49525Y96006D01*
X49534Y95997D01*
X49540Y95986D01*
X49661Y95859D01*
X49780Y95729D01*
X49790Y95722D01*
X49799Y95713D01*
X49944Y95613D01*
X50087Y95512D01*
X50099Y95507D01*
X50109Y95500D01*
X50272Y95433D01*
X50433Y95364D01*
X50446Y95361D01*
X50458Y95357D01*
X50630Y95326D01*
X50803Y95292D01*
X50816Y95293D01*
X50828Y95290D01*
X51003Y95297D01*
X51180Y95300D01*
X51192Y95303D01*
X51205Y95304D01*
X51375Y95347D01*
X51546Y95387D01*
X51557Y95393D01*
X51570Y95396D01*
X51843Y95524D01*
X53105Y96253D01*
X59889Y98071D01*
X66911Y98071D01*
X73694Y96253D01*
X79776Y92742D01*
X84742Y87776D01*
X88253Y81694D01*
X90071Y74911D01*
X90071Y67889D01*
X88253Y61105D01*
X87524Y59843D01*
X87519Y59831D01*
X87512Y59821D01*
X87443Y59659D01*
X87371Y59498D01*
X87369Y59486D01*
X87364Y59474D01*
X87331Y59302D01*
X87295Y59130D01*
X87295Y59117D01*
X87292Y59105D01*
X87296Y58928D01*
X87297Y58753D01*
X87300Y58741D01*
X87300Y58728D01*
X87341Y58558D01*
X87379Y58386D01*
X87385Y58374D01*
X87387Y58362D01*
X87462Y58205D01*
X87537Y58044D01*
X87544Y58034D01*
X87550Y58022D01*
X87657Y57884D01*
X87763Y57743D01*
X87772Y57734D01*
X87780Y57724D01*
X87914Y57611D01*
X88047Y57496D01*
X88058Y57490D01*
X88068Y57482D01*
X88223Y57399D01*
X88377Y57314D01*
X88389Y57311D01*
X88400Y57305D01*
X88569Y57257D01*
X88738Y57207D01*
X88751Y57206D01*
X88763Y57202D01*
X89063Y57177D01*
X110920Y57177D01*
X111032Y57189D01*
G37*
G36*
X112295Y120216D02*
X112295Y120216D01*
X112352Y120218D01*
X112480Y120248D01*
X112610Y120270D01*
X112663Y120292D01*
X112718Y120305D01*
X112837Y120362D01*
X112960Y120411D01*
X113007Y120443D01*
X113058Y120467D01*
X113162Y120548D01*
X113272Y120622D01*
X113311Y120663D01*
X113356Y120697D01*
X113441Y120798D01*
X113532Y120894D01*
X113562Y120942D01*
X113598Y120985D01*
X113660Y121102D01*
X113730Y121214D01*
X113748Y121268D01*
X113775Y121318D01*
X113811Y121445D01*
X113855Y121569D01*
X113862Y121625D01*
X113878Y121680D01*
X113894Y121877D01*
X113903Y121943D01*
X113901Y121959D01*
X113903Y121981D01*
X113903Y123833D01*
X114831Y126073D01*
X116547Y127789D01*
X118787Y128717D01*
X121213Y128717D01*
X122228Y128296D01*
X122237Y128293D01*
X122246Y128289D01*
X122418Y128240D01*
X122590Y128190D01*
X122599Y128189D01*
X122608Y128186D01*
X122909Y128161D01*
X258831Y128161D01*
X259000Y128179D01*
X259169Y128193D01*
X259187Y128199D01*
X259206Y128201D01*
X259367Y128254D01*
X259529Y128303D01*
X259545Y128313D01*
X259563Y128318D01*
X259710Y128405D01*
X259858Y128487D01*
X259874Y128501D01*
X259888Y128509D01*
X259937Y128554D01*
X260088Y128681D01*
X292442Y161035D01*
X292531Y161145D01*
X292625Y161250D01*
X292648Y161291D01*
X292678Y161328D01*
X292742Y161454D01*
X292812Y161577D01*
X292826Y161622D01*
X292848Y161664D01*
X292883Y161801D01*
X292926Y161935D01*
X292931Y161983D01*
X292943Y162028D01*
X292949Y162169D01*
X292962Y162310D01*
X292957Y162357D01*
X292959Y162405D01*
X292935Y162544D01*
X292918Y162684D01*
X292903Y162731D01*
X292903Y165213D01*
X293831Y167453D01*
X295546Y169169D01*
X297650Y170040D01*
X297675Y170054D01*
X297702Y170063D01*
X297841Y170144D01*
X297981Y170220D01*
X298003Y170239D01*
X298027Y170253D01*
X298145Y170361D01*
X298266Y170466D01*
X298284Y170489D01*
X298304Y170508D01*
X298397Y170638D01*
X298494Y170766D01*
X298505Y170792D01*
X298522Y170815D01*
X298585Y170962D01*
X298652Y171108D01*
X298659Y171135D01*
X298670Y171162D01*
X298700Y171318D01*
X298736Y171475D01*
X298736Y171503D01*
X298741Y171531D01*
X298738Y171691D01*
X298740Y171851D01*
X298734Y171879D01*
X298733Y171908D01*
X298696Y172063D01*
X298664Y172220D01*
X298653Y172246D01*
X298646Y172274D01*
X298577Y172418D01*
X298513Y172565D01*
X298496Y172588D01*
X298484Y172614D01*
X298386Y172740D01*
X298292Y172870D01*
X298271Y172889D01*
X298254Y172912D01*
X298131Y173015D01*
X298012Y173122D01*
X297987Y173136D01*
X297966Y173154D01*
X297824Y173230D01*
X297685Y173309D01*
X297658Y173318D01*
X297633Y173331D01*
X297479Y173375D01*
X297326Y173423D01*
X297298Y173426D01*
X297271Y173434D01*
X296970Y173459D01*
X124809Y173459D01*
X124640Y173441D01*
X124471Y173427D01*
X124453Y173421D01*
X124434Y173419D01*
X124273Y173366D01*
X124111Y173317D01*
X124095Y173307D01*
X124077Y173302D01*
X123930Y173216D01*
X123782Y173133D01*
X123766Y173119D01*
X123752Y173111D01*
X123703Y173066D01*
X123552Y172939D01*
X113558Y162945D01*
X113469Y162835D01*
X113375Y162730D01*
X113351Y162689D01*
X113322Y162652D01*
X113258Y162526D01*
X113188Y162403D01*
X113174Y162358D01*
X113152Y162316D01*
X113117Y162179D01*
X113074Y162044D01*
X113069Y161997D01*
X113057Y161952D01*
X113051Y161811D01*
X113038Y161670D01*
X113043Y161623D01*
X113041Y161575D01*
X113065Y161436D01*
X113082Y161296D01*
X113097Y161249D01*
X113097Y158767D01*
X112169Y156527D01*
X110453Y154811D01*
X108213Y153883D01*
X105787Y153883D01*
X103547Y154811D01*
X101831Y156527D01*
X100903Y158767D01*
X100903Y161193D01*
X101831Y163433D01*
X103547Y165149D01*
X105787Y166077D01*
X108267Y166077D01*
X108297Y166066D01*
X108344Y166060D01*
X108389Y166047D01*
X108530Y166036D01*
X108671Y166018D01*
X108718Y166022D01*
X108765Y166019D01*
X108905Y166038D01*
X109046Y166050D01*
X109091Y166064D01*
X109138Y166070D01*
X109270Y166119D01*
X109406Y166160D01*
X109447Y166183D01*
X109492Y166200D01*
X109611Y166275D01*
X109735Y166344D01*
X109776Y166379D01*
X109810Y166400D01*
X109863Y166452D01*
X109965Y166538D01*
X121968Y178541D01*
X308052Y178541D01*
X311541Y175052D01*
X311541Y172789D01*
X311559Y172620D01*
X311573Y172451D01*
X311579Y172433D01*
X311581Y172414D01*
X311634Y172253D01*
X311683Y172091D01*
X311693Y172075D01*
X311698Y172057D01*
X311784Y171910D01*
X311867Y171762D01*
X311881Y171746D01*
X311889Y171732D01*
X311934Y171683D01*
X312061Y171532D01*
X317532Y166061D01*
X317664Y165955D01*
X317793Y165846D01*
X317810Y165837D01*
X317825Y165825D01*
X317976Y165748D01*
X318126Y165669D01*
X318144Y165664D01*
X318161Y165655D01*
X318325Y165612D01*
X318488Y165566D01*
X318509Y165565D01*
X318525Y165560D01*
X318591Y165558D01*
X318789Y165541D01*
X320530Y165541D01*
X320587Y165547D01*
X320643Y165544D01*
X320773Y165567D01*
X320905Y165581D01*
X320959Y165598D01*
X321014Y165608D01*
X321137Y165657D01*
X321262Y165698D01*
X321311Y165727D01*
X321364Y165748D01*
X321473Y165822D01*
X321587Y165889D01*
X321629Y165927D01*
X321676Y165959D01*
X321767Y166055D01*
X321864Y166144D01*
X321897Y166190D01*
X321936Y166231D01*
X322006Y166343D01*
X322082Y166451D01*
X322104Y166503D01*
X322134Y166552D01*
X322178Y166676D01*
X322230Y166797D01*
X322240Y166853D01*
X322259Y166907D01*
X322276Y167038D01*
X322301Y167167D01*
X322300Y167224D01*
X322307Y167280D01*
X322296Y167412D01*
X322293Y167544D01*
X322280Y167599D01*
X322275Y167655D01*
X322237Y167782D01*
X322206Y167910D01*
X322182Y167961D01*
X322165Y168015D01*
X322100Y168131D01*
X322044Y168250D01*
X322009Y168295D01*
X321981Y168344D01*
X321854Y168495D01*
X321813Y168548D01*
X321801Y168558D01*
X321787Y168575D01*
X320211Y170150D01*
X319283Y172391D01*
X319283Y174816D01*
X320211Y177057D01*
X321927Y178772D01*
X324167Y179700D01*
X326070Y179700D01*
X326239Y179718D01*
X326407Y179733D01*
X326425Y179738D01*
X326444Y179740D01*
X326606Y179793D01*
X326767Y179843D01*
X326784Y179852D01*
X326802Y179858D01*
X326948Y179944D01*
X327096Y180027D01*
X327112Y180040D01*
X327127Y180049D01*
X327175Y180094D01*
X327326Y180221D01*
X329531Y182425D01*
X329566Y182469D01*
X329608Y182508D01*
X329684Y182616D01*
X329767Y182718D01*
X329793Y182769D01*
X329826Y182815D01*
X329877Y182937D01*
X329937Y183054D01*
X329951Y183109D01*
X329973Y183162D01*
X329999Y183291D01*
X330032Y183419D01*
X330034Y183475D01*
X330045Y183531D01*
X330042Y183663D01*
X330048Y183795D01*
X330038Y183851D01*
X330037Y183908D01*
X330007Y184036D01*
X329984Y184166D01*
X329963Y184219D01*
X329950Y184274D01*
X329893Y184393D01*
X329844Y184516D01*
X329812Y184563D01*
X329788Y184614D01*
X329707Y184718D01*
X329633Y184828D01*
X329592Y184867D01*
X329557Y184912D01*
X329457Y184997D01*
X329361Y185088D01*
X329313Y185118D01*
X329270Y185154D01*
X329153Y185216D01*
X329041Y185286D01*
X328987Y185304D01*
X328937Y185331D01*
X328810Y185367D01*
X328686Y185411D01*
X328629Y185418D01*
X328575Y185434D01*
X328378Y185450D01*
X328312Y185459D01*
X328295Y185457D01*
X328274Y185459D01*
X117148Y185459D01*
X117008Y185444D01*
X116867Y185437D01*
X116821Y185424D01*
X116774Y185419D01*
X116639Y185375D01*
X116503Y185338D01*
X116461Y185316D01*
X116416Y185302D01*
X116294Y185230D01*
X116169Y185165D01*
X116133Y185135D01*
X116092Y185111D01*
X115987Y185015D01*
X115878Y184925D01*
X115849Y184888D01*
X115814Y184856D01*
X115733Y184741D01*
X115645Y184630D01*
X115620Y184581D01*
X115597Y184549D01*
X115568Y184481D01*
X115506Y184362D01*
X115169Y183547D01*
X113453Y181831D01*
X111213Y180903D01*
X108787Y180903D01*
X106547Y181831D01*
X104831Y183547D01*
X103903Y185787D01*
X103903Y186628D01*
X103900Y186656D01*
X103902Y186685D01*
X103880Y186843D01*
X103863Y187002D01*
X103854Y187030D01*
X103851Y187058D01*
X103796Y187208D01*
X103746Y187360D01*
X103731Y187385D01*
X103721Y187411D01*
X103636Y187547D01*
X103555Y187685D01*
X103536Y187706D01*
X103521Y187730D01*
X103408Y187844D01*
X103300Y187962D01*
X103277Y187979D01*
X103257Y187999D01*
X103123Y188087D01*
X102993Y188180D01*
X102967Y188191D01*
X102943Y188206D01*
X102794Y188265D01*
X102647Y188327D01*
X102619Y188333D01*
X102592Y188343D01*
X102434Y188369D01*
X102277Y188399D01*
X102248Y188398D01*
X102220Y188403D01*
X102061Y188394D01*
X101900Y188391D01*
X101873Y188384D01*
X101844Y188383D01*
X101690Y188341D01*
X101534Y188304D01*
X101508Y188292D01*
X101481Y188284D01*
X101339Y188210D01*
X101194Y188142D01*
X101172Y188124D01*
X101147Y188111D01*
X101023Y188009D01*
X100896Y187911D01*
X100878Y187889D01*
X100856Y187871D01*
X100757Y187746D01*
X100654Y187623D01*
X100640Y187598D01*
X100623Y187576D01*
X100484Y187308D01*
X100169Y186547D01*
X98453Y184831D01*
X96213Y183903D01*
X95080Y183903D01*
X94968Y183891D01*
X94854Y183889D01*
X94781Y183871D01*
X94706Y183863D01*
X94598Y183828D01*
X94488Y183802D01*
X94420Y183769D01*
X94348Y183746D01*
X94250Y183688D01*
X94148Y183639D01*
X94089Y183593D01*
X94023Y183555D01*
X93940Y183478D01*
X93850Y183409D01*
X93802Y183351D01*
X93746Y183300D01*
X93681Y183208D01*
X93608Y183121D01*
X93572Y183054D01*
X93528Y182993D01*
X93484Y182889D01*
X93431Y182789D01*
X93410Y182716D01*
X93381Y182647D01*
X93359Y182535D01*
X93328Y182427D01*
X93321Y182336D01*
X93309Y182277D01*
X93310Y182216D01*
X93303Y182126D01*
X93303Y151104D01*
X93321Y150935D01*
X93335Y150767D01*
X93341Y150749D01*
X93343Y150730D01*
X93396Y150569D01*
X93445Y150407D01*
X93455Y150390D01*
X93460Y150372D01*
X93546Y150226D01*
X93629Y150078D01*
X93643Y150062D01*
X93651Y150047D01*
X93696Y149999D01*
X93823Y149847D01*
X96847Y146823D01*
X96980Y146717D01*
X97109Y146608D01*
X97126Y146599D01*
X97140Y146587D01*
X97292Y146510D01*
X97441Y146431D01*
X97460Y146426D01*
X97477Y146417D01*
X97641Y146374D01*
X97804Y146328D01*
X97825Y146327D01*
X97841Y146322D01*
X97907Y146320D01*
X98104Y146303D01*
X107896Y146303D01*
X108065Y146321D01*
X108233Y146335D01*
X108251Y146341D01*
X108270Y146343D01*
X108431Y146396D01*
X108593Y146445D01*
X108610Y146455D01*
X108628Y146460D01*
X108774Y146546D01*
X108922Y146629D01*
X108938Y146643D01*
X108953Y146651D01*
X109001Y146696D01*
X109153Y146823D01*
X118632Y156303D01*
X201944Y156303D01*
X202113Y156321D01*
X202282Y156335D01*
X202300Y156341D01*
X202319Y156343D01*
X202480Y156396D01*
X202642Y156445D01*
X202658Y156455D01*
X202677Y156460D01*
X202823Y156546D01*
X202971Y156629D01*
X202987Y156643D01*
X203001Y156651D01*
X203050Y156696D01*
X203201Y156823D01*
X204547Y158169D01*
X206787Y159097D01*
X209213Y159097D01*
X211453Y158169D01*
X213169Y156453D01*
X214097Y154213D01*
X214097Y151787D01*
X213169Y149547D01*
X211453Y147831D01*
X209213Y146903D01*
X206787Y146903D01*
X204547Y147831D01*
X203201Y149177D01*
X203069Y149283D01*
X202940Y149392D01*
X202923Y149401D01*
X202908Y149413D01*
X202757Y149490D01*
X202607Y149569D01*
X202589Y149574D01*
X202572Y149583D01*
X202408Y149626D01*
X202245Y149672D01*
X202224Y149673D01*
X202208Y149678D01*
X202142Y149680D01*
X201944Y149697D01*
X122104Y149697D01*
X121935Y149679D01*
X121767Y149665D01*
X121749Y149659D01*
X121730Y149657D01*
X121569Y149604D01*
X121407Y149555D01*
X121390Y149545D01*
X121372Y149540D01*
X121226Y149454D01*
X121078Y149371D01*
X121062Y149357D01*
X121047Y149349D01*
X120999Y149304D01*
X120847Y149177D01*
X111368Y139697D01*
X96187Y139697D01*
X96130Y139691D01*
X96073Y139694D01*
X95943Y139671D01*
X95812Y139657D01*
X95758Y139640D01*
X95702Y139630D01*
X95580Y139581D01*
X95454Y139540D01*
X95406Y139511D01*
X95353Y139490D01*
X95244Y139416D01*
X95130Y139349D01*
X95088Y139311D01*
X95041Y139279D01*
X94950Y139184D01*
X94852Y139094D01*
X94820Y139048D01*
X94780Y139007D01*
X94711Y138895D01*
X94635Y138787D01*
X94613Y138735D01*
X94583Y138686D01*
X94539Y138562D01*
X94487Y138441D01*
X94476Y138385D01*
X94458Y138331D01*
X94441Y138200D01*
X94416Y138071D01*
X94417Y138014D01*
X94410Y137958D01*
X94421Y137826D01*
X94424Y137694D01*
X94437Y137639D01*
X94442Y137583D01*
X94480Y137456D01*
X94511Y137328D01*
X94535Y137277D01*
X94552Y137223D01*
X94616Y137107D01*
X94673Y136988D01*
X94708Y136943D01*
X94735Y136894D01*
X94863Y136743D01*
X94903Y136690D01*
X94916Y136680D01*
X94930Y136663D01*
X110869Y120724D01*
X110914Y120688D01*
X110952Y120646D01*
X111059Y120570D01*
X111162Y120487D01*
X111213Y120462D01*
X111259Y120429D01*
X111381Y120377D01*
X111498Y120318D01*
X111553Y120303D01*
X111606Y120281D01*
X111735Y120256D01*
X111863Y120223D01*
X111919Y120220D01*
X111975Y120210D01*
X112107Y120212D01*
X112239Y120207D01*
X112295Y120216D01*
G37*
G36*
X66692Y234103D02*
X66692Y234103D01*
X66851Y234101D01*
X66879Y234107D01*
X66908Y234108D01*
X67063Y234145D01*
X67220Y234177D01*
X67246Y234188D01*
X67274Y234195D01*
X67418Y234263D01*
X67565Y234328D01*
X67588Y234345D01*
X67614Y234357D01*
X67740Y234455D01*
X67870Y234549D01*
X67889Y234570D01*
X67912Y234587D01*
X68015Y234710D01*
X68122Y234829D01*
X68136Y234853D01*
X68154Y234875D01*
X68230Y235017D01*
X68309Y235155D01*
X68318Y235183D01*
X68331Y235208D01*
X68375Y235362D01*
X68423Y235514D01*
X68426Y235543D01*
X68434Y235570D01*
X68459Y235870D01*
X68459Y247432D01*
X68458Y247439D01*
X68459Y247447D01*
X68439Y247626D01*
X68419Y247806D01*
X68417Y247813D01*
X68416Y247821D01*
X68358Y247991D01*
X68302Y248164D01*
X68298Y248170D01*
X68295Y248178D01*
X68203Y248332D01*
X68111Y248489D01*
X68106Y248494D01*
X68102Y248501D01*
X67979Y248632D01*
X67856Y248766D01*
X67850Y248770D01*
X67845Y248776D01*
X67696Y248879D01*
X67549Y248983D01*
X67542Y248986D01*
X67536Y248991D01*
X67367Y249061D01*
X67203Y249131D01*
X67195Y249133D01*
X67188Y249135D01*
X67009Y249169D01*
X66833Y249203D01*
X66825Y249202D01*
X66818Y249204D01*
X66638Y249199D01*
X66456Y249195D01*
X66449Y249193D01*
X66441Y249193D01*
X66266Y249149D01*
X66090Y249108D01*
X66083Y249104D01*
X66076Y249102D01*
X65913Y249023D01*
X65750Y248945D01*
X65744Y248941D01*
X65737Y248937D01*
X65595Y248825D01*
X65452Y248715D01*
X65448Y248709D01*
X65442Y248705D01*
X65244Y248476D01*
X64719Y247753D01*
X63447Y246481D01*
X61991Y245424D01*
X60388Y244607D01*
X58677Y244051D01*
X58539Y244029D01*
X58539Y254438D01*
X58527Y254550D01*
X58525Y254663D01*
X58507Y254737D01*
X58499Y254812D01*
X58464Y254920D01*
X58438Y255030D01*
X58405Y255098D01*
X58382Y255170D01*
X58361Y255205D01*
X58411Y255299D01*
X58432Y255372D01*
X58461Y255442D01*
X58483Y255553D01*
X58514Y255662D01*
X58521Y255752D01*
X58533Y255811D01*
X58532Y255872D01*
X58539Y255962D01*
X58539Y266371D01*
X58677Y266349D01*
X60388Y265793D01*
X61991Y264976D01*
X63447Y263919D01*
X64719Y262647D01*
X65244Y261924D01*
X65249Y261918D01*
X65253Y261911D01*
X65375Y261779D01*
X65497Y261644D01*
X65503Y261640D01*
X65508Y261634D01*
X65655Y261530D01*
X65802Y261424D01*
X65809Y261421D01*
X65815Y261417D01*
X65982Y261346D01*
X66147Y261273D01*
X66155Y261272D01*
X66162Y261269D01*
X66339Y261235D01*
X66516Y261199D01*
X66524Y261199D01*
X66531Y261197D01*
X66712Y261201D01*
X66893Y261203D01*
X66900Y261205D01*
X66908Y261205D01*
X67084Y261247D01*
X67260Y261287D01*
X67267Y261291D01*
X67274Y261292D01*
X67437Y261371D01*
X67601Y261447D01*
X67607Y261451D01*
X67614Y261455D01*
X67758Y261566D01*
X67901Y261675D01*
X67906Y261680D01*
X67912Y261685D01*
X68028Y261823D01*
X68146Y261960D01*
X68150Y261967D01*
X68154Y261973D01*
X68239Y262132D01*
X68325Y262291D01*
X68327Y262299D01*
X68331Y262305D01*
X68381Y262480D01*
X68431Y262653D01*
X68432Y262660D01*
X68434Y262668D01*
X68459Y262968D01*
X68459Y272052D01*
X70468Y274061D01*
X80376Y283969D01*
X80465Y284079D01*
X80560Y284184D01*
X80583Y284226D01*
X80613Y284262D01*
X80676Y284388D01*
X80747Y284511D01*
X80761Y284556D01*
X80782Y284599D01*
X80818Y284735D01*
X80861Y284870D01*
X80865Y284917D01*
X80877Y284963D01*
X80883Y285104D01*
X80897Y285245D01*
X80891Y285292D01*
X80893Y285339D01*
X80869Y285479D01*
X80853Y285619D01*
X80836Y285671D01*
X80830Y285710D01*
X80802Y285779D01*
X80762Y285906D01*
X79363Y289282D01*
X79363Y292718D01*
X80678Y295892D01*
X83108Y298322D01*
X85609Y299358D01*
X85659Y299385D01*
X85712Y299405D01*
X85824Y299475D01*
X85940Y299538D01*
X85983Y299575D01*
X86031Y299605D01*
X86125Y299698D01*
X86225Y299784D01*
X86259Y299829D01*
X86300Y299869D01*
X86373Y299979D01*
X86452Y300084D01*
X86476Y300136D01*
X86507Y300183D01*
X86555Y300306D01*
X86611Y300426D01*
X86624Y300481D01*
X86644Y300534D01*
X86665Y300664D01*
X86694Y300793D01*
X86695Y300850D01*
X86704Y300906D01*
X86697Y301037D01*
X86698Y301169D01*
X86687Y301225D01*
X86684Y301282D01*
X86649Y301409D01*
X86623Y301538D01*
X86600Y301590D01*
X86585Y301645D01*
X86525Y301762D01*
X86471Y301883D01*
X86438Y301929D01*
X86412Y301979D01*
X86328Y302081D01*
X86251Y302188D01*
X86209Y302226D01*
X86173Y302270D01*
X86069Y302352D01*
X85971Y302440D01*
X85922Y302468D01*
X85877Y302503D01*
X85701Y302594D01*
X85644Y302627D01*
X85628Y302632D01*
X85609Y302642D01*
X83108Y303678D01*
X80678Y306108D01*
X79363Y309282D01*
X79363Y312718D01*
X80678Y315892D01*
X83108Y318322D01*
X85609Y319358D01*
X85659Y319385D01*
X85712Y319405D01*
X85824Y319475D01*
X85940Y319538D01*
X85983Y319575D01*
X86031Y319605D01*
X86125Y319698D01*
X86225Y319784D01*
X86259Y319829D01*
X86300Y319869D01*
X86373Y319979D01*
X86452Y320084D01*
X86476Y320136D01*
X86507Y320183D01*
X86555Y320306D01*
X86611Y320426D01*
X86624Y320481D01*
X86644Y320534D01*
X86665Y320664D01*
X86694Y320793D01*
X86695Y320850D01*
X86704Y320906D01*
X86697Y321037D01*
X86698Y321169D01*
X86687Y321225D01*
X86684Y321282D01*
X86649Y321409D01*
X86623Y321538D01*
X86600Y321590D01*
X86585Y321645D01*
X86525Y321762D01*
X86471Y321883D01*
X86438Y321929D01*
X86412Y321979D01*
X86328Y322081D01*
X86251Y322188D01*
X86209Y322226D01*
X86173Y322270D01*
X86069Y322352D01*
X85971Y322440D01*
X85922Y322468D01*
X85877Y322503D01*
X85701Y322594D01*
X85644Y322627D01*
X85628Y322632D01*
X85609Y322642D01*
X83108Y323678D01*
X80678Y326108D01*
X79363Y329282D01*
X79363Y332718D01*
X80678Y335892D01*
X83108Y338322D01*
X85609Y339358D01*
X85659Y339385D01*
X85712Y339405D01*
X85824Y339475D01*
X85940Y339538D01*
X85983Y339575D01*
X86031Y339605D01*
X86125Y339698D01*
X86225Y339784D01*
X86259Y339829D01*
X86300Y339869D01*
X86373Y339979D01*
X86452Y340084D01*
X86476Y340136D01*
X86507Y340183D01*
X86555Y340306D01*
X86611Y340426D01*
X86624Y340481D01*
X86644Y340534D01*
X86665Y340664D01*
X86694Y340793D01*
X86695Y340850D01*
X86704Y340906D01*
X86697Y341037D01*
X86698Y341169D01*
X86687Y341225D01*
X86684Y341282D01*
X86649Y341409D01*
X86623Y341538D01*
X86600Y341590D01*
X86585Y341645D01*
X86525Y341762D01*
X86471Y341883D01*
X86438Y341929D01*
X86412Y341979D01*
X86328Y342081D01*
X86251Y342188D01*
X86209Y342226D01*
X86173Y342270D01*
X86069Y342352D01*
X85971Y342440D01*
X85922Y342468D01*
X85877Y342503D01*
X85701Y342594D01*
X85644Y342627D01*
X85628Y342632D01*
X85609Y342642D01*
X83108Y343678D01*
X80678Y346108D01*
X79363Y349282D01*
X79363Y352718D01*
X80678Y355892D01*
X83108Y358322D01*
X86282Y359637D01*
X89718Y359637D01*
X92892Y358322D01*
X93554Y357660D01*
X93642Y357589D01*
X93724Y357511D01*
X93788Y357471D01*
X93847Y357424D01*
X93948Y357373D01*
X94044Y357314D01*
X94115Y357288D01*
X94183Y357254D01*
X94292Y357226D01*
X94399Y357188D01*
X94474Y357178D01*
X94547Y357159D01*
X94660Y357155D01*
X94773Y357140D01*
X94848Y357147D01*
X94924Y357143D01*
X95035Y357163D01*
X95148Y357172D01*
X95220Y357194D01*
X95295Y357207D01*
X95400Y357249D01*
X95508Y357282D01*
X95574Y357319D01*
X95644Y357347D01*
X95738Y357411D01*
X95837Y357466D01*
X95906Y357524D01*
X95956Y357558D01*
X95998Y357602D01*
X96067Y357660D01*
X100939Y362532D01*
X102948Y364541D01*
X110512Y364541D01*
X110596Y364550D01*
X110680Y364549D01*
X110782Y364570D01*
X110886Y364581D01*
X110967Y364607D01*
X111049Y364624D01*
X111145Y364666D01*
X111244Y364698D01*
X111317Y364741D01*
X111394Y364775D01*
X111478Y364836D01*
X111569Y364889D01*
X111631Y364946D01*
X111699Y364995D01*
X111769Y365073D01*
X111846Y365144D01*
X111895Y365212D01*
X111951Y365275D01*
X112003Y365366D01*
X112064Y365451D01*
X112097Y365529D01*
X112139Y365602D01*
X112170Y365701D01*
X112211Y365797D01*
X112227Y365880D01*
X112253Y365960D01*
X112263Y366064D01*
X112283Y366167D01*
X112281Y366252D01*
X112289Y366335D01*
X112277Y366439D01*
X112275Y366544D01*
X112255Y366626D01*
X112246Y366709D01*
X112205Y366838D01*
X112188Y366910D01*
X112182Y366922D01*
X112181Y366926D01*
X112169Y366952D01*
X112155Y366997D01*
X112148Y367013D01*
X112080Y367138D01*
X112019Y367266D01*
X111990Y367303D01*
X111968Y367344D01*
X111875Y367451D01*
X111789Y367564D01*
X111753Y367594D01*
X111722Y367629D01*
X111609Y367715D01*
X111501Y367806D01*
X111460Y367828D01*
X111422Y367856D01*
X111294Y367916D01*
X111168Y367983D01*
X111123Y367996D01*
X111081Y368015D01*
X110943Y368047D01*
X110806Y368086D01*
X110752Y368090D01*
X110714Y368099D01*
X110640Y368100D01*
X110505Y368111D01*
X70618Y368111D01*
X61327Y377402D01*
X61217Y377491D01*
X61112Y377586D01*
X61071Y377609D01*
X61034Y377639D01*
X60908Y377703D01*
X60785Y377773D01*
X60740Y377787D01*
X60698Y377809D01*
X60561Y377844D01*
X60426Y377887D01*
X60379Y377892D01*
X60333Y377903D01*
X60192Y377909D01*
X60051Y377923D01*
X60004Y377917D01*
X59957Y377919D01*
X59818Y377896D01*
X59677Y377879D01*
X59625Y377863D01*
X59586Y377856D01*
X59535Y377835D01*
X56495Y377835D01*
X53715Y378987D01*
X52211Y380491D01*
X52167Y380527D01*
X52128Y380569D01*
X52020Y380645D01*
X51918Y380728D01*
X51867Y380753D01*
X51821Y380786D01*
X51699Y380838D01*
X51582Y380897D01*
X51527Y380912D01*
X51474Y380934D01*
X51345Y380959D01*
X51217Y380992D01*
X51161Y380995D01*
X51105Y381005D01*
X50973Y381003D01*
X50841Y381008D01*
X50785Y380999D01*
X50728Y380997D01*
X50600Y380967D01*
X50470Y380944D01*
X50417Y380923D01*
X50362Y380910D01*
X50243Y380853D01*
X50120Y380804D01*
X50073Y380772D01*
X50022Y380748D01*
X49918Y380667D01*
X49808Y380593D01*
X49769Y380552D01*
X49724Y380518D01*
X49639Y380417D01*
X49548Y380321D01*
X49518Y380273D01*
X49482Y380230D01*
X49420Y380113D01*
X49350Y380001D01*
X49332Y379947D01*
X49305Y379897D01*
X49269Y379770D01*
X49225Y379646D01*
X49218Y379590D01*
X49202Y379535D01*
X49186Y379338D01*
X49177Y379272D01*
X49179Y379256D01*
X49177Y379234D01*
X49177Y342202D01*
X49183Y342146D01*
X49180Y342089D01*
X49203Y341959D01*
X49217Y341828D01*
X49234Y341774D01*
X49244Y341718D01*
X49293Y341596D01*
X49334Y341470D01*
X49363Y341421D01*
X49384Y341369D01*
X49458Y341259D01*
X49525Y341146D01*
X49563Y341104D01*
X49595Y341057D01*
X49691Y340965D01*
X49780Y340868D01*
X49826Y340836D01*
X49867Y340796D01*
X49980Y340727D01*
X50087Y340651D01*
X50139Y340629D01*
X50188Y340599D01*
X50312Y340555D01*
X50433Y340503D01*
X50489Y340492D01*
X50543Y340473D01*
X50673Y340457D01*
X50803Y340432D01*
X50860Y340433D01*
X50916Y340426D01*
X51048Y340437D01*
X51180Y340439D01*
X51235Y340453D01*
X51291Y340457D01*
X51418Y340496D01*
X51546Y340527D01*
X51597Y340551D01*
X51651Y340568D01*
X51767Y340632D01*
X51886Y340689D01*
X51931Y340724D01*
X51980Y340751D01*
X52131Y340879D01*
X52184Y340919D01*
X52194Y340932D01*
X52211Y340946D01*
X52410Y341145D01*
X53503Y341939D01*
X54706Y342552D01*
X55991Y342969D01*
X56223Y343006D01*
X56223Y334600D01*
X56223Y326194D01*
X55991Y326231D01*
X54706Y326648D01*
X53503Y327261D01*
X52410Y328055D01*
X52211Y328254D01*
X52167Y328290D01*
X52128Y328332D01*
X52021Y328408D01*
X51918Y328491D01*
X51867Y328516D01*
X51821Y328549D01*
X51700Y328601D01*
X51582Y328660D01*
X51527Y328675D01*
X51474Y328697D01*
X51345Y328722D01*
X51217Y328755D01*
X51160Y328758D01*
X51105Y328768D01*
X50973Y328766D01*
X50841Y328771D01*
X50785Y328762D01*
X50728Y328761D01*
X50600Y328730D01*
X50470Y328708D01*
X50417Y328686D01*
X50362Y328673D01*
X50243Y328617D01*
X50121Y328567D01*
X50073Y328536D01*
X50022Y328511D01*
X49918Y328430D01*
X49809Y328357D01*
X49769Y328316D01*
X49724Y328281D01*
X49639Y328180D01*
X49548Y328085D01*
X49518Y328036D01*
X49482Y327993D01*
X49420Y327877D01*
X49350Y327764D01*
X49332Y327711D01*
X49305Y327660D01*
X49269Y327534D01*
X49225Y327409D01*
X49218Y327353D01*
X49202Y327298D01*
X49186Y327101D01*
X49177Y327036D01*
X49179Y327019D01*
X49177Y326998D01*
X49177Y317106D01*
X49186Y317022D01*
X49185Y316937D01*
X49206Y316835D01*
X49217Y316732D01*
X49243Y316651D01*
X49260Y316568D01*
X49302Y316473D01*
X49334Y316374D01*
X49378Y316301D01*
X49412Y316223D01*
X49472Y316139D01*
X49525Y316050D01*
X49583Y315987D01*
X49632Y315918D01*
X49710Y315849D01*
X49780Y315772D01*
X49849Y315723D01*
X49912Y315666D01*
X50002Y315615D01*
X50087Y315555D01*
X50165Y315522D01*
X50239Y315479D01*
X50338Y315448D01*
X50433Y315407D01*
X50517Y315391D01*
X50598Y315365D01*
X50701Y315355D01*
X50803Y315336D01*
X50888Y315337D01*
X50973Y315329D01*
X51076Y315341D01*
X51180Y315343D01*
X51262Y315363D01*
X51347Y315373D01*
X51474Y315413D01*
X51546Y315431D01*
X51582Y315448D01*
X51634Y315464D01*
X53928Y316415D01*
X58072Y316415D01*
X61899Y314829D01*
X64829Y311899D01*
X66415Y308072D01*
X66415Y303928D01*
X64829Y300101D01*
X61899Y297171D01*
X58072Y295585D01*
X53928Y295585D01*
X51634Y296536D01*
X51553Y296560D01*
X51474Y296593D01*
X51373Y296613D01*
X51273Y296642D01*
X51188Y296648D01*
X51105Y296664D01*
X51001Y296662D01*
X50897Y296670D01*
X50813Y296658D01*
X50728Y296657D01*
X50627Y296632D01*
X50524Y296618D01*
X50445Y296589D01*
X50362Y296569D01*
X50268Y296525D01*
X50171Y296489D01*
X50099Y296444D01*
X50022Y296407D01*
X49940Y296344D01*
X49852Y296288D01*
X49791Y296229D01*
X49724Y296177D01*
X49657Y296098D01*
X49583Y296025D01*
X49536Y295954D01*
X49482Y295889D01*
X49433Y295797D01*
X49376Y295711D01*
X49345Y295632D01*
X49305Y295556D01*
X49277Y295456D01*
X49239Y295360D01*
X49225Y295276D01*
X49202Y295194D01*
X49191Y295061D01*
X49179Y294988D01*
X49181Y294948D01*
X49177Y294894D01*
X49177Y291706D01*
X49186Y291622D01*
X49185Y291537D01*
X49206Y291435D01*
X49217Y291332D01*
X49243Y291251D01*
X49260Y291168D01*
X49302Y291073D01*
X49334Y290974D01*
X49378Y290901D01*
X49412Y290823D01*
X49472Y290739D01*
X49525Y290650D01*
X49583Y290587D01*
X49632Y290518D01*
X49710Y290449D01*
X49780Y290372D01*
X49849Y290323D01*
X49912Y290266D01*
X50002Y290215D01*
X50087Y290155D01*
X50165Y290122D01*
X50239Y290079D01*
X50338Y290048D01*
X50433Y290007D01*
X50517Y289991D01*
X50598Y289965D01*
X50701Y289955D01*
X50803Y289936D01*
X50888Y289937D01*
X50973Y289929D01*
X51076Y289941D01*
X51180Y289943D01*
X51262Y289963D01*
X51347Y289973D01*
X51474Y290013D01*
X51546Y290031D01*
X51582Y290048D01*
X51634Y290064D01*
X53928Y291015D01*
X58072Y291015D01*
X61899Y289429D01*
X64829Y286499D01*
X66415Y282672D01*
X66415Y278528D01*
X64829Y274701D01*
X61899Y271771D01*
X58072Y270185D01*
X53928Y270185D01*
X51634Y271136D01*
X51553Y271160D01*
X51474Y271193D01*
X51373Y271213D01*
X51273Y271242D01*
X51188Y271248D01*
X51105Y271264D01*
X51001Y271262D01*
X50897Y271270D01*
X50813Y271258D01*
X50728Y271257D01*
X50627Y271232D01*
X50524Y271218D01*
X50445Y271189D01*
X50362Y271169D01*
X50268Y271125D01*
X50171Y271089D01*
X50099Y271044D01*
X50022Y271007D01*
X49940Y270944D01*
X49852Y270888D01*
X49791Y270829D01*
X49724Y270777D01*
X49657Y270698D01*
X49583Y270625D01*
X49536Y270554D01*
X49482Y270489D01*
X49433Y270397D01*
X49376Y270311D01*
X49345Y270232D01*
X49305Y270156D01*
X49277Y270057D01*
X49239Y269960D01*
X49225Y269876D01*
X49202Y269794D01*
X49191Y269661D01*
X49179Y269588D01*
X49181Y269548D01*
X49177Y269494D01*
X49177Y267448D01*
X49178Y267433D01*
X49177Y267418D01*
X49198Y267246D01*
X49217Y267074D01*
X49221Y267059D01*
X49223Y267044D01*
X49280Y266881D01*
X49334Y266716D01*
X49342Y266703D01*
X49347Y266689D01*
X49437Y266541D01*
X49525Y266391D01*
X49535Y266380D01*
X49543Y266367D01*
X49662Y266242D01*
X49780Y266114D01*
X49792Y266105D01*
X49803Y266094D01*
X49946Y265997D01*
X50087Y265897D01*
X50101Y265891D01*
X50114Y265882D01*
X50274Y265817D01*
X50433Y265749D01*
X50448Y265746D01*
X50462Y265740D01*
X50634Y265710D01*
X50803Y265677D01*
X50818Y265678D01*
X50833Y265675D01*
X51006Y265682D01*
X51180Y265685D01*
X51194Y265689D01*
X51209Y265689D01*
X51503Y265758D01*
X53323Y266349D01*
X53461Y266371D01*
X53461Y255962D01*
X53473Y255850D01*
X53475Y255737D01*
X53493Y255663D01*
X53501Y255588D01*
X53536Y255480D01*
X53562Y255370D01*
X53595Y255302D01*
X53618Y255230D01*
X53639Y255195D01*
X53589Y255101D01*
X53568Y255028D01*
X53539Y254958D01*
X53517Y254847D01*
X53486Y254738D01*
X53479Y254648D01*
X53467Y254589D01*
X53468Y254528D01*
X53461Y254438D01*
X53461Y244029D01*
X53323Y244051D01*
X51503Y244642D01*
X51488Y244645D01*
X51474Y244651D01*
X51304Y244684D01*
X51135Y244720D01*
X51120Y244720D01*
X51105Y244723D01*
X50931Y244719D01*
X50758Y244718D01*
X50743Y244715D01*
X50728Y244715D01*
X50560Y244675D01*
X50390Y244637D01*
X50377Y244631D01*
X50362Y244628D01*
X50207Y244553D01*
X50048Y244481D01*
X50036Y244472D01*
X50022Y244465D01*
X49885Y244359D01*
X49746Y244256D01*
X49736Y244244D01*
X49724Y244235D01*
X49613Y244103D01*
X49499Y243972D01*
X49491Y243959D01*
X49482Y243947D01*
X49400Y243795D01*
X49316Y243643D01*
X49312Y243628D01*
X49305Y243615D01*
X49258Y243448D01*
X49208Y243282D01*
X49206Y243267D01*
X49202Y243252D01*
X49177Y242952D01*
X49177Y240906D01*
X49186Y240822D01*
X49185Y240737D01*
X49206Y240635D01*
X49217Y240532D01*
X49243Y240451D01*
X49260Y240368D01*
X49302Y240273D01*
X49334Y240174D01*
X49378Y240101D01*
X49412Y240023D01*
X49472Y239939D01*
X49525Y239850D01*
X49583Y239787D01*
X49632Y239718D01*
X49710Y239649D01*
X49780Y239572D01*
X49849Y239523D01*
X49912Y239466D01*
X50002Y239415D01*
X50087Y239355D01*
X50165Y239322D01*
X50239Y239279D01*
X50338Y239248D01*
X50433Y239207D01*
X50517Y239191D01*
X50598Y239165D01*
X50701Y239155D01*
X50803Y239136D01*
X50888Y239137D01*
X50973Y239129D01*
X51076Y239141D01*
X51180Y239143D01*
X51262Y239163D01*
X51347Y239173D01*
X51474Y239213D01*
X51546Y239231D01*
X51582Y239248D01*
X51634Y239264D01*
X53928Y240215D01*
X58072Y240215D01*
X61899Y238629D01*
X64829Y235699D01*
X65040Y235190D01*
X65054Y235165D01*
X65063Y235138D01*
X65144Y235000D01*
X65220Y234860D01*
X65239Y234838D01*
X65253Y234814D01*
X65362Y234696D01*
X65466Y234574D01*
X65489Y234557D01*
X65508Y234536D01*
X65638Y234444D01*
X65766Y234347D01*
X65792Y234335D01*
X65815Y234319D01*
X65962Y234256D01*
X66108Y234189D01*
X66135Y234182D01*
X66162Y234171D01*
X66319Y234141D01*
X66475Y234105D01*
X66503Y234105D01*
X66531Y234100D01*
X66692Y234103D01*
G37*
G36*
X301431Y383807D02*
X301431Y383807D01*
X301488Y383804D01*
X301618Y383827D01*
X301749Y383841D01*
X301803Y383858D01*
X301859Y383868D01*
X301981Y383917D01*
X302107Y383958D01*
X302156Y383987D01*
X302208Y384008D01*
X302318Y384082D01*
X302431Y384149D01*
X302473Y384187D01*
X302520Y384219D01*
X302612Y384315D01*
X302709Y384404D01*
X302742Y384450D01*
X302781Y384491D01*
X302850Y384603D01*
X302926Y384711D01*
X302948Y384763D01*
X302978Y384812D01*
X303022Y384936D01*
X303074Y385057D01*
X303085Y385113D01*
X303104Y385167D01*
X303120Y385298D01*
X303146Y385427D01*
X303144Y385484D01*
X303152Y385540D01*
X303140Y385672D01*
X303138Y385804D01*
X303124Y385859D01*
X303120Y385915D01*
X303081Y386042D01*
X303050Y386170D01*
X303026Y386221D01*
X303009Y386275D01*
X302945Y386391D01*
X302888Y386510D01*
X302853Y386555D01*
X302826Y386604D01*
X302698Y386755D01*
X302658Y386808D01*
X302645Y386818D01*
X302631Y386835D01*
X301110Y388356D01*
X298975Y393510D01*
X298975Y399090D01*
X301110Y404244D01*
X305056Y408190D01*
X307273Y409108D01*
X307323Y409135D01*
X307376Y409155D01*
X307488Y409225D01*
X307604Y409288D01*
X307647Y409325D01*
X307695Y409356D01*
X307789Y409448D01*
X307889Y409534D01*
X307923Y409579D01*
X307964Y409619D01*
X308037Y409729D01*
X308116Y409834D01*
X308140Y409886D01*
X308172Y409933D01*
X308219Y410056D01*
X308275Y410176D01*
X308288Y410231D01*
X308308Y410284D01*
X308329Y410414D01*
X308358Y410543D01*
X308359Y410600D01*
X308368Y410656D01*
X308361Y410788D01*
X308362Y410920D01*
X308351Y410975D01*
X308348Y411032D01*
X308313Y411159D01*
X308287Y411288D01*
X308264Y411340D01*
X308249Y411395D01*
X308188Y411513D01*
X308135Y411633D01*
X308102Y411679D01*
X308076Y411730D01*
X307992Y411832D01*
X307915Y411938D01*
X307873Y411976D01*
X307837Y412020D01*
X307733Y412102D01*
X307635Y412190D01*
X307586Y412218D01*
X307541Y412253D01*
X307365Y412344D01*
X307308Y412377D01*
X307292Y412382D01*
X307273Y412392D01*
X306333Y412781D01*
X304626Y413767D01*
X303062Y414967D01*
X301667Y416362D01*
X300467Y417926D01*
X299481Y419633D01*
X298727Y421455D01*
X298381Y422745D01*
X311222Y422745D01*
X311334Y422757D01*
X311448Y422759D01*
X311521Y422777D01*
X311596Y422785D01*
X311704Y422820D01*
X311814Y422846D01*
X311882Y422879D01*
X311954Y422903D01*
X312052Y422960D01*
X312154Y423009D01*
X312213Y423055D01*
X312279Y423093D01*
X312362Y423170D01*
X312452Y423239D01*
X312500Y423297D01*
X312556Y423348D01*
X312621Y423440D01*
X312694Y423527D01*
X312730Y423593D01*
X312773Y423655D01*
X312818Y423759D01*
X312871Y423859D01*
X312892Y423932D01*
X312921Y424002D01*
X312943Y424113D01*
X312974Y424221D01*
X312981Y424312D01*
X312993Y424371D01*
X312991Y424432D01*
X312999Y424522D01*
X312999Y428078D01*
X312987Y428190D01*
X312985Y428304D01*
X312967Y428377D01*
X312959Y428452D01*
X312924Y428560D01*
X312898Y428670D01*
X312865Y428738D01*
X312841Y428810D01*
X312784Y428908D01*
X312735Y429010D01*
X312689Y429069D01*
X312651Y429135D01*
X312574Y429218D01*
X312505Y429308D01*
X312447Y429356D01*
X312396Y429412D01*
X312304Y429477D01*
X312217Y429550D01*
X312150Y429586D01*
X312089Y429629D01*
X311985Y429674D01*
X311885Y429727D01*
X311812Y429748D01*
X311742Y429777D01*
X311631Y429799D01*
X311522Y429830D01*
X311432Y429837D01*
X311373Y429849D01*
X311312Y429848D01*
X311222Y429855D01*
X298381Y429855D01*
X298727Y431145D01*
X299233Y432366D01*
X299257Y432448D01*
X299290Y432526D01*
X299310Y432627D01*
X299339Y432727D01*
X299345Y432812D01*
X299361Y432895D01*
X299359Y432999D01*
X299367Y433103D01*
X299355Y433187D01*
X299354Y433272D01*
X299329Y433373D01*
X299315Y433476D01*
X299286Y433555D01*
X299266Y433638D01*
X299222Y433732D01*
X299186Y433829D01*
X299141Y433901D01*
X299104Y433978D01*
X299041Y434060D01*
X298985Y434148D01*
X298926Y434208D01*
X298874Y434276D01*
X298794Y434343D01*
X298722Y434417D01*
X298651Y434464D01*
X298586Y434518D01*
X298494Y434567D01*
X298408Y434624D01*
X298328Y434655D01*
X298253Y434695D01*
X298154Y434723D01*
X298057Y434761D01*
X297973Y434775D01*
X297891Y434798D01*
X297758Y434809D01*
X297685Y434821D01*
X297645Y434819D01*
X297591Y434823D01*
X288409Y434823D01*
X288325Y434814D01*
X288240Y434815D01*
X288138Y434794D01*
X288035Y434783D01*
X287954Y434757D01*
X287871Y434740D01*
X287776Y434698D01*
X287677Y434666D01*
X287604Y434622D01*
X287526Y434588D01*
X287442Y434528D01*
X287353Y434475D01*
X287290Y434417D01*
X287221Y434368D01*
X287152Y434290D01*
X287075Y434220D01*
X287026Y434151D01*
X286969Y434088D01*
X286918Y433998D01*
X286858Y433913D01*
X286824Y433835D01*
X286782Y433761D01*
X286751Y433662D01*
X286710Y433567D01*
X286694Y433483D01*
X286668Y433402D01*
X286658Y433299D01*
X286638Y433197D01*
X286640Y433112D01*
X286632Y433027D01*
X286644Y432924D01*
X286646Y432820D01*
X286666Y432738D01*
X286676Y432653D01*
X286716Y432526D01*
X286734Y432454D01*
X286751Y432418D01*
X286767Y432366D01*
X287273Y431145D01*
X287619Y429855D01*
X274778Y429855D01*
X274666Y429843D01*
X274552Y429841D01*
X274479Y429823D01*
X274404Y429815D01*
X274296Y429780D01*
X274186Y429754D01*
X274118Y429721D01*
X274046Y429697D01*
X273948Y429640D01*
X273846Y429591D01*
X273787Y429545D01*
X273721Y429507D01*
X273638Y429430D01*
X273548Y429361D01*
X273500Y429303D01*
X273444Y429252D01*
X273379Y429160D01*
X273306Y429073D01*
X273270Y429007D01*
X273227Y428945D01*
X273182Y428841D01*
X273129Y428741D01*
X273108Y428668D01*
X273079Y428598D01*
X273057Y428487D01*
X273026Y428378D01*
X273019Y428288D01*
X273007Y428229D01*
X273009Y428168D01*
X273001Y428078D01*
X273001Y424522D01*
X273013Y424410D01*
X273015Y424296D01*
X273033Y424223D01*
X273041Y424148D01*
X273076Y424040D01*
X273102Y423930D01*
X273135Y423862D01*
X273159Y423790D01*
X273216Y423692D01*
X273265Y423590D01*
X273311Y423531D01*
X273349Y423465D01*
X273426Y423382D01*
X273495Y423292D01*
X273553Y423244D01*
X273604Y423188D01*
X273696Y423123D01*
X273783Y423050D01*
X273850Y423014D01*
X273911Y422970D01*
X274015Y422926D01*
X274115Y422873D01*
X274188Y422852D01*
X274258Y422823D01*
X274369Y422801D01*
X274478Y422770D01*
X274568Y422763D01*
X274627Y422751D01*
X274688Y422752D01*
X274778Y422745D01*
X287619Y422745D01*
X287273Y421455D01*
X286519Y419633D01*
X285533Y417926D01*
X284333Y416362D01*
X282938Y414967D01*
X281374Y413767D01*
X279667Y412781D01*
X278727Y412392D01*
X278677Y412365D01*
X278624Y412346D01*
X278512Y412275D01*
X278396Y412212D01*
X278353Y412175D01*
X278305Y412145D01*
X278211Y412053D01*
X278111Y411966D01*
X278076Y411921D01*
X278036Y411881D01*
X277963Y411771D01*
X277884Y411666D01*
X277860Y411615D01*
X277828Y411567D01*
X277781Y411444D01*
X277725Y411324D01*
X277712Y411269D01*
X277692Y411216D01*
X277671Y411086D01*
X277642Y410957D01*
X277641Y410900D01*
X277632Y410845D01*
X277639Y410713D01*
X277638Y410581D01*
X277649Y410525D01*
X277652Y410469D01*
X277687Y410341D01*
X277713Y410212D01*
X277736Y410160D01*
X277751Y410105D01*
X277811Y409988D01*
X277864Y409867D01*
X277898Y409821D01*
X277924Y409771D01*
X278008Y409669D01*
X278085Y409562D01*
X278127Y409524D01*
X278163Y409480D01*
X278267Y409398D01*
X278365Y409310D01*
X278414Y409282D01*
X278459Y409247D01*
X278635Y409156D01*
X278692Y409123D01*
X278708Y409118D01*
X278727Y409108D01*
X280944Y408190D01*
X284890Y404244D01*
X287025Y399090D01*
X287025Y393510D01*
X284890Y388356D01*
X283369Y386835D01*
X283333Y386791D01*
X283291Y386752D01*
X283215Y386644D01*
X283132Y386542D01*
X283107Y386491D01*
X283074Y386445D01*
X283022Y386323D01*
X282963Y386206D01*
X282948Y386151D01*
X282926Y386098D01*
X282901Y385969D01*
X282868Y385841D01*
X282865Y385785D01*
X282854Y385729D01*
X282857Y385597D01*
X282852Y385465D01*
X282861Y385409D01*
X282862Y385352D01*
X282893Y385224D01*
X282915Y385094D01*
X282936Y385041D01*
X282950Y384986D01*
X283006Y384867D01*
X283056Y384744D01*
X283087Y384697D01*
X283112Y384646D01*
X283193Y384542D01*
X283267Y384432D01*
X283307Y384393D01*
X283342Y384348D01*
X283443Y384263D01*
X283538Y384172D01*
X283587Y384142D01*
X283630Y384106D01*
X283746Y384044D01*
X283859Y383974D01*
X283912Y383956D01*
X283963Y383929D01*
X284089Y383893D01*
X284214Y383849D01*
X284270Y383842D01*
X284325Y383826D01*
X284522Y383810D01*
X284587Y383801D01*
X284604Y383803D01*
X284625Y383801D01*
X301375Y383801D01*
X301431Y383807D01*
G37*
G36*
X321842Y57178D02*
X321842Y57178D01*
X321857Y57177D01*
X322029Y57198D01*
X322201Y57217D01*
X322216Y57221D01*
X322231Y57223D01*
X322394Y57280D01*
X322559Y57334D01*
X322572Y57342D01*
X322586Y57347D01*
X322734Y57437D01*
X322884Y57525D01*
X322895Y57535D01*
X322908Y57543D01*
X323033Y57662D01*
X323161Y57780D01*
X323170Y57792D01*
X323181Y57803D01*
X323279Y57946D01*
X323378Y58087D01*
X323384Y58101D01*
X323393Y58114D01*
X323458Y58274D01*
X323526Y58433D01*
X323529Y58448D01*
X323535Y58462D01*
X323565Y58633D01*
X323598Y58803D01*
X323597Y58818D01*
X323600Y58833D01*
X323593Y59006D01*
X323590Y59180D01*
X323586Y59194D01*
X323586Y59210D01*
X323517Y59503D01*
X323251Y60323D01*
X323229Y60461D01*
X333638Y60461D01*
X333750Y60473D01*
X333863Y60475D01*
X333937Y60493D01*
X334012Y60501D01*
X334120Y60536D01*
X334230Y60562D01*
X334298Y60595D01*
X334370Y60618D01*
X334405Y60639D01*
X334499Y60589D01*
X334572Y60568D01*
X334642Y60539D01*
X334753Y60517D01*
X334862Y60486D01*
X334952Y60479D01*
X335011Y60467D01*
X335072Y60468D01*
X335162Y60461D01*
X345571Y60461D01*
X345549Y60323D01*
X345283Y59503D01*
X345280Y59488D01*
X345274Y59474D01*
X345241Y59305D01*
X345205Y59135D01*
X345205Y59120D01*
X345202Y59105D01*
X345206Y58931D01*
X345207Y58758D01*
X345210Y58744D01*
X345210Y58728D01*
X345250Y58559D01*
X345287Y58391D01*
X345294Y58377D01*
X345297Y58362D01*
X345372Y58206D01*
X345444Y58048D01*
X345453Y58036D01*
X345460Y58022D01*
X345566Y57885D01*
X345669Y57746D01*
X345681Y57736D01*
X345690Y57724D01*
X345822Y57613D01*
X345953Y57499D01*
X345966Y57491D01*
X345978Y57482D01*
X346130Y57401D01*
X346282Y57316D01*
X346297Y57312D01*
X346310Y57305D01*
X346477Y57258D01*
X346643Y57208D01*
X346658Y57206D01*
X346673Y57202D01*
X346973Y57177D01*
X348279Y57177D01*
X348364Y57186D01*
X348449Y57185D01*
X348551Y57206D01*
X348654Y57217D01*
X348735Y57243D01*
X348818Y57260D01*
X348913Y57302D01*
X349011Y57334D01*
X349085Y57378D01*
X349163Y57412D01*
X349247Y57472D01*
X349336Y57525D01*
X349399Y57583D01*
X349468Y57632D01*
X349537Y57710D01*
X349614Y57780D01*
X349663Y57849D01*
X349719Y57912D01*
X349771Y58002D01*
X349831Y58087D01*
X349864Y58165D01*
X349907Y58239D01*
X349938Y58338D01*
X349979Y58433D01*
X349995Y58517D01*
X350021Y58598D01*
X350031Y58701D01*
X350050Y58803D01*
X350048Y58888D01*
X350057Y58973D01*
X350044Y59076D01*
X350042Y59180D01*
X350023Y59262D01*
X350013Y59347D01*
X349972Y59474D01*
X349955Y59546D01*
X349938Y59582D01*
X349921Y59634D01*
X349385Y60928D01*
X349385Y65072D01*
X350971Y68899D01*
X353792Y71721D01*
X353863Y71809D01*
X353942Y71891D01*
X353981Y71955D01*
X354029Y72014D01*
X354080Y72115D01*
X354139Y72211D01*
X354164Y72283D01*
X354198Y72350D01*
X354227Y72460D01*
X354265Y72566D01*
X354274Y72641D01*
X354293Y72715D01*
X354298Y72828D01*
X354313Y72940D01*
X354306Y73015D01*
X354309Y73091D01*
X354290Y73202D01*
X354281Y73315D01*
X354259Y73387D01*
X354246Y73462D01*
X354204Y73567D01*
X354170Y73675D01*
X354134Y73741D01*
X354105Y73811D01*
X354042Y73905D01*
X353987Y74004D01*
X353928Y74073D01*
X353895Y74123D01*
X353851Y74165D01*
X353792Y74234D01*
X347559Y80468D01*
X345965Y82062D01*
X345855Y82151D01*
X345750Y82245D01*
X345709Y82268D01*
X345672Y82298D01*
X345546Y82362D01*
X345423Y82432D01*
X345378Y82446D01*
X345336Y82468D01*
X345199Y82503D01*
X345065Y82546D01*
X345017Y82551D01*
X344972Y82563D01*
X344831Y82569D01*
X344690Y82582D01*
X344643Y82577D01*
X344595Y82579D01*
X344456Y82555D01*
X344316Y82538D01*
X344269Y82523D01*
X341787Y82523D01*
X339547Y83451D01*
X337831Y85167D01*
X336903Y87407D01*
X336903Y89833D01*
X337831Y92074D01*
X339183Y93425D01*
X339219Y93469D01*
X339261Y93508D01*
X339337Y93616D01*
X339420Y93718D01*
X339445Y93769D01*
X339478Y93815D01*
X339530Y93937D01*
X339589Y94054D01*
X339604Y94109D01*
X339626Y94162D01*
X339651Y94291D01*
X339684Y94419D01*
X339687Y94475D01*
X339697Y94531D01*
X339695Y94663D01*
X339700Y94795D01*
X339691Y94851D01*
X339689Y94908D01*
X339659Y95036D01*
X339637Y95166D01*
X339615Y95219D01*
X339602Y95274D01*
X339546Y95393D01*
X339496Y95516D01*
X339464Y95563D01*
X339440Y95614D01*
X339359Y95718D01*
X339285Y95828D01*
X339244Y95867D01*
X339210Y95912D01*
X339109Y95997D01*
X339014Y96088D01*
X338965Y96118D01*
X338922Y96154D01*
X338805Y96216D01*
X338693Y96286D01*
X338639Y96304D01*
X338589Y96331D01*
X338462Y96367D01*
X338338Y96411D01*
X338282Y96418D01*
X338227Y96434D01*
X338030Y96450D01*
X337964Y96459D01*
X337948Y96457D01*
X337927Y96459D01*
X321998Y96459D01*
X321913Y96450D01*
X321828Y96451D01*
X321726Y96430D01*
X321623Y96419D01*
X321542Y96393D01*
X321459Y96376D01*
X321364Y96334D01*
X321266Y96302D01*
X321192Y96258D01*
X321114Y96224D01*
X321030Y96164D01*
X320941Y96111D01*
X320878Y96053D01*
X320809Y96004D01*
X320740Y95926D01*
X320663Y95856D01*
X320614Y95787D01*
X320558Y95724D01*
X320506Y95634D01*
X320446Y95549D01*
X320413Y95471D01*
X320370Y95397D01*
X320339Y95298D01*
X320298Y95203D01*
X320282Y95119D01*
X320256Y95038D01*
X320246Y94935D01*
X320227Y94833D01*
X320229Y94748D01*
X320220Y94663D01*
X320233Y94560D01*
X320235Y94456D01*
X320254Y94374D01*
X320264Y94289D01*
X320305Y94162D01*
X320322Y94090D01*
X320339Y94054D01*
X320356Y94002D01*
X321097Y92213D01*
X321097Y89787D01*
X320169Y87546D01*
X318823Y86201D01*
X318717Y86069D01*
X318608Y85940D01*
X318599Y85923D01*
X318587Y85908D01*
X318510Y85757D01*
X318431Y85607D01*
X318426Y85589D01*
X318417Y85572D01*
X318374Y85408D01*
X318328Y85245D01*
X318327Y85224D01*
X318322Y85208D01*
X318320Y85142D01*
X318303Y84945D01*
X318303Y68110D01*
X318304Y68100D01*
X318303Y68091D01*
X318324Y67914D01*
X318343Y67735D01*
X318346Y67726D01*
X318347Y67717D01*
X318438Y67430D01*
X319415Y65072D01*
X319415Y60928D01*
X318879Y59634D01*
X318855Y59553D01*
X318821Y59474D01*
X318802Y59373D01*
X318772Y59273D01*
X318766Y59188D01*
X318750Y59105D01*
X318752Y59001D01*
X318744Y58897D01*
X318756Y58813D01*
X318758Y58728D01*
X318782Y58627D01*
X318796Y58524D01*
X318825Y58445D01*
X318845Y58362D01*
X318890Y58268D01*
X318925Y58171D01*
X318971Y58099D01*
X319007Y58022D01*
X319071Y57940D01*
X319126Y57852D01*
X319186Y57791D01*
X319237Y57724D01*
X319317Y57657D01*
X319389Y57583D01*
X319460Y57536D01*
X319525Y57482D01*
X319617Y57433D01*
X319704Y57376D01*
X319783Y57345D01*
X319858Y57305D01*
X319958Y57277D01*
X320054Y57239D01*
X320138Y57225D01*
X320220Y57202D01*
X320353Y57191D01*
X320426Y57179D01*
X320466Y57181D01*
X320521Y57177D01*
X321827Y57177D01*
X321842Y57178D01*
G37*
G36*
X341431Y383807D02*
X341431Y383807D01*
X341488Y383804D01*
X341618Y383827D01*
X341749Y383841D01*
X341803Y383858D01*
X341859Y383868D01*
X341981Y383917D01*
X342107Y383958D01*
X342156Y383987D01*
X342208Y384008D01*
X342318Y384082D01*
X342431Y384149D01*
X342473Y384187D01*
X342520Y384219D01*
X342612Y384315D01*
X342709Y384404D01*
X342742Y384450D01*
X342781Y384491D01*
X342850Y384603D01*
X342926Y384711D01*
X342948Y384763D01*
X342978Y384812D01*
X343022Y384936D01*
X343074Y385057D01*
X343085Y385113D01*
X343104Y385167D01*
X343120Y385298D01*
X343146Y385427D01*
X343144Y385484D01*
X343152Y385540D01*
X343140Y385672D01*
X343138Y385804D01*
X343124Y385859D01*
X343120Y385915D01*
X343081Y386042D01*
X343050Y386170D01*
X343026Y386221D01*
X343009Y386275D01*
X342945Y386391D01*
X342888Y386510D01*
X342853Y386555D01*
X342826Y386604D01*
X342698Y386755D01*
X342658Y386808D01*
X342645Y386818D01*
X342631Y386835D01*
X341110Y388356D01*
X338975Y393510D01*
X338975Y399090D01*
X341110Y404244D01*
X345056Y408190D01*
X348601Y409658D01*
X348651Y409685D01*
X348704Y409705D01*
X348815Y409775D01*
X348931Y409838D01*
X348975Y409875D01*
X349022Y409905D01*
X349117Y409998D01*
X349217Y410084D01*
X349251Y410129D01*
X349291Y410169D01*
X349364Y410279D01*
X349444Y410384D01*
X349468Y410436D01*
X349499Y410483D01*
X349547Y410606D01*
X349603Y410726D01*
X349615Y410781D01*
X349636Y410834D01*
X349657Y410964D01*
X349686Y411093D01*
X349686Y411150D01*
X349695Y411206D01*
X349688Y411337D01*
X349690Y411469D01*
X349678Y411525D01*
X349675Y411582D01*
X349641Y411709D01*
X349614Y411838D01*
X349592Y411890D01*
X349577Y411945D01*
X349516Y412062D01*
X349463Y412183D01*
X349430Y412229D01*
X349404Y412279D01*
X349320Y412381D01*
X349242Y412488D01*
X349200Y412526D01*
X349164Y412570D01*
X349060Y412652D01*
X348962Y412740D01*
X348913Y412768D01*
X348869Y412803D01*
X348693Y412894D01*
X348636Y412927D01*
X348620Y412932D01*
X348601Y412942D01*
X345056Y414410D01*
X341110Y418356D01*
X338975Y423510D01*
X338975Y429090D01*
X340332Y432366D01*
X340356Y432447D01*
X340390Y432526D01*
X340409Y432627D01*
X340439Y432727D01*
X340445Y432812D01*
X340461Y432895D01*
X340459Y432999D01*
X340467Y433103D01*
X340455Y433187D01*
X340453Y433272D01*
X340429Y433373D01*
X340415Y433476D01*
X340386Y433555D01*
X340366Y433638D01*
X340321Y433732D01*
X340286Y433829D01*
X340240Y433901D01*
X340204Y433978D01*
X340140Y434060D01*
X340085Y434148D01*
X340025Y434209D01*
X339974Y434276D01*
X339894Y434343D01*
X339822Y434417D01*
X339751Y434464D01*
X339686Y434518D01*
X339594Y434567D01*
X339507Y434624D01*
X339428Y434655D01*
X339353Y434695D01*
X339253Y434723D01*
X339157Y434761D01*
X339073Y434775D01*
X338991Y434798D01*
X338858Y434809D01*
X338785Y434821D01*
X338745Y434819D01*
X338690Y434823D01*
X328409Y434823D01*
X328325Y434814D01*
X328240Y434815D01*
X328138Y434794D01*
X328035Y434783D01*
X327954Y434757D01*
X327871Y434740D01*
X327776Y434698D01*
X327677Y434666D01*
X327604Y434622D01*
X327526Y434588D01*
X327442Y434528D01*
X327353Y434475D01*
X327290Y434417D01*
X327221Y434368D01*
X327152Y434290D01*
X327075Y434220D01*
X327026Y434151D01*
X326969Y434088D01*
X326918Y433998D01*
X326858Y433913D01*
X326824Y433835D01*
X326782Y433761D01*
X326751Y433662D01*
X326710Y433567D01*
X326694Y433483D01*
X326668Y433402D01*
X326658Y433299D01*
X326638Y433197D01*
X326640Y433112D01*
X326632Y433027D01*
X326644Y432924D01*
X326646Y432820D01*
X326666Y432738D01*
X326676Y432653D01*
X326716Y432526D01*
X326734Y432454D01*
X326751Y432418D01*
X326767Y432366D01*
X327273Y431145D01*
X327619Y429855D01*
X314778Y429855D01*
X314666Y429843D01*
X314552Y429841D01*
X314479Y429823D01*
X314404Y429815D01*
X314296Y429780D01*
X314186Y429754D01*
X314118Y429721D01*
X314046Y429697D01*
X313948Y429640D01*
X313846Y429591D01*
X313787Y429545D01*
X313721Y429507D01*
X313638Y429430D01*
X313548Y429361D01*
X313500Y429303D01*
X313444Y429252D01*
X313379Y429160D01*
X313306Y429073D01*
X313270Y429007D01*
X313227Y428945D01*
X313182Y428841D01*
X313129Y428741D01*
X313108Y428668D01*
X313079Y428598D01*
X313057Y428487D01*
X313026Y428378D01*
X313019Y428288D01*
X313007Y428229D01*
X313009Y428168D01*
X313001Y428078D01*
X313001Y424522D01*
X313013Y424410D01*
X313015Y424296D01*
X313033Y424223D01*
X313041Y424148D01*
X313076Y424040D01*
X313102Y423930D01*
X313135Y423862D01*
X313159Y423790D01*
X313216Y423692D01*
X313265Y423590D01*
X313311Y423531D01*
X313349Y423465D01*
X313426Y423382D01*
X313495Y423292D01*
X313553Y423244D01*
X313604Y423188D01*
X313696Y423123D01*
X313783Y423050D01*
X313850Y423014D01*
X313911Y422970D01*
X314015Y422926D01*
X314115Y422873D01*
X314188Y422852D01*
X314258Y422823D01*
X314369Y422801D01*
X314478Y422770D01*
X314568Y422763D01*
X314627Y422751D01*
X314688Y422752D01*
X314778Y422745D01*
X327619Y422745D01*
X327273Y421455D01*
X326519Y419633D01*
X325533Y417926D01*
X324333Y416362D01*
X322938Y414967D01*
X321374Y413767D01*
X319667Y412781D01*
X318727Y412392D01*
X318677Y412365D01*
X318624Y412346D01*
X318512Y412275D01*
X318396Y412212D01*
X318353Y412175D01*
X318305Y412145D01*
X318211Y412053D01*
X318111Y411966D01*
X318076Y411921D01*
X318036Y411881D01*
X317963Y411771D01*
X317884Y411666D01*
X317860Y411615D01*
X317828Y411567D01*
X317781Y411444D01*
X317725Y411324D01*
X317712Y411269D01*
X317692Y411216D01*
X317671Y411086D01*
X317642Y410957D01*
X317641Y410900D01*
X317632Y410845D01*
X317639Y410713D01*
X317638Y410581D01*
X317649Y410525D01*
X317652Y410469D01*
X317687Y410341D01*
X317713Y410212D01*
X317736Y410160D01*
X317751Y410105D01*
X317811Y409988D01*
X317864Y409867D01*
X317898Y409821D01*
X317924Y409771D01*
X318008Y409669D01*
X318085Y409562D01*
X318127Y409524D01*
X318163Y409480D01*
X318267Y409398D01*
X318365Y409310D01*
X318414Y409282D01*
X318459Y409247D01*
X318635Y409156D01*
X318692Y409123D01*
X318708Y409118D01*
X318727Y409108D01*
X320944Y408190D01*
X324890Y404244D01*
X327025Y399090D01*
X327025Y393510D01*
X324890Y388356D01*
X323369Y386835D01*
X323333Y386791D01*
X323291Y386752D01*
X323215Y386644D01*
X323132Y386542D01*
X323107Y386491D01*
X323074Y386445D01*
X323022Y386323D01*
X322963Y386206D01*
X322948Y386151D01*
X322926Y386098D01*
X322901Y385969D01*
X322868Y385841D01*
X322865Y385785D01*
X322854Y385729D01*
X322857Y385597D01*
X322852Y385465D01*
X322861Y385409D01*
X322862Y385352D01*
X322893Y385224D01*
X322915Y385094D01*
X322936Y385041D01*
X322950Y384986D01*
X323006Y384867D01*
X323056Y384744D01*
X323087Y384697D01*
X323112Y384646D01*
X323193Y384542D01*
X323267Y384432D01*
X323307Y384393D01*
X323342Y384348D01*
X323443Y384263D01*
X323538Y384172D01*
X323587Y384142D01*
X323630Y384106D01*
X323746Y384044D01*
X323859Y383974D01*
X323912Y383956D01*
X323963Y383929D01*
X324089Y383893D01*
X324214Y383849D01*
X324270Y383842D01*
X324325Y383826D01*
X324522Y383810D01*
X324587Y383801D01*
X324604Y383803D01*
X324625Y383801D01*
X341375Y383801D01*
X341431Y383807D01*
G37*
%LPC*%
G36*
X509313Y200283D02*
X509313Y200283D01*
X507073Y201211D01*
X505357Y202927D01*
X504429Y205167D01*
X504429Y207593D01*
X505357Y209833D01*
X507073Y211549D01*
X509313Y212477D01*
X509920Y212477D01*
X510032Y212489D01*
X510146Y212491D01*
X510219Y212509D01*
X510294Y212517D01*
X510402Y212552D01*
X510512Y212578D01*
X510580Y212611D01*
X510652Y212634D01*
X510750Y212692D01*
X510852Y212741D01*
X510911Y212787D01*
X510977Y212825D01*
X511060Y212902D01*
X511150Y212971D01*
X511198Y213029D01*
X511254Y213080D01*
X511319Y213172D01*
X511392Y213259D01*
X511428Y213325D01*
X511472Y213387D01*
X511516Y213491D01*
X511569Y213591D01*
X511590Y213664D01*
X511619Y213733D01*
X511641Y213845D01*
X511672Y213953D01*
X511679Y214044D01*
X511691Y214103D01*
X511690Y214164D01*
X511697Y214254D01*
X511697Y281944D01*
X511679Y282113D01*
X511665Y282282D01*
X511659Y282300D01*
X511657Y282319D01*
X511604Y282480D01*
X511555Y282642D01*
X511545Y282658D01*
X511540Y282677D01*
X511454Y282823D01*
X511371Y282971D01*
X511357Y282987D01*
X511349Y283001D01*
X511304Y283050D01*
X511177Y283201D01*
X509831Y284547D01*
X508903Y286787D01*
X508903Y289213D01*
X509831Y291453D01*
X511547Y293169D01*
X513787Y294097D01*
X516213Y294097D01*
X518453Y293169D01*
X520169Y291453D01*
X521097Y289213D01*
X521097Y286787D01*
X520169Y284547D01*
X518823Y283201D01*
X518717Y283069D01*
X518608Y282940D01*
X518599Y282923D01*
X518587Y282908D01*
X518510Y282757D01*
X518431Y282607D01*
X518426Y282589D01*
X518417Y282572D01*
X518374Y282408D01*
X518328Y282245D01*
X518327Y282224D01*
X518322Y282208D01*
X518320Y282142D01*
X518303Y281944D01*
X518303Y209486D01*
X517143Y208327D01*
X517037Y208194D01*
X516928Y208065D01*
X516919Y208048D01*
X516907Y208034D01*
X516830Y207882D01*
X516751Y207733D01*
X516746Y207714D01*
X516737Y207697D01*
X516694Y207533D01*
X516648Y207370D01*
X516647Y207349D01*
X516642Y207333D01*
X516640Y207267D01*
X516623Y207070D01*
X516623Y205167D01*
X515695Y202927D01*
X513979Y201211D01*
X511739Y200283D01*
X509313Y200283D01*
G37*
%LPD*%
%LPC*%
G36*
X890928Y385185D02*
X890928Y385185D01*
X887100Y386771D01*
X884171Y389700D01*
X882585Y393528D01*
X882585Y397672D01*
X884171Y401500D01*
X887100Y404429D01*
X890928Y406015D01*
X895072Y406015D01*
X898900Y404429D01*
X901829Y401500D01*
X903415Y397672D01*
X903415Y393528D01*
X901829Y389700D01*
X898900Y386771D01*
X895072Y385185D01*
X890928Y385185D01*
G37*
%LPD*%
%LPC*%
G36*
X890928Y359785D02*
X890928Y359785D01*
X887100Y361371D01*
X884171Y364300D01*
X882585Y368128D01*
X882585Y372272D01*
X884171Y376100D01*
X887100Y379029D01*
X890928Y380615D01*
X895072Y380615D01*
X898900Y379029D01*
X901829Y376100D01*
X903415Y372272D01*
X903415Y368128D01*
X901829Y364300D01*
X898900Y361371D01*
X895072Y359785D01*
X890928Y359785D01*
G37*
%LPD*%
%LPC*%
G36*
X850928Y215185D02*
X850928Y215185D01*
X847100Y216771D01*
X844171Y219700D01*
X842585Y223528D01*
X842585Y227672D01*
X844171Y231500D01*
X847100Y234429D01*
X850928Y236015D01*
X855072Y236015D01*
X858900Y234429D01*
X861829Y231500D01*
X863415Y227672D01*
X863415Y223528D01*
X861829Y219700D01*
X858900Y216771D01*
X855072Y215185D01*
X850928Y215185D01*
G37*
%LPD*%
%LPC*%
G36*
X850928Y189785D02*
X850928Y189785D01*
X847100Y191371D01*
X844171Y194300D01*
X842585Y198128D01*
X842585Y202272D01*
X844171Y206100D01*
X847100Y209029D01*
X850928Y210615D01*
X855072Y210615D01*
X858900Y209029D01*
X861829Y206100D01*
X863415Y202272D01*
X863415Y198128D01*
X861829Y194300D01*
X858900Y191371D01*
X855072Y189785D01*
X850928Y189785D01*
G37*
%LPD*%
%LPC*%
G36*
X850928Y164385D02*
X850928Y164385D01*
X847100Y165971D01*
X844171Y168900D01*
X842585Y172728D01*
X842585Y176872D01*
X844171Y180700D01*
X847100Y183629D01*
X850928Y185215D01*
X855072Y185215D01*
X858900Y183629D01*
X861829Y180700D01*
X863415Y176872D01*
X863415Y172728D01*
X861829Y168900D01*
X858900Y165971D01*
X855072Y164385D01*
X850928Y164385D01*
G37*
%LPD*%
%LPC*%
G36*
X890928Y334385D02*
X890928Y334385D01*
X887100Y335971D01*
X884171Y338900D01*
X882585Y342728D01*
X882585Y346872D01*
X884171Y350700D01*
X887100Y353629D01*
X890928Y355215D01*
X895072Y355215D01*
X898900Y353629D01*
X901829Y350700D01*
X903415Y346872D01*
X903415Y342728D01*
X901829Y338900D01*
X898900Y335971D01*
X895072Y334385D01*
X890928Y334385D01*
G37*
%LPD*%
G36*
X98037Y292303D02*
X98037Y292303D01*
X98169Y292302D01*
X98225Y292313D01*
X98282Y292316D01*
X98409Y292351D01*
X98538Y292377D01*
X98590Y292400D01*
X98645Y292415D01*
X98762Y292476D01*
X98883Y292529D01*
X98929Y292562D01*
X98979Y292588D01*
X99082Y292672D01*
X99188Y292749D01*
X99226Y292791D01*
X99270Y292827D01*
X99352Y292931D01*
X99440Y293029D01*
X99468Y293078D01*
X99503Y293123D01*
X99594Y293299D01*
X99627Y293356D01*
X99632Y293372D01*
X99642Y293391D01*
X100678Y295892D01*
X103108Y298322D01*
X105609Y299358D01*
X105659Y299385D01*
X105712Y299405D01*
X105824Y299475D01*
X105940Y299538D01*
X105983Y299575D01*
X106031Y299605D01*
X106125Y299698D01*
X106225Y299784D01*
X106259Y299829D01*
X106300Y299869D01*
X106373Y299979D01*
X106452Y300084D01*
X106476Y300136D01*
X106507Y300183D01*
X106555Y300306D01*
X106611Y300426D01*
X106624Y300481D01*
X106644Y300534D01*
X106665Y300664D01*
X106694Y300793D01*
X106695Y300850D01*
X106704Y300906D01*
X106697Y301037D01*
X106698Y301169D01*
X106687Y301225D01*
X106684Y301282D01*
X106649Y301409D01*
X106623Y301538D01*
X106600Y301590D01*
X106585Y301645D01*
X106525Y301762D01*
X106471Y301883D01*
X106438Y301929D01*
X106412Y301979D01*
X106328Y302081D01*
X106251Y302188D01*
X106209Y302226D01*
X106173Y302270D01*
X106069Y302352D01*
X105971Y302440D01*
X105922Y302468D01*
X105877Y302503D01*
X105701Y302594D01*
X105644Y302627D01*
X105628Y302632D01*
X105609Y302642D01*
X103108Y303678D01*
X100678Y306108D01*
X99642Y308609D01*
X99615Y308659D01*
X99595Y308712D01*
X99525Y308824D01*
X99462Y308940D01*
X99425Y308983D01*
X99395Y309031D01*
X99302Y309125D01*
X99216Y309225D01*
X99171Y309259D01*
X99131Y309300D01*
X99021Y309373D01*
X98916Y309452D01*
X98864Y309476D01*
X98817Y309507D01*
X98694Y309555D01*
X98574Y309611D01*
X98519Y309624D01*
X98466Y309644D01*
X98336Y309665D01*
X98207Y309694D01*
X98150Y309695D01*
X98094Y309704D01*
X97963Y309697D01*
X97831Y309698D01*
X97775Y309687D01*
X97718Y309684D01*
X97591Y309649D01*
X97462Y309623D01*
X97410Y309600D01*
X97355Y309585D01*
X97238Y309525D01*
X97117Y309471D01*
X97071Y309438D01*
X97021Y309412D01*
X96919Y309328D01*
X96812Y309251D01*
X96774Y309209D01*
X96730Y309173D01*
X96648Y309069D01*
X96560Y308971D01*
X96532Y308922D01*
X96497Y308877D01*
X96406Y308701D01*
X96373Y308644D01*
X96368Y308628D01*
X96358Y308609D01*
X95322Y306108D01*
X92892Y303678D01*
X90391Y302642D01*
X90341Y302615D01*
X90288Y302595D01*
X90176Y302525D01*
X90060Y302462D01*
X90017Y302425D01*
X89969Y302395D01*
X89875Y302302D01*
X89775Y302216D01*
X89741Y302171D01*
X89700Y302131D01*
X89627Y302021D01*
X89548Y301916D01*
X89524Y301864D01*
X89493Y301817D01*
X89445Y301694D01*
X89389Y301574D01*
X89376Y301519D01*
X89356Y301466D01*
X89335Y301336D01*
X89306Y301207D01*
X89305Y301150D01*
X89296Y301094D01*
X89303Y300963D01*
X89302Y300831D01*
X89313Y300775D01*
X89316Y300718D01*
X89351Y300591D01*
X89377Y300462D01*
X89400Y300410D01*
X89415Y300355D01*
X89476Y300238D01*
X89529Y300117D01*
X89562Y300071D01*
X89588Y300021D01*
X89672Y299918D01*
X89749Y299812D01*
X89791Y299774D01*
X89827Y299730D01*
X89931Y299648D01*
X90029Y299560D01*
X90078Y299532D01*
X90123Y299497D01*
X90299Y299406D01*
X90356Y299373D01*
X90372Y299368D01*
X90391Y299358D01*
X92892Y298322D01*
X95322Y295892D01*
X96358Y293391D01*
X96385Y293341D01*
X96405Y293288D01*
X96475Y293176D01*
X96538Y293060D01*
X96575Y293017D01*
X96605Y292969D01*
X96698Y292875D01*
X96784Y292775D01*
X96829Y292741D01*
X96869Y292700D01*
X96979Y292627D01*
X97084Y292548D01*
X97136Y292524D01*
X97183Y292493D01*
X97306Y292445D01*
X97426Y292389D01*
X97481Y292376D01*
X97534Y292356D01*
X97664Y292335D01*
X97793Y292306D01*
X97850Y292305D01*
X97906Y292296D01*
X98037Y292303D01*
G37*
G36*
X97590Y273670D02*
X97590Y273670D01*
X97603Y273670D01*
X97774Y273705D01*
X97947Y273737D01*
X97959Y273742D01*
X97972Y273745D01*
X98131Y273815D01*
X98293Y273883D01*
X98304Y273891D01*
X98317Y273896D01*
X98457Y273998D01*
X98602Y274099D01*
X98611Y274109D01*
X98622Y274117D01*
X98738Y274246D01*
X98858Y274376D01*
X98866Y274388D01*
X98873Y274397D01*
X98902Y274446D01*
X99017Y274632D01*
X99744Y276059D01*
X100637Y277288D01*
X101712Y278363D01*
X102941Y279256D01*
X104368Y279983D01*
X104515Y280079D01*
X104663Y280172D01*
X104673Y280181D01*
X104684Y280189D01*
X104807Y280313D01*
X104932Y280435D01*
X104939Y280446D01*
X104949Y280456D01*
X105043Y280603D01*
X105140Y280750D01*
X105145Y280762D01*
X105152Y280773D01*
X105213Y280936D01*
X105276Y281100D01*
X105278Y281114D01*
X105283Y281126D01*
X105308Y281299D01*
X105336Y281472D01*
X105335Y281486D01*
X105337Y281499D01*
X105325Y281673D01*
X105316Y281848D01*
X105313Y281861D01*
X105312Y281874D01*
X105263Y282042D01*
X105217Y282212D01*
X105211Y282223D01*
X105208Y282236D01*
X105125Y282390D01*
X105044Y282546D01*
X105036Y282556D01*
X105030Y282568D01*
X104916Y282701D01*
X104805Y282836D01*
X104794Y282845D01*
X104786Y282855D01*
X104647Y282961D01*
X104509Y283070D01*
X104496Y283077D01*
X104487Y283084D01*
X104436Y283108D01*
X104241Y283209D01*
X103108Y283678D01*
X100678Y286108D01*
X99642Y288609D01*
X99615Y288659D01*
X99595Y288712D01*
X99525Y288824D01*
X99462Y288940D01*
X99425Y288983D01*
X99395Y289031D01*
X99302Y289125D01*
X99216Y289225D01*
X99171Y289259D01*
X99131Y289300D01*
X99021Y289373D01*
X98916Y289452D01*
X98864Y289476D01*
X98817Y289507D01*
X98694Y289555D01*
X98574Y289611D01*
X98519Y289624D01*
X98466Y289644D01*
X98336Y289665D01*
X98207Y289694D01*
X98150Y289695D01*
X98094Y289704D01*
X97963Y289697D01*
X97831Y289698D01*
X97775Y289687D01*
X97718Y289684D01*
X97591Y289649D01*
X97462Y289623D01*
X97410Y289600D01*
X97355Y289585D01*
X97238Y289525D01*
X97117Y289471D01*
X97071Y289438D01*
X97021Y289412D01*
X96919Y289328D01*
X96812Y289251D01*
X96774Y289209D01*
X96730Y289173D01*
X96648Y289069D01*
X96560Y288971D01*
X96532Y288922D01*
X96497Y288877D01*
X96406Y288701D01*
X96373Y288644D01*
X96368Y288628D01*
X96358Y288609D01*
X95322Y286108D01*
X92892Y283678D01*
X90391Y282642D01*
X90341Y282615D01*
X90288Y282595D01*
X90176Y282525D01*
X90060Y282462D01*
X90017Y282425D01*
X89969Y282395D01*
X89875Y282302D01*
X89775Y282216D01*
X89741Y282171D01*
X89700Y282131D01*
X89627Y282021D01*
X89548Y281916D01*
X89524Y281864D01*
X89493Y281817D01*
X89445Y281694D01*
X89389Y281574D01*
X89376Y281519D01*
X89356Y281466D01*
X89335Y281336D01*
X89306Y281207D01*
X89305Y281150D01*
X89296Y281094D01*
X89303Y280963D01*
X89302Y280831D01*
X89313Y280775D01*
X89316Y280718D01*
X89351Y280591D01*
X89377Y280462D01*
X89400Y280410D01*
X89415Y280355D01*
X89476Y280238D01*
X89529Y280117D01*
X89562Y280071D01*
X89588Y280021D01*
X89672Y279918D01*
X89749Y279812D01*
X89791Y279774D01*
X89827Y279730D01*
X89931Y279648D01*
X90029Y279560D01*
X90078Y279532D01*
X90123Y279497D01*
X90299Y279406D01*
X90356Y279373D01*
X90372Y279368D01*
X90391Y279358D01*
X92892Y278322D01*
X95322Y275892D01*
X95791Y274759D01*
X95876Y274604D01*
X95957Y274450D01*
X95965Y274440D01*
X95972Y274428D01*
X96087Y274294D01*
X96198Y274161D01*
X96209Y274153D01*
X96217Y274143D01*
X96357Y274037D01*
X96495Y273929D01*
X96507Y273923D01*
X96518Y273916D01*
X96677Y273842D01*
X96834Y273766D01*
X96847Y273762D01*
X96859Y273757D01*
X97030Y273718D01*
X97200Y273677D01*
X97213Y273676D01*
X97226Y273674D01*
X97402Y273672D01*
X97577Y273667D01*
X97590Y273670D01*
G37*
%LPC*%
G36*
X855539Y126539D02*
X855539Y126539D01*
X855539Y135171D01*
X855677Y135149D01*
X857388Y134593D01*
X858991Y133776D01*
X860447Y132719D01*
X861719Y131447D01*
X862776Y129991D01*
X863593Y128388D01*
X864149Y126677D01*
X864171Y126539D01*
X855539Y126539D01*
G37*
%LPD*%
%LPC*%
G36*
X336939Y65539D02*
X336939Y65539D01*
X336939Y74171D01*
X337077Y74149D01*
X338788Y73593D01*
X340391Y72776D01*
X341847Y71719D01*
X343119Y70447D01*
X344176Y68991D01*
X344993Y67388D01*
X345549Y65677D01*
X345571Y65539D01*
X336939Y65539D01*
G37*
%LPD*%
%LPC*%
G36*
X907229Y372739D02*
X907229Y372739D01*
X907251Y372877D01*
X907807Y374588D01*
X908624Y376191D01*
X909681Y377647D01*
X910953Y378919D01*
X912409Y379976D01*
X914012Y380793D01*
X915723Y381349D01*
X915861Y381371D01*
X915861Y372739D01*
X907229Y372739D01*
G37*
%LPD*%
%LPC*%
G36*
X841829Y126539D02*
X841829Y126539D01*
X841851Y126677D01*
X842407Y128388D01*
X843224Y129991D01*
X844281Y131447D01*
X845553Y132719D01*
X847009Y133776D01*
X848612Y134593D01*
X850323Y135149D01*
X850461Y135171D01*
X850461Y126539D01*
X841829Y126539D01*
G37*
%LPD*%
%LPC*%
G36*
X855539Y121461D02*
X855539Y121461D01*
X864171Y121461D01*
X864149Y121323D01*
X863593Y119612D01*
X862776Y118009D01*
X861719Y116553D01*
X860447Y115281D01*
X858991Y114224D01*
X857388Y113407D01*
X855677Y112851D01*
X855539Y112829D01*
X855539Y121461D01*
G37*
%LPD*%
%LPC*%
G36*
X907229Y398139D02*
X907229Y398139D01*
X907251Y398277D01*
X907807Y399988D01*
X908624Y401591D01*
X909681Y403047D01*
X910953Y404319D01*
X912409Y405376D01*
X914012Y406193D01*
X915723Y406749D01*
X915861Y406771D01*
X915861Y398139D01*
X907229Y398139D01*
G37*
%LPD*%
%LPC*%
G36*
X323229Y65539D02*
X323229Y65539D01*
X323251Y65677D01*
X323807Y67388D01*
X324624Y68991D01*
X325681Y70447D01*
X326953Y71719D01*
X328409Y72776D01*
X330012Y73593D01*
X331723Y74149D01*
X331861Y74171D01*
X331861Y65539D01*
X323229Y65539D01*
G37*
%LPD*%
%LPC*%
G36*
X915723Y384451D02*
X915723Y384451D01*
X914012Y385007D01*
X912409Y385824D01*
X910953Y386881D01*
X909681Y388153D01*
X908624Y389609D01*
X907807Y391212D01*
X907251Y392923D01*
X907229Y393061D01*
X915861Y393061D01*
X915861Y384429D01*
X915723Y384451D01*
G37*
%LPD*%
%LPC*%
G36*
X915723Y409851D02*
X915723Y409851D01*
X914012Y410407D01*
X912409Y411224D01*
X910953Y412281D01*
X909681Y413553D01*
X908624Y415009D01*
X907807Y416612D01*
X907251Y418323D01*
X907229Y418461D01*
X915861Y418461D01*
X915861Y409829D01*
X915723Y409851D01*
G37*
%LPD*%
%LPC*%
G36*
X915723Y359051D02*
X915723Y359051D01*
X914012Y359607D01*
X912409Y360424D01*
X910953Y361481D01*
X909681Y362753D01*
X908624Y364209D01*
X907807Y365812D01*
X907251Y367523D01*
X907229Y367661D01*
X915861Y367661D01*
X915861Y359029D01*
X915723Y359051D01*
G37*
%LPD*%
%LPC*%
G36*
X850323Y112851D02*
X850323Y112851D01*
X848612Y113407D01*
X847009Y114224D01*
X845553Y115281D01*
X844281Y116553D01*
X843224Y118009D01*
X842407Y119612D01*
X841851Y121323D01*
X841829Y121461D01*
X850461Y121461D01*
X850461Y112829D01*
X850323Y112851D01*
G37*
%LPD*%
%LPC*%
G36*
X732999Y85999D02*
X732999Y85999D01*
X732999Y93456D01*
X733260Y93415D01*
X734705Y92946D01*
X736059Y92256D01*
X737288Y91363D01*
X738363Y90288D01*
X739256Y89059D01*
X739946Y87705D01*
X740415Y86260D01*
X740456Y85999D01*
X732999Y85999D01*
G37*
%LPD*%
%LPC*%
G36*
X59777Y336377D02*
X59777Y336377D01*
X59777Y343006D01*
X60009Y342969D01*
X61294Y342552D01*
X62497Y341939D01*
X63590Y341145D01*
X64545Y340190D01*
X65339Y339097D01*
X65952Y337894D01*
X66369Y336609D01*
X66406Y336377D01*
X59777Y336377D01*
G37*
%LPD*%
%LPC*%
G36*
X59777Y332823D02*
X59777Y332823D01*
X66406Y332823D01*
X66369Y332591D01*
X65952Y331306D01*
X65339Y330103D01*
X64545Y329010D01*
X63590Y328055D01*
X62497Y327261D01*
X61294Y326648D01*
X60009Y326231D01*
X59777Y326194D01*
X59777Y332823D01*
G37*
%LPD*%
D10*
X433000Y426300D03*
D11*
X393000Y426300D03*
X353000Y426300D03*
X313000Y426300D03*
X273000Y426300D03*
X233000Y426300D03*
X193000Y426300D03*
X153000Y426300D03*
X433000Y396300D03*
X393000Y396300D03*
X353000Y396300D03*
X313000Y396300D03*
X273000Y396300D03*
X233000Y396300D03*
X193000Y396300D03*
X153000Y396300D03*
D12*
X56000Y306000D03*
X56000Y280600D03*
X56000Y255200D03*
X56000Y229800D03*
D13*
X58000Y385400D03*
X58000Y334600D03*
D14*
X108000Y271000D03*
X88000Y271000D03*
X108000Y291000D03*
X88000Y291000D03*
X108000Y311000D03*
X88000Y311000D03*
X108000Y331000D03*
X88000Y331000D03*
X108000Y351000D03*
X88000Y351000D03*
D12*
X309000Y63000D03*
X334400Y63000D03*
X359800Y63000D03*
X385200Y63000D03*
X893000Y421000D03*
X918400Y421000D03*
X893000Y395600D03*
X918400Y395600D03*
X893000Y370200D03*
X918400Y370200D03*
X893000Y344800D03*
X918400Y344800D03*
X893000Y319400D03*
X918400Y319400D03*
X893000Y294000D03*
X918400Y294000D03*
D14*
X731000Y84000D03*
X731000Y64000D03*
X711000Y84000D03*
X711000Y64000D03*
X691000Y84000D03*
X691000Y64000D03*
X671000Y84000D03*
X671000Y64000D03*
X651000Y84000D03*
X651000Y64000D03*
D12*
X853000Y124000D03*
X853000Y149400D03*
X853000Y174800D03*
X853000Y200200D03*
X853000Y225600D03*
X853000Y251000D03*
D15*
X416000Y360000D03*
D16*
X389562Y333562D01*
X389562Y324438D01*
D15*
X389562Y324438D03*
X390000Y274000D03*
D16*
X390000Y324000D01*
X389562Y324438D01*
D15*
X480000Y399000D03*
D16*
X481000Y398000D01*
X481000Y372000D01*
D15*
X481000Y372000D03*
D16*
X56000Y255200D02*
X43000Y242200D01*
X43000Y204000D02*
X49000Y198000D01*
D15*
X49000Y198000D03*
D16*
X43000Y204000D02*
X43000Y242200D01*
D15*
X213000Y70380D03*
D16*
X205000Y78380D01*
X205000Y90000D01*
D15*
X205000Y90000D03*
X193000Y139000D03*
D16*
X220000Y139000D01*
X231496Y150496D02*
X240135Y150496D01*
D15*
X240135Y150496D03*
D16*
X231496Y150496D02*
X220000Y139000D01*
X240135Y150496D02*
X262496Y150496D01*
X271000Y159000D02*
X273000Y159000D01*
D15*
X273000Y159000D03*
D16*
X271000Y159000D02*
X262496Y150496D01*
X108000Y271000D02*
X98000Y281000D01*
X98000Y295000D01*
X92000Y301000D01*
X80000Y301000D01*
X74000Y295000D01*
X74000Y282029D02*
X67444Y275473D01*
X67444Y266644D02*
X56000Y255200D01*
X67444Y266644D02*
X67444Y275473D01*
X74000Y282029D02*
X74000Y295000D01*
D15*
X142000Y337000D03*
D16*
X142000Y253000D01*
X149000Y246000D01*
D15*
X149000Y246000D03*
D16*
X74000Y318600D02*
X58000Y334600D01*
X74000Y318600D02*
X74000Y295000D01*
D15*
X329000Y91000D03*
D16*
X329000Y68400D01*
X334400Y63000D01*
D15*
X110000Y187000D03*
D16*
X111000Y188000D01*
X339000Y188000D02*
X406000Y255000D01*
D15*
X406000Y255000D03*
D16*
X339000Y188000D02*
X111000Y188000D01*
D15*
X95000Y190000D03*
D16*
X100000Y195000D01*
X306000Y195000D01*
X326388Y215388D02*
X326388Y239612D01*
D15*
X326388Y239612D03*
D16*
X326388Y215388D02*
X306000Y195000D01*
D15*
X64000Y177000D03*
D16*
X64000Y141000D01*
X134000Y71000D01*
D15*
X134000Y71000D03*
X346000Y171000D03*
X107000Y159980D03*
D16*
X123020Y176000D01*
X338000Y163000D02*
X346000Y171000D01*
X338000Y163000D02*
X317000Y163000D01*
X309000Y171000D01*
X309000Y174000D01*
X307000Y176000D01*
X123020Y176000D01*
D15*
X120000Y122620D03*
D16*
X123000Y125620D02*
X260620Y125620D01*
X123000Y125620D02*
X120000Y122620D01*
X260620Y125620D02*
X299000Y164000D01*
D15*
X299000Y164000D03*
X128000Y99000D03*
D16*
X136000Y107000D02*
X162000Y107000D01*
X136000Y107000D02*
X128000Y99000D01*
X425000Y111000D02*
X441000Y111000D01*
D15*
X441000Y111000D03*
D16*
X166000Y103000D02*
X162000Y107000D01*
X166000Y103000D02*
X417000Y103000D01*
X425000Y111000D01*
D15*
X148000Y95000D03*
D16*
X148000Y97000D02*
X150000Y99000D01*
X148000Y97000D02*
X148000Y95000D01*
X442000Y99000D02*
X443000Y98000D01*
X442000Y99000D02*
X150000Y99000D01*
D15*
X443000Y98000D03*
X119000Y203000D03*
D16*
X112000Y210000D01*
X122000Y270000D02*
X122000Y348000D01*
X132000Y358000D01*
X147000Y358000D01*
D15*
X147000Y358000D03*
D16*
X112000Y260000D02*
X112000Y210000D01*
X112000Y260000D02*
X122000Y270000D01*
D15*
X394000Y176000D03*
D16*
X371000Y153000D01*
X300976Y141000D02*
X299196Y142780D01*
D15*
X299196Y142780D03*
D16*
X355000Y153000D02*
X371000Y153000D01*
X355000Y153000D02*
X343000Y141000D01*
X300976Y141000D01*
D15*
X248000Y110620D03*
D16*
X267002Y110620D01*
X269000Y112618D01*
D15*
X269000Y112618D03*
D16*
X252000Y407300D02*
X233000Y426300D01*
X447000Y372000D02*
X456000Y363000D01*
X456000Y295000D01*
X444000Y283000D01*
D15*
X444000Y283000D03*
D16*
X252000Y386000D02*
X252000Y407300D01*
X252000Y386000D02*
X266000Y372000D01*
X447000Y372000D01*
D15*
X458000Y381000D03*
D16*
X449000Y372000D01*
X447000Y372000D01*
X261300Y368000D02*
X233000Y396300D01*
X261300Y368000D02*
X436000Y368000D01*
X445000Y359000D01*
X445000Y358000D01*
D15*
X445000Y358000D03*
X369000Y235000D03*
D17*
X328000Y276000D01*
X325000Y276000D01*
D15*
X325000Y276000D03*
X325380Y173604D03*
X371000Y207000D03*
D17*
X335458Y183682D02*
X325380Y173604D01*
X335458Y183682D02*
X340789Y183682D01*
X364107Y207000D02*
X371000Y207000D01*
X364107Y207000D02*
X340789Y183682D01*
D15*
X345000Y154000D03*
D17*
X430000Y239000D02*
X446000Y239000D01*
X430000Y239000D02*
X345000Y154000D01*
D15*
X446000Y239000D03*
X153000Y265000D03*
X225000Y256000D03*
D17*
X206000Y237000D01*
X181000Y237000D02*
X153000Y265000D01*
X181000Y237000D02*
X206000Y237000D01*
D15*
X466000Y273000D03*
D17*
X403000Y273000D01*
X392000Y262000D01*
X365000Y262000D01*
X308000Y319000D01*
X307000Y319000D01*
D15*
X307000Y319000D03*
X174000Y115000D03*
D16*
X113000Y115000D01*
X83000Y179000D02*
X75000Y187000D01*
X75000Y257000D01*
X88000Y270000D01*
X88000Y271000D01*
X83000Y145000D02*
X113000Y115000D01*
X83000Y145000D02*
X83000Y179000D01*
D15*
X191000Y112000D03*
D16*
X186000Y107000D01*
X169000Y107000D01*
X165000Y111000D01*
X111000Y111000D01*
X77000Y145000D01*
X77000Y177000D01*
X71000Y183000D01*
X88000Y288000D02*
X88000Y291000D01*
X88000Y288000D02*
X71000Y271000D01*
X71000Y183000D01*
D15*
X461000Y228000D03*
D17*
X484000Y251000D01*
X487000Y251000D01*
D15*
X487000Y251000D03*
D17*
X461000Y228000D02*
X461000Y159000D01*
X428000Y126000D01*
D15*
X428000Y126000D03*
D17*
X413000Y111000D01*
X332000Y111000D01*
D15*
X332000Y111000D03*
X315000Y91000D03*
D17*
X315000Y69000D01*
X309000Y63000D01*
D15*
X127000Y256000D03*
D17*
X154000Y229000D01*
X177380Y229000D02*
X269000Y229000D01*
X177380Y229000D02*
X154000Y229000D01*
D15*
X274000Y204000D03*
D17*
X274000Y224000D01*
X269000Y229000D01*
D15*
X298000Y205000D03*
D17*
X275000Y205000D01*
X274000Y204000D01*
D15*
X162380Y214000D03*
D17*
X177380Y229000D01*
X315000Y91000D02*
X310000Y86000D01*
X266000Y86000D02*
X261000Y91000D01*
D15*
X261000Y91000D03*
D17*
X266000Y86000D02*
X310000Y86000D01*
D15*
X116000Y67000D03*
D17*
X116000Y60000D01*
X120000Y56000D01*
X247000Y56000D01*
X261000Y70000D02*
X261000Y91000D01*
X261000Y70000D02*
X247000Y56000D01*
D15*
X118296Y368101D03*
D17*
X114983Y371414D01*
X71986Y371414D01*
X58000Y385400D01*
D15*
X425000Y89000D03*
D17*
X453000Y89000D01*
X461000Y97000D02*
X478000Y97000D01*
X483000Y102000D01*
X483000Y151000D01*
X475000Y159000D01*
X461000Y159000D01*
X461000Y97000D02*
X453000Y89000D01*
X425000Y89000D02*
X389903Y89000D01*
D15*
X389903Y89000D03*
X510526Y206380D03*
D17*
X515000Y210854D01*
X515000Y288000D01*
D15*
X515000Y288000D03*
X215000Y114000D03*
D17*
X222000Y121000D01*
D15*
X414000Y133000D03*
D17*
X333000Y121000D02*
X222000Y121000D01*
X333000Y121000D02*
X345000Y133000D01*
X414000Y133000D01*
D15*
X208000Y153000D03*
D17*
X120000Y153000D01*
X110000Y143000D02*
X96000Y143000D01*
X90000Y149000D01*
X90000Y181000D01*
X120000Y153000D02*
X110000Y143000D01*
X82000Y246000D02*
X88000Y252000D01*
D15*
X88000Y252000D03*
D17*
X82000Y189000D02*
X90000Y181000D01*
X82000Y189000D02*
X82000Y246000D01*
D15*
X343000Y88620D03*
D16*
X350620Y81000D02*
X359800Y71820D01*
X359800Y63000D01*
X217960Y432530D02*
X226770Y441340D01*
X239230Y441340D01*
X454844Y388620D02*
X461156Y388620D01*
X465620Y384156D01*
X217960Y399990D02*
X199146Y381176D01*
X217960Y399990D02*
X217960Y432530D01*
X255556Y392474D02*
X266770Y381260D01*
X199146Y381176D02*
X143176Y381176D01*
X239230Y441340D02*
X255556Y425014D01*
X255556Y392474D01*
X266770Y381260D02*
X447484Y381260D01*
X465620Y384156D02*
X465620Y359380D01*
X466000Y359000D01*
X447484Y381260D02*
X454844Y388620D01*
X465620Y359380D02*
X465620Y292156D01*
X494620Y263156D01*
X494620Y93380D01*
X495000Y93000D01*
D15*
X495000Y93000D03*
X463000Y81000D03*
D16*
X350620Y81000D01*
X343000Y88620D01*
X108000Y331000D02*
X98000Y341000D01*
X98000Y356000D01*
X104000Y362000D01*
X113621Y362000D02*
X115140Y360481D01*
X122481Y360481D01*
X113621Y362000D02*
X104000Y362000D01*
X122481Y360481D02*
X143176Y381176D01*
D15*
X356938Y143000D03*
X404720Y143000D03*
D16*
X356938Y143000D01*
D15*
X438000Y63000D03*
D16*
X385200Y63000D01*
X119971Y351000D02*
X108000Y351000D01*
X398380Y258156D02*
X402844Y262620D01*
X453620Y242156D02*
X453620Y235844D01*
X398380Y253604D02*
X372156Y227380D01*
X398380Y253604D02*
X398380Y258156D01*
X363382Y149444D02*
X356938Y143000D01*
X134591Y365620D02*
X119971Y351000D01*
X134591Y365620D02*
X253972Y365620D01*
X260540Y359052D01*
X401620Y172844D02*
X378220Y149444D01*
X363382Y149444D01*
X401620Y172844D02*
X401620Y183844D01*
X453620Y235844D01*
X260540Y329684D02*
X260540Y359052D01*
X260540Y329684D02*
X362844Y227380D01*
X372156Y227380D01*
X402844Y262620D02*
X433156Y262620D01*
X453620Y242156D01*
D18*
X769884Y123390D02*
X852942Y123390D01*
X853000Y124000D01*
X878850Y358848D02*
X907044Y358848D01*
X917712Y369516D01*
X918400Y370200D01*
D19*
X878850Y358848D03*
D18*
X769884Y123390D02*
X731000Y84506D01*
X731000Y84000D01*
D20*
X852942Y149298D02*
X853000Y149400D01*
X776298Y149298D02*
X711000Y84000D01*
X776298Y149298D02*
X852942Y149298D01*
X711000Y84000D02*
X691000Y84000D01*
D18*
X868182Y282648D02*
X870468Y282648D01*
X868182Y282648D02*
X669698Y84164D01*
X671000Y84000D01*
D19*
X870468Y282648D03*
D18*
X797316Y265884D02*
X797316Y258884D01*
X651774Y113342D01*
D19*
X797316Y265884D03*
X651774Y113342D03*
D18*
X846560Y291602D02*
X846560Y374564D01*
X892566Y420570D01*
X893000Y421000D01*
D19*
X846560Y291602D03*
D18*
X819414Y247596D02*
X811794Y247596D01*
X819414Y247596D02*
X891042Y319224D01*
X892566Y319224D01*
X893000Y319400D01*
D19*
X811794Y247596D03*
D20*
X648774Y66226D02*
X651000Y64000D01*
X648774Y66226D02*
X648774Y68574D01*
X640106Y77242D01*
X640106Y88862D01*
X791982Y240738D01*
X818652Y240738D01*
X884946Y307032D01*
X905520Y307032D01*
X917712Y319224D01*
X918400Y319400D01*
X918474Y320748D02*
X918474Y344370D01*
X918400Y344800D01*
X918474Y320748D02*
X918400Y319400D01*
M02*
