G04 EAGLE Gerber RS-274X export*
G75*
%MOMM*%
%FSLAX34Y34*%
%LPD*%
%INTop Paste*%
%IPPOS*%
%AMOC8*
5,1,8,0,0,1.08239X$1,22.5*%
G01*
%ADD10R,1.400000X1.600000*%
%ADD11R,0.900000X0.700000*%
%ADD12R,0.700000X0.900000*%
%ADD13R,0.990600X0.304800*%
%ADD14R,2.700000X1.800000*%
%ADD15R,1.750000X0.650000*%
%ADD16R,0.850000X0.350000*%
%ADD17R,0.350000X0.850000*%
%ADD18R,1.000000X1.000000*%
%ADD19R,0.800000X0.900000*%
%ADD20R,0.550000X1.200000*%
%ADD21R,1.100000X1.900000*%
%ADD22R,0.900000X0.800000*%
%ADD23R,1.600000X3.000000*%
%ADD24R,5.800000X6.200000*%
%ADD25R,1.000000X1.400000*%
%ADD26R,0.800000X0.800000*%
%ADD27R,2.500000X2.500000*%
%ADD28C,2.500000*%
%ADD29R,1.470000X1.270000*%
%ADD30C,1.778000*%
%ADD31C,1.208000*%
%ADD32C,1.422400*%
%ADD33R,1.600000X1.400000*%
%ADD34C,0.254000*%
%ADD35R,0.482600X0.482600*%
%ADD36R,1.700000X0.900000*%
%ADD37R,4.500000X4.500000*%


D10*
X240900Y135700D03*
X212900Y135700D03*
D11*
X52100Y159600D03*
X52100Y146600D03*
D12*
X84000Y102300D03*
X71000Y102300D03*
D11*
X150700Y214400D03*
X150700Y227400D03*
X113000Y92800D03*
X113000Y79800D03*
D13*
X348050Y243300D03*
X348050Y236800D03*
X348050Y230300D03*
X348050Y223800D03*
X348050Y217300D03*
X348050Y210800D03*
X348050Y204300D03*
X406550Y204300D03*
X406550Y210800D03*
X406550Y217300D03*
X406550Y223800D03*
X406550Y230300D03*
X406550Y236800D03*
X406550Y243300D03*
D12*
X372100Y187700D03*
X359100Y187700D03*
X309300Y138700D03*
X322300Y138700D03*
X309300Y189500D03*
X322300Y189500D03*
X385500Y187700D03*
X398500Y187700D03*
X443600Y207800D03*
X430600Y207800D03*
X431600Y191100D03*
X444600Y191100D03*
X322300Y215900D03*
X309300Y215900D03*
X322300Y203200D03*
X309300Y203200D03*
X431600Y224200D03*
X444600Y224200D03*
X167000Y289500D03*
X180000Y289500D03*
X242900Y70200D03*
X229900Y70200D03*
X167000Y302200D03*
X180000Y302200D03*
X180000Y314900D03*
X167000Y314900D03*
D11*
X405000Y154800D03*
X405000Y167800D03*
X249300Y98100D03*
X249300Y85100D03*
X358200Y169800D03*
X358200Y156800D03*
D12*
X510320Y371420D03*
X497320Y371420D03*
D11*
X526450Y265500D03*
X526450Y278500D03*
D14*
X330700Y296100D03*
X330700Y340100D03*
D12*
X362300Y318700D03*
X375300Y318700D03*
D14*
X411000Y294100D03*
X411000Y338100D03*
D12*
X360400Y264700D03*
X373400Y264700D03*
D15*
X463266Y149150D03*
X520734Y149150D03*
X463266Y136450D03*
X463266Y123750D03*
X520734Y136450D03*
X520734Y123750D03*
X463266Y111050D03*
X520734Y111050D03*
D12*
X510900Y171200D03*
X523900Y171200D03*
D11*
X462470Y172600D03*
X462470Y185600D03*
X138000Y214400D03*
X138000Y227400D03*
X444800Y308300D03*
X444800Y295300D03*
X444800Y318900D03*
X444800Y331900D03*
X462500Y308300D03*
X462500Y295300D03*
X462500Y317900D03*
X462500Y330900D03*
D12*
X322300Y162100D03*
X309300Y162100D03*
X180000Y264100D03*
X167000Y264100D03*
D16*
X120700Y180600D03*
X120700Y174100D03*
X120700Y167600D03*
X120700Y161100D03*
X120700Y154600D03*
X120700Y148100D03*
X120700Y141600D03*
D17*
X131200Y131100D03*
X137700Y131100D03*
X144200Y131100D03*
X150700Y131100D03*
X157200Y131100D03*
X163700Y131100D03*
X170200Y131100D03*
D16*
X180700Y141600D03*
X180700Y148100D03*
X180700Y154600D03*
X180700Y161100D03*
X180700Y167600D03*
X180700Y174100D03*
X180700Y180600D03*
D17*
X170200Y191100D03*
X163700Y191100D03*
X157200Y191100D03*
X150700Y191100D03*
X144200Y191100D03*
X137700Y191100D03*
X131200Y191100D03*
D18*
X150690Y161090D03*
D19*
X370800Y356100D03*
X380300Y335100D03*
X361300Y335100D03*
X370900Y303100D03*
X380400Y282100D03*
X361400Y282100D03*
X381600Y171300D03*
X391100Y150300D03*
X372100Y150300D03*
D12*
X322300Y150400D03*
X309300Y150400D03*
X168900Y79400D03*
X155900Y79400D03*
D20*
X501500Y290821D03*
X492000Y290821D03*
X482500Y290821D03*
X482500Y264819D03*
X501500Y264819D03*
D21*
X90000Y118900D03*
X67000Y155900D03*
X67000Y118900D03*
X90000Y155900D03*
D19*
X191300Y89500D03*
X200800Y68500D03*
X181800Y68500D03*
D22*
X181500Y348300D03*
X160500Y338800D03*
X160500Y357800D03*
D23*
X203200Y257900D03*
X248800Y257900D03*
D24*
X226000Y329700D03*
D25*
X284400Y115600D03*
X293900Y93600D03*
X274900Y93600D03*
D11*
X125300Y214400D03*
X125300Y227400D03*
X99900Y227400D03*
X99900Y214400D03*
X203800Y103800D03*
X203800Y116800D03*
D12*
X220400Y199200D03*
X233400Y199200D03*
X233400Y186500D03*
X220400Y186500D03*
D26*
X244800Y199200D03*
X259800Y199200D03*
X244800Y186500D03*
X259800Y186500D03*
D11*
X112600Y214400D03*
X112600Y227400D03*
D12*
X220400Y173800D03*
X233400Y173800D03*
X233400Y161100D03*
X220400Y161100D03*
D26*
X244800Y173800D03*
X259800Y173800D03*
X244800Y161100D03*
X259800Y161100D03*
D20*
X500500Y229001D03*
X491000Y229001D03*
X481500Y229001D03*
X481500Y202999D03*
X500500Y202999D03*
D10*
X429000Y256100D03*
X457000Y256100D03*
D11*
X526310Y248500D03*
X526310Y235500D03*
X526250Y311500D03*
X526250Y298500D03*
X525020Y212990D03*
X525020Y199990D03*
D12*
X167000Y276800D03*
X180000Y276800D03*
D11*
X150400Y290400D03*
X150400Y277400D03*
D26*
X150300Y320600D03*
X150300Y305600D03*
D10*
X486820Y338100D03*
X514820Y338100D03*
D19*
X431000Y165300D03*
X440500Y144300D03*
X421500Y144300D03*
X284900Y151300D03*
X294400Y130300D03*
X275400Y130300D03*
X225800Y110300D03*
X235300Y89300D03*
X216300Y89300D03*
D27*
X433000Y426300D03*
D28*
X393000Y426300D03*
X353000Y426300D03*
X313000Y426300D03*
X273000Y426300D03*
X233000Y426300D03*
X193000Y426300D03*
X153000Y426300D03*
X433000Y396300D03*
X393000Y396300D03*
X353000Y396300D03*
X313000Y396300D03*
X273000Y396300D03*
X233000Y396300D03*
X193000Y396300D03*
X153000Y396300D03*
D29*
X283300Y340300D03*
X283300Y297300D03*
D30*
X56000Y306000D03*
X56000Y280600D03*
X56000Y255200D03*
X56000Y229800D03*
D31*
X58000Y385400D03*
X58000Y334600D03*
D32*
X108000Y271000D03*
X88000Y271000D03*
X108000Y291000D03*
X88000Y291000D03*
X108000Y311000D03*
X88000Y311000D03*
X108000Y331000D03*
X88000Y331000D03*
X108000Y351000D03*
X88000Y351000D03*
D33*
X108000Y398000D03*
X108000Y426000D03*
D34*
X356333Y134626D02*
X356333Y127006D01*
X361379Y127006D02*
X361379Y134626D01*
X366425Y134626D02*
X366425Y127006D01*
X371775Y127006D02*
X371775Y134626D01*
X376796Y134626D02*
X376796Y127006D01*
X381867Y127006D02*
X381867Y134626D01*
X356333Y92594D02*
X356333Y84974D01*
X361379Y84974D02*
X361379Y92594D01*
X366425Y92594D02*
X366425Y84974D01*
X371775Y84974D02*
X371775Y92594D01*
X376796Y92594D02*
X376796Y84974D01*
X381867Y84974D02*
X381867Y92594D01*
X386052Y97033D02*
X393672Y97033D01*
X393672Y102079D02*
X386052Y102079D01*
X386052Y107125D02*
X393672Y107125D01*
X393672Y112475D02*
X386052Y112475D01*
X386052Y117496D02*
X393672Y117496D01*
X393672Y122567D02*
X386052Y122567D01*
X352148Y97033D02*
X344528Y97033D01*
X344528Y102079D02*
X352148Y102079D01*
X352148Y107125D02*
X344528Y107125D01*
X344528Y112475D02*
X352148Y112475D01*
X352148Y117496D02*
X344528Y117496D01*
X344528Y122567D02*
X352148Y122567D01*
D35*
X363031Y115715D03*
X375731Y115715D03*
X363158Y103650D03*
X375350Y103650D03*
D11*
X426000Y69500D03*
X426000Y56500D03*
X408000Y56500D03*
X408000Y69500D03*
X409000Y82500D03*
X409000Y95500D03*
X316000Y101500D03*
X316000Y114500D03*
X413000Y109500D03*
X413000Y122500D03*
X272000Y67500D03*
X272000Y54500D03*
X288000Y67500D03*
X288000Y54500D03*
D30*
X309000Y63000D03*
X334400Y63000D03*
X359800Y63000D03*
X385200Y63000D03*
D36*
X650500Y130400D03*
X650500Y143100D03*
X650500Y155800D03*
X650500Y168500D03*
X650500Y181200D03*
X650500Y193900D03*
X650500Y206600D03*
X650500Y219300D03*
X650500Y232000D03*
X650500Y244700D03*
X650500Y257400D03*
X650500Y270100D03*
X650500Y282800D03*
X650500Y295500D03*
X650500Y308200D03*
X650500Y320900D03*
X650500Y333600D03*
X650500Y346300D03*
X650500Y359000D03*
X830500Y130400D03*
X830500Y143100D03*
X830500Y155800D03*
X830500Y168500D03*
X830500Y181200D03*
X830500Y193900D03*
X830500Y206600D03*
X830500Y219300D03*
X830500Y232000D03*
X830500Y244700D03*
X830500Y257400D03*
X830500Y270100D03*
X830500Y282800D03*
X830500Y295500D03*
X830500Y308200D03*
X830500Y320900D03*
X830500Y333600D03*
X830500Y346300D03*
X830500Y359000D03*
D37*
X726700Y281100D03*
D30*
X893000Y421000D03*
X918400Y421000D03*
X893000Y395600D03*
X918400Y395600D03*
X893000Y370200D03*
X918400Y370200D03*
X893000Y344800D03*
X918400Y344800D03*
X893000Y319400D03*
X918400Y319400D03*
X893000Y294000D03*
X918400Y294000D03*
D32*
X731000Y84000D03*
X731000Y64000D03*
X711000Y84000D03*
X711000Y64000D03*
X691000Y84000D03*
X691000Y64000D03*
X671000Y84000D03*
X671000Y64000D03*
X651000Y84000D03*
X651000Y64000D03*
D30*
X853000Y124000D03*
X853000Y149400D03*
X853000Y174800D03*
X853000Y200200D03*
X853000Y225600D03*
X853000Y251000D03*
M02*
