M48
;GenerationSoftware,Autodesk,EAGLE,9.6.2*%
;CreationDate,2023-03-01T04:25:19Z*%
FMAT,2
ICI,OFF
METRIC,TZ,000.000
T7C0.350
T6C0.508
T5C0.700
T4C0.800
T3C1.016
T2C1.500
T1C3.302
%
G90
M71
T1
X6340Y42240
X6340Y7140
X52340Y42240
X52340Y7140
T2
X15300Y42630
X35300Y42630
X43300Y42630
X39300Y42630
X31300Y39630
X31300Y42630
X27300Y42630
X23300Y42630
X19300Y42630
X43300Y39630
X39300Y39630
X35300Y39630
X15300Y39630
X27300Y39630
X23300Y39630
X19300Y39630
T3
X85300Y25100
X5600Y30600
X5600Y28060
X5600Y25520
X5600Y22980
X30900Y6300
X91840Y42100
X91840Y31940
X33440Y6300
X35980Y6300
X38520Y6300
X89300Y42100
X89300Y39560
X91840Y39560
X89300Y37020
X91840Y37020
X89300Y34480
X91840Y34480
X89300Y31940
X89300Y29400
X91840Y29400
X85300Y12400
X85300Y14940
X85300Y17480
X85300Y20020
X85300Y22560
T4
X10800Y27100
X8800Y27100
X10800Y29100
X8800Y29100
X73100Y8400
X73100Y6400
X71100Y8400
X71100Y6400
X69100Y8400
X69100Y6400
X67100Y8400
X67100Y6400
X65100Y8400
X65100Y6400
X10800Y31100
X10800Y33100
X8800Y33100
X10800Y35100
X8800Y35100
X8800Y31100
T5
X5800Y33460
X5800Y38540
T6
X8800Y25200
X34300Y8862
X49500Y9300
X46300Y8100
X35694Y14300
X40472Y14300
X6400Y17700
X41600Y36000
X38956Y32444
X39000Y27400
X48000Y39900
X48100Y37200
X4900Y19800
X21300Y7038
X20500Y9000
X19300Y13900
X24014Y15050
X27300Y15900
X43800Y6300
X14200Y33700
X14900Y24600
X32900Y9100
X11000Y18700
X40600Y25500
X9500Y19000
X32639Y23961
X13400Y7100
X34600Y17100
X10700Y15998
X12000Y12262
X29900Y16400
X12800Y9900
X44100Y11100
X14800Y9500
X44300Y9800
X11900Y20300
X14700Y35800
X39400Y17600
X29920Y14278
X24800Y11062
X26900Y11262
X44400Y28300
X45800Y38100
X44500Y35800
X36900Y23500
X32500Y27600
X32538Y17360
X37100Y20700
X34500Y15400
X44600Y23900
X15300Y26500
X22500Y25600
X46600Y27300
X30700Y31900
X17400Y11500
X19100Y11200
X29800Y20500
X46100Y22800
X48700Y25100
X42800Y12600
X33200Y11100
X31500Y9100
X12700Y25600
X27400Y20400
X16238Y21400
X26100Y9100
X11600Y6700
X11830Y36810
X42500Y8900
X38990Y8900
X51053Y20638
X51500Y28800
X21500Y11400
X41400Y13300
X20800Y15300
T7
X79732Y26588
X65177Y11334
X84656Y29160
X81179Y24760
X87885Y35885
X87047Y28265
M30